<?xml version="1.0" encoding="utf-8"?>
<!-- Generator: Adobe Illustrator 21.0.0, SVG Export Plug-In . SVG Version: 6.00 Build 0)  -->
<svg version="1.1" id="Layer_1" xmlns="http://www.w3.org/2000/svg" xmlns:xlink="http://www.w3.org/1999/xlink" x="0px" y="0px"
	 viewBox="0 0 200 200" enable-background="new 0 0 200 200" xml:space="preserve">
<g id="Background">
</g>
<g id="Objects">
	<g>
		<g>
			<g>
				<polygon fill="#C9C9C9" points="24.6,35.9 24.6,37.3 18.5,36.9 18.5,35.5 				"/>
				<polygon fill="#C9C9C9" points="18.6,33.9 24.6,33.6 24.6,35.9 18.1,35.6 				"/>
				<g>
					<polygon fill="#C9C9C9" points="19.2,34.8 15.8,119.4 14.3,120.9 17.4,34.2 					"/>
					<polygon fill="#C9C9C9" points="24.6,28.1 19.2,34.8 17.8,34.4 24.5,25.9 					"/>
					<polygon fill="#C9C9C9" points="23.5,53.7 18.2,58.4 17.3,58.1 23.6,52.1 					"/>
					<polygon fill="#C9C9C9" points="22,92.6 16.8,96.1 15.5,95.6 22.1,91 					"/>
					<path fill="#C9C9C9" d="M13.5,123.3l8.7-5.8l3.3-95.4L17,34L13.5,123.3z M23.6,47.9l-6.3,6.3l0.6-19.9l6.6-8.4L23.6,47.9z
						 M23.6,52.1l-1.4,34.5l-6.6,5l1.6-33.5L23.6,52.1z M21.1,115.6l-6.8,4.9l1.2-24.9l6.6-4.6L21.1,115.6z"/>
				</g>
			</g>
			<g>
				<polygon fill="#00A7DB" points="23,115 26.2,23 179.3,54.2 182.5,135.5 				"/>
				<path fill="#007FC6" d="M26.9,23.9l151.6,31l3.2,79.8L23.8,114.3L26.9,23.9 M25.5,22.1l-3.3,93.5l161,20.7L180,53.6L25.5,22.1
					L25.5,22.1z"/>
			</g>
			<g>
				<polygon fill="#F2F6F7" points="174,131.2 176.5,125.5 168.3,125.8 169.7,131.1 				"/>
				<polygon fill="#F2F6F7" points="169.7,131.1 166.5,131.5 164,127.1 168.3,125.8 				"/>
				<polygon fill="#F2F6F7" points="174,131.2 169.9,131.8 166.5,131.5 169.7,131.1 				"/>
			</g>
			<g>
				<polygon fill="#F2F6F7" points="111.2,124.5 114.1,119 105.9,118.6 106.9,124.1 				"/>
				<polygon fill="#F2F6F7" points="106.9,124.1 103.7,124.3 101.5,119.7 105.9,118.6 				"/>
				<polygon fill="#F2F6F7" points="111.2,124.5 107.1,124.8 103.7,124.3 106.9,124.1 				"/>
			</g>
			<g>
				<polygon fill="#F2F6F7" points="45.2,118.1 49.3,113.4 41.4,111.2 41.1,116.8 				"/>
				<polygon fill="#F2F6F7" points="41.1,116.8 37.9,116.2 36.9,111.3 41.4,111.2 				"/>
				<polygon fill="#F2F6F7" points="45.2,118.1 41.1,117.5 37.9,116.2 41.1,116.8 				"/>
			</g>
			<polygon fill="#333333" points="23.6,116.4 197.1,135.5 197.1,133.7 23.6,114.6 			"/>
			<polygon fill="#808080" points="23.6,116.4 3.3,132 3.3,130.2 23.6,114.6 			"/>
			<g>
				<path fill="#4D4D4D" d="M3.3,132l158,14.9l35.8-11.3L23.6,116.4L3.3,132z M110.4,136.3L122,132l56.5,5.5l-12.6,4.4L110.4,136.3z
					 M83.5,133.5l-67.1-6.9l7.2-5.4l68.5,7.6L83.5,133.5z"/>
			</g>
			<polygon fill="#808080" points="92.1,128.8 95.3,129.1 83.6,135.5 83.5,133.5 			"/>
			<polygon fill="#1A1A1A" points="83.6,135.5 14.3,128 16.4,126.6 83.5,133.5 			"/>
			<polygon fill="#1A1A1A" points="110.4,136.3 108,137.4 165.6,143.1 165.9,141.9 			"/>
			<polygon fill="#808080" points="165.6,143.1 182,137.8 178.5,137.5 165.9,141.9 			"/>
			<path fill="#00B0FF" d="M108,186.9v-50.4c0-3.9-4-4.4-8.9-4.4l0,0c-4.9,0-8.9,0.5-8.9,4.4v50.4H108z"/>
		</g>
	</g>
	<g>
		<path fill="#FFFFFF" stroke="#FFFFFF" stroke-width="0.6904" stroke-miterlimit="10" d="M48.1,75.1l-0.2,1.1l-3.1-0.6l0.2-1.1
			l0.9,0.2l-0.2-3.4l-3.4-0.6l-1.4,3.1l0.9,0.2l-0.2,1.1l-3.1-0.6l0.2-1.1l1,0.2l4.8-10.5l1.9,0.3l0.8,11.5L48.1,75.1z M45.5,70.3
			l-0.4-5.9l-2.4,5.4L45.5,70.3z"/>
		<path fill="#FFFFFF" stroke="#FFFFFF" stroke-width="0.6904" stroke-miterlimit="10" d="M57.5,65.4c0.8,0.1,1.3,0.4,1.6,0.8
			c0.2,0.4,0.3,1,0.2,1.7l-1.4,7.9c-0.1,0.7-0.4,1.2-0.8,1.5c-0.4,0.3-1,0.3-1.7,0.2l-5.7-1l0.2-1.1l1,0.2l1.8-9.9l-1-0.2l0.2-1.1
			L57.5,65.4z M58.1,66.7L54,65.9l-1.8,9.9l4.1,0.7L58.1,66.7z"/>
		<path fill="#FFFFFF" stroke="#FFFFFF" stroke-width="0.6904" stroke-miterlimit="10" d="M60.9,66l3,0.5l-0.2,1.1l-0.8-0.1
			l0.9,10.4l4.4-9.4l-1-0.2l0.2-1.1l3.1,0.6l-0.2,1.1l-0.9-0.2l-4.9,10.5l-1.9-0.3l-1-11.5l-0.9-0.2L60.9,66z"/>
		<path fill="#FFFFFF" stroke="#FFFFFF" stroke-width="0.6904" stroke-miterlimit="10" d="M77.2,73.2l-0.6,3.4l-1.1-0.2l0.2-1.1
			l-2.3-0.4l-0.8,4.6l4.1,0.7l0.3-1.9l1.1,0.2l-0.5,3L70,80.2l0.2-1.1l1,0.2l1.8-9.9l-1-0.2l0.2-1.1l7.6,1.3l-0.5,3l-1.1-0.2
			l0.3-1.9l-4.1-0.7l-0.7,4.2l2.3,0.4l0.2-1.1L77.2,73.2z"/>
		<path fill="#FFFFFF" stroke="#FFFFFF" stroke-width="0.6904" stroke-miterlimit="10" d="M89.3,82.4l-0.2,1.1L85.9,83l0.2-1.1
			l0.9,0.2l-2-4.9l-1.9,0.7l-0.6,3.4l1,0.2l-0.2,1.1L79.9,82l0.2-1.1l1,0.2l1.8-9.9l-1-0.2l0.2-1.1l5.8,1c0.7,0.1,1.2,0.3,1.4,0.7
			c0.2,0.3,0.2,0.9,0.1,1.7l-0.2,1c-0.1,0.4-0.2,0.7-0.3,0.9c-0.1,0.2-0.3,0.4-0.5,0.6s-0.5,0.3-0.9,0.4s-0.8,0.3-1.4,0.5l2.3,5.6
			L89.3,82.4z M83.3,76.5l4.5-1.8l0.5-2.7l-4-0.7L83.3,76.5z"/>
		<path fill="#FFFFFF" stroke="#FFFFFF" stroke-width="0.6904" stroke-miterlimit="10" d="M92.5,83l1,0.2l1.8-9.9l-2-0.4L93,74.8
			l-1.2-0.2l0.5-3L100,73l-0.5,3l-1.2-0.2l0.3-1.9l-2-0.4l-1.8,9.9l1,0.2l-0.2,1.1l-3.4-0.6L92.5,83z"/>
		<path fill="#FFFFFF" stroke="#FFFFFF" stroke-width="0.6904" stroke-miterlimit="10" d="M102.5,84.8l1,0.2l-0.2,1.1l-3.4-0.6
			l0.2-1.1l1,0.2l1.8-9.9l-1-0.2l0.2-1.1l3.4,0.6l-0.2,1.1l-1-0.2L102.5,84.8z"/>
		<path fill="#FFFFFF" stroke="#FFFFFF" stroke-width="0.6904" stroke-miterlimit="10" d="M112.3,81.6c0.2,0.2,0.4,0.4,0.5,0.5
			c0.2,0.1,0.3,0.3,0.4,0.4c0.2,0.3,0.3,0.6,0.2,1l-0.5,2.7c-0.1,0.5-0.3,0.8-0.7,1c-0.3,0.2-0.7,0.2-1.2,0.2l-5.1-0.9l0.5-3
			l1.2,0.2l-0.3,1.9l4.4,0.8l0.6-3.1l-3.8-3.3c-0.3-0.3-0.6-0.6-0.8-0.8c-0.2-0.3-0.3-0.6-0.2-1l0.4-2c0.1-0.6,0.3-1,0.7-1.2
			c0.3-0.2,0.8-0.2,1.4-0.1l4.9,0.9l-0.5,3l-1.2-0.2l0.3-1.9l-4.2-0.7l-0.5,2.6L112.3,81.6z"/>
		<path fill="#FFFFFF" stroke="#FFFFFF" stroke-width="0.6904" stroke-miterlimit="10" d="M122.3,81.2l-0.6,3.4l-1.1-0.2l0.2-1.1
			l-2.3-0.4l-0.8,4.6l4.1,0.7l0.3-1.9l1.1,0.2l-0.5,3l-7.6-1.3l0.2-1.1l1,0.2l1.8-9.9l-1-0.2l0.2-1.1l7.6,1.3l-0.5,3l-1.1-0.2
			l0.3-1.9l-4.1-0.7l-0.7,4.2l2.3,0.4l0.2-1.1L122.3,81.2z"/>
		<path fill="#FFFFFF" stroke="#FFFFFF" stroke-width="0.6904" stroke-miterlimit="10" d="M127,78.9l0.2-1.1l2.5,0.4l2.2,7.7
			l4.6-6.4l2.5,0.4l-0.2,1.1l-1-0.2l-1.8,9.9l1,0.2l-0.2,1.1l-3.4-0.6l0.2-1.1l1,0.2l1.5-8.3l-4.2,5.7l-1-0.2l-1.9-6.9l-1.5,8.4
			l1,0.2l-0.2,1.1l-3.4-0.6l0.2-1.1l1,0.2l1.8-9.9L127,78.9z"/>
		<path fill="#FFFFFF" stroke="#FFFFFF" stroke-width="0.6904" stroke-miterlimit="10" d="M146.4,85.5l-0.6,3.4l-1.1-0.2l0.2-1.1
			l-2.3-0.4l-0.8,4.6l4.1,0.7l0.3-1.9l1.1,0.2l-0.5,3l-7.6-1.3l0.2-1.1l1,0.2l1.8-9.9l-1-0.2l0.2-1.1l7.6,1.3l-0.5,3l-1.1-0.2
			l0.3-1.9l-4.1-0.7l-0.7,4.2l2.3,0.4l0.2-1.1L146.4,85.5z"/>
		<path fill="#FFFFFF" stroke="#FFFFFF" stroke-width="0.6904" stroke-miterlimit="10" d="M160.6,84.9l-1-0.2l-2,11l-1.6-0.3
			l-2.9-10.2l-1.5,8.3l1,0.2l-0.2,1.1l-3.4-0.6l0.2-1.1l1,0.2l1.8-9.9l-1-0.2l0.2-1.1l2.5,0.4l3,10.4l1.5-8.5l-1-0.2l0.2-1.1
			l3.4,0.6L160.6,84.9z"/>
		<path fill="#FFFFFF" stroke="#FFFFFF" stroke-width="0.6904" stroke-miterlimit="10" d="M162.8,95.5l1,0.2l1.8-9.9l-2-0.4
			l-0.3,1.9l-1.2-0.2l0.5-3l7.7,1.4l-0.5,3l-1.2-0.2l0.3-1.9l-2-0.4l-1.8,9.9l1,0.2l-0.2,1.1l-3.4-0.6L162.8,95.5z"/>
	</g>
</g>
</svg>
