<?xml version="1.0" encoding="utf-8"?>
<!-- Generator: Adobe Illustrator 21.0.0, SVG Export Plug-In . SVG Version: 6.00 Build 0)  -->
<svg version="1.1" id="objects" xmlns="http://www.w3.org/2000/svg" xmlns:xlink="http://www.w3.org/1999/xlink" x="0px" y="0px"
	 viewBox="0 0 200 200" enable-background="new 0 0 200 200" xml:space="preserve">
<g>
	<g>
		<g>
			<g>
				<g>
					<path fill="#686868" stroke="#686868" stroke-width="0.5906" stroke-miterlimit="10" d="M129.1,57H74.7c-3.7,0-6.5,3.3-6.5,7
						v54.7v14v8.7v16.8V184c0,3.7,2.8,7,6.5,7h0.1h13.7h40.7c3.7,0,6.4-3.3,6.4-7V63.9C135.6,60.2,132.8,57,129.1,57z"/>
					<g>
						<path fill="#DEDEDE" d="M128.1,58H73.7c-3.7,0-6.5,3.3-6.5,7v54.7v14v8.7v16.8V185c0,3.7,2.8,7,6.5,7h0.1h13.7h40.7
							c3.7,0,6.4-3.3,6.4-7V64.9C134.6,61.2,131.8,58,128.1,58z"/>
						<g>
							<circle fill="#FFFFFF" cx="100.6" cy="182.6" r="5.8"/>
						</g>
						<circle fill="#DEDEDE" cx="100.6" cy="182.6" r="3.7"/>
					</g>
					<g>
						<path fill="#4C5557" d="M108.9,69.6c0,0.4-0.3,0.7-0.7,0.7H93.5c-0.4,0-0.7-0.3-0.7-0.7l0,0c0-0.4,0.3-0.7,0.7-0.7h14.7
							C108.6,68.9,108.9,69.2,108.9,69.6L108.9,69.6z"/>
						<circle fill="#4C5557" cx="100.6" cy="65.1" r="2"/>
						<circle fill="#4C5557" cx="89.5" cy="69.7" r="0.9"/>
					</g>
					<g>
						<rect x="71.7" y="75.7" fill="#104966" width="57.8" height="97.8"/>
						<rect x="71.7" y="153.3" fill="#0D415B" width="57.8" height="20.2"/>
						<rect x="71.7" y="75.7" fill="#0D415B" width="57.8" height="5.1"/>
					</g>
					<g>
						<g>
							<path fill="#FFAF39" d="M124.3,168c0,1.1-0.9,2.1-2.1,2.1h-8.9c-1.1,0-2.1-0.9-2.1-2.1v-8.9c0-1.1,0.9-2.1,2.1-2.1h8.9
								c1.1,0,2.1,0.9,2.1,2.1V168z"/>
							<path fill="#FFFFFF" d="M120.8,159.8h-5.1v4.5c-0.7-0.1-0.7,0-1.2,0.3c-0.7,0.5-0.8,1.4-0.3,2c0.4,0.6,1.4,0.6,2.1,0.1
								c0.5-0.4,0.7-1.3,0.7-1.8l0.1-5h2.7v4.5c-0.7-0.1-0.9,0-1.3,0.3c-0.7,0.5-0.8,1.4-0.4,2s1.4,0.6,2.1,0.1
								c0.4-0.3,0.5-0.7,0.5-1.1L120.8,159.8z"/>
						</g>
						<g>
							<path fill="#1BB687" d="M106.9,167.7c0,1.1-0.9,2.1-2.1,2.1h-8.9c-1.1,0-2.1-0.9-2.1-2.1v-8.9c0-1.1,0.9-2.1,2.1-2.1h8.9
								c1.1,0,2.1,0.9,2.1,2.1V167.7z"/>
							<g>
								<path fill="#FFFFFF" d="M101.4,162.3c0,0,0,0.6-0.6,1.3s-1.2,0.9-1.2,0.9l-0.8-0.6l-1,1.4c0,0,1.8,1.7,3.8-0.8
									c2.3-2.8,0.4-4.4,0.4-4.4l-1.1,1.6L101.4,162.3z"/>
								<circle fill="none" stroke="#FFFFFF" stroke-width="0.5396" stroke-miterlimit="10" cx="100.5" cy="163.1" r="4.5"/>
							</g>
						</g>
						<g>
							<path fill="#E94150" d="M89.1,167c0,1.1-0.9,2-2,2h-8.3c-1.1,0-2-0.9-2-2v-8.3c0-1.1,0.9-2,2-2h8.3c1.1,0,2,0.9,2,2V167z"/>
							<g>
								<g>
									<path id="XMLID_3_" fill="#FFFFFF" d="M87,166.3c0,0.2-0.1,0.3-0.3,0.3h-7.5c-0.2,0-0.3-0.1-0.3-0.3v-6.5
										c0-0.2,0.1-0.3,0.3-0.3h7.5c0.2,0,0.3,0.1,0.3,0.3V166.3z"/>
								</g>
								<g>
									<defs>
										<path id="SVGID_1_" d="M87,166.3c0,0.2-0.1,0.3-0.3,0.3h-7.5c-0.2,0-0.3-0.1-0.3-0.3v-6.5c0-0.2,0.1-0.3,0.3-0.3h7.5
											c0.2,0,0.3,0.1,0.3,0.3V166.3z"/>
									</defs>
									<clipPath id="SVGID_2_">
										<use xlink:href="#SVGID_1_"  overflow="visible"/>
									</clipPath>
									<path clip-path="url(#SVGID_2_)" fill="#E94150" d="M83.2,163.8c-0.1,0-0.2,0-0.3-0.1c-2.1-1.9-4.6-4-5-4.3
										c-0.2-0.1-0.4-0.2-0.4-0.5s0.2-0.5,0.5-0.5c0.2,0,0.5,0,5.2,4.2l5.2-4.3c0.2-0.2,0.5-0.1,0.7,0.1c0.2,0.2,0.1,0.5-0.1,0.7
										l-5.5,4.6C83.4,163.7,83.3,163.8,83.2,163.8z"/>
								</g>
							</g>
						</g>
					</g>
					<path fill="#FFAF39" d="M89.8,95.6c0,1.1-0.9,2-2,2h-8.3c-1.1,0-2-0.9-2-2v-8.3c0-1.1,0.9-2,2-2h8.3c1.1,0,2,0.9,2,2V95.6z"/>
					<g>
						<g>
							<path id="XMLID_4_" fill="#3BFFD9" d="M89.1,128.8c0,1.1-0.4,1.6-1.5,1.6h-8.3c-1.1,0-1.8-0.5-1.8-1.6v-8.3
								c0-1.1,0.7-1.7,1.8-1.7h8.3c1.1,0,1.5,0.6,1.5,1.7V128.8z"/>
						</g>
					</g>
					<path fill="#C5C7C4" d="M106.9,95.6c0,1.1-0.9,2-2,2h-8.3c-1.1,0-2-0.9-2-2v-8.3c0-1.1,0.9-2,2-2h8.3c1.1,0,2,0.9,2,2V95.6z"/>
					<path fill="#E94150" d="M89.8,112.4c0,1.1-0.9,2-2,2h-8.4c-1.1,0-2-0.9-2-2V104c0-1.1,0.9-2,2-2h8.4c1.1,0,2,0.9,2,2V112.4z"/>
					<path fill="#00E9E6" d="M106.7,112.2c0,1.1-0.9,2-2,2h-8.2c-1.1,0-2-0.9-2-2V104c0-1.1,0.9-2,2-2h8.2c1.1,0,2,0.9,2,2V112.2z"
						/>
					<path fill="#FFAF39" d="M106.9,129.1c0,1.1-0.9,2-2,2h-8.3c-1.1,0-2-0.9-2-2v-8.3c0-1.1,0.9-2,2-2h8.3c1.1,0,2,0.9,2,2V129.1z"
						/>
					<path fill="#E94150" d="M124.3,87c0-1.1-0.9-2-2-2h-8.9c-1.1,0-2,0.9-2,2v8.9c0,1.1,0.9,2,2,2h8.9c1.1,0,2-0.9,2-2V87z"/>
					<g>
						<g>
							<g>
								<path id="XMLID_8_" fill="#56E2A6" d="M123.3,112.5c0,1-0.7,1.5-1.9,1.5h-8.1c-1.1,0-2-0.5-2-1.5V104c0-1,0.8-1.9,2-1.9h8.1
									c1.1,0,1.9,0.9,1.9,1.9V112.5z"/>
							</g>
						</g>
					</g>
				</g>
				<g>
					<path fill="#E94150" d="M160.2,40.8c0-1.9-1.5-3.4-3.4-3.4h-14.1c-1.9,0-3.4,1.5-3.4,3.4v14.1c0,1.9,1.5,3.4,3.4,3.4h14.1
						c1.9,0,3.4-1.5,3.4-3.4V40.8z"/>
					<path fill="#D3374A" d="M156.8,56.3h-14c-1.9,0-3.4-1.5-3.4-3.4v2c0,1.9,1.5,3.4,3.4,3.4h14c1.9,0,3.4-1.5,3.4-3.4v-2
						C160.2,54.8,158.7,56.3,156.8,56.3z"/>
					<path fill="#FFFFFF" d="M142.8,53.9h13.7v-13h-13.7V53.9z M147.2,43.6l5.5,3.6l-5.5,3.6V43.6z"/>
				</g>
				<g>
					<path fill="#FFAF39" d="M185.1,135.2c0-1.9-1.5-3.4-3.4-3.4h-14.1c-1.9,0-3.4,1.5-3.4,3.4v14.1c0,1.9,1.5,3.4,3.4,3.4h14.1
						c1.9,0,3.4-1.5,3.4-3.4V135.2z"/>
					<path fill="#E88B10" d="M181.5,151h-14c-1.9,0-3.4-1.5-3.4-3.4v1.6c0,1.9,1.5,3.4,3.4,3.4h14c1.9,0,3.4-1.5,3.4-3.4v-1.6
						C184.9,149.5,183.4,151,181.5,151z"/>
					<g>
						<path fill="#FFFFFF" d="M179,139c0,2.5-4.5,10.4-4.5,10.4s-4.7-7.8-4.7-10.3s2-4.6,4.6-4.7C176.9,134.4,178.9,136.4,179,139z"
							/>
						
							<ellipse transform="matrix(0.9999 -1.180684e-02 1.180684e-02 0.9999 -1.6289 2.0687)" fill="#FFAF39" cx="174.4" cy="139" rx="2.5" ry="2.5"/>
					</g>
				</g>
				<g>
					<path fill="#C5C7C4" d="M116.8,12.3c0-2.9-2.4-5.3-5.3-5.3H89.6c-2.9,0-5.3,2.4-5.3,5.3v21.9c0,2.9,2.4,5.3,5.3,5.3h21.9
						c2.9,0,5.3-2.4,5.3-5.3V12.3z"/>
					<path fill="#AFB5AA" d="M111.3,37.2H89.6c-2.9,0-5.3-2.4-5.3-5.3v2.3c0,2.9,2.4,5.3,5.3,5.3h21.7c2.9,0,5.3-2.4,5.3-5.3v-2.3
						C116.6,34.8,114.3,37.2,111.3,37.2z"/>
					<g>
						<path fill="#FFFFFF" d="M105,18.3h-7v-2.1h-3.1v2.2c-1.4,0.1-2.4,1.3-2.4,2.7V28c0,1.5,1.2,2.7,2.7,2.7h9.8
							c1.5,0,2.9-1.2,2.9-2.7v-6.7C107.9,19.7,106.5,18.3,105,18.3z M100.4,27.8c-1.9,0-3.4-1.5-3.4-3.4s1.5-3.4,3.4-3.4
							s3.4,1.5,3.4,3.4C103.8,26.2,102.2,27.8,100.4,27.8z"/>
						<path fill="#C3C3C5" d="M100.4,20.9c-1.9,0-3.4,1.5-3.4,3.4s1.5,3.4,3.4,3.4s3.4-1.5,3.4-3.4
							C103.8,22.5,102.2,20.9,100.4,20.9z M100.4,26.7c-1.3,0-2.4-1.1-2.4-2.4s1.1-2.4,2.4-2.4s2.4,1.1,2.4,2.4
							C102.7,25.7,101.7,26.7,100.4,26.7z"/>
						<circle fill="#6A696E" cx="100.4" cy="24.4" r="2.4"/>
					</g>
				</g>
				<g>
					<path fill="#56E2A6" d="M194.1,101.6c0-1.9-1.5-3.4-3.4-3.4h-14.1c-1.9,0-3.4,1.5-3.4,3.4v14.1c0,1.9,1.5,3.4,3.4,3.4h14.1
						c1.9,0,3.4-1.5,3.4-3.4V101.6z"/>
					<path fill="#45CE90" d="M190.7,117.1h-14.1c-1.9,0-3.4-1.5-3.4-3.4v1.9c0,1.9,1.5,3.4,3.4,3.4h14.1c1.9,0,3.4-1.5,3.4-3.4v-1.9
						C194.1,115.6,192.5,117.1,190.7,117.1z"/>
					<g>
						<path fill="#FFFFFF" d="M189.1,109.2c0-0.9-0.5-1.8-1.3-2.3c0.1,0.3,0.1,0.5,0.1,0.8c0,2.1-1.8,3.9-4.2,4.3
							c0.5,0.2,1.1,0.3,1.7,0.3c0.6,0,1.1-0.1,1.6-0.3c0.6,0.2,1.3,0.3,1.8,0.3c-0.3-0.3-0.5-0.7-0.6-1
							C188.7,110.7,189.1,110,189.1,109.2z"/>
						<path fill="#FFFFFF" d="M186.9,107.3c0-2-1.9-3.7-4.1-3.7c-2.3,0-4.1,1.6-4.1,3.7c0,0.9,0.4,1.9,1.1,2.5
							c-0.2,0.4-0.4,0.8-0.6,1.1c-0.1,0.1-0.1,0.2,0,0.4c0.1,0.1,0.2,0.2,0.3,0.2l0,0c0.3,0,1-0.2,1.8-0.7c0.4,0.1,1.3,0.2,1.6,0.2
							C185,111,186.9,109.4,186.9,107.3z"/>
					</g>
				</g>
				<g>
					<path fill="#FFD939" d="M26.9,118.4c0-1.9-1.5-3.4-3.4-3.4H9.4c-1.9,0-3.4,1.5-3.4,3.4v14.1c0,1.9,1.5,3.4,3.4,3.4h14.1
						c1.9,0,3.4-1.5,3.4-3.4V118.4z"/>
					<path fill="#E5BF1F" d="M23.5,133.5h-14c-1.9,0-3.4-1.5-3.4-3.4v2.3c0,1.9,1.5,3.4,3.4,3.4h14c1.9,0,3.4-1.5,3.4-3.4v-2.3
						C26.9,132,25.4,133.5,23.5,133.5z"/>
					<g>
						<path fill="#FFFFFF" d="M21.5,125.2c-0.2,0-0.3,0-0.5,0c0-0.2,0-0.4,0-0.6c-0.1-0.4-0.2-0.7-0.5-1c-0.4-0.4-0.9-0.7-1.5-0.7
							c0,0,0,0-0.1,0c-0.2,0-0.5,0-0.7,0.1c-0.1-1.1-0.9-2.1-2.1-2.1s-2.3,0.8-2.4,2.1c0,0.2,0,0.4,0.1,0.6c-0.1,0-0.3-0.1-0.5-0.1
							c-1,0-1.9,0.5-2.3,1.4c-0.1,0.2-0.2,0.5-0.2,0.8c0,0.1,0,0.2,0,0.3c-0.3,0.1-0.7,0.2-1,0.3c-0.8,0.5-1,1.4-0.4,2.1h13
							c0.4-0.3,0.7-0.7,0.7-1.3C23.3,126.1,22.5,125.3,21.5,125.2z"/>
					</g>
				</g>
				<g>
					<path fill="#E94150" d="M55.3,100.6c0-1.9-1.5-3.4-3.4-3.4H37.8c-1.9,0-3.4,1.5-3.4,3.4v14.1c0,1.9,1.5,3.4,3.4,3.4h14.1
						c1.9,0,3.4-1.5,3.4-3.4C55.3,114.7,55.3,100.6,55.3,100.6z"/>
					<path fill="#C93547" d="M51.9,115.7h-14c-1.9,0-3.4-1.5-3.4-3.4v2.3c0,1.9,1.5,3.4,3.4,3.4h14c1.9,0,3.4-1.5,3.4-3.4v-2.3
						C55.3,114.2,53.8,115.7,51.9,115.7z"/>
					<path fill="#FFFFFF" d="M45,111c-7.5-4.1-2.1-9.2,0-5.8C47.1,101.8,52.5,106.9,45,111z"/>
				</g>
				<g>
					<path fill="#00E9E6" d="M165.1,116c0-1.2-1-2.2-2.2-2.2h-9.2c-1.2,0-2.2,1-2.2,2.2v9.2c0,1.2,1,2.2,2.2,2.2h9.2
						c1.2,0,2.2-1,2.2-2.2V116z"/>
					<path fill="#05D1C6" d="M162.9,126.2h-9.2c-1.2,0-2.2-1-2.2-2.2v1.2c0,1.2,1,2.2,2.2,2.2h9.2c1.2,0,2.2-1,2.2-2.2V124
						C165.1,125.2,164.1,126.2,162.9,126.2z"/>
					<path fill="#FFFFFF" d="M162.6,117.8c-0.1-0.1-0.1-0.1-0.2-0.1h-6.3l0,0l-0.3-0.7c0-0.1-0.1-0.1-0.2-0.2l-1.3-0.5
						c-0.1-0.1-0.3,0-0.4,0.2c-0.1,0.1,0,0.3,0.2,0.4l1.2,0.5l1.4,4.2c-0.1,0-0.1,0.1-0.1,0.1l-0.4,1.2c0,0.1,0,0.2,0,0.2
						c0,0.1,0.1,0.1,0.2,0.1h0.2c-0.1,0.1-0.2,0.3-0.2,0.6c0,0.5,0.4,0.8,0.8,0.8c0.5,0,0.8-0.4,0.8-0.8c0-0.2-0.1-0.4-0.2-0.6h1.8
						c-0.1,0.1-0.2,0.3-0.2,0.6c0,0.5,0.4,0.8,0.8,0.8c0.5,0,0.8-0.4,0.8-0.8c0-0.2-0.1-0.4-0.2-0.6h0.3c0.1,0,0.2-0.1,0.2-0.2
						s-0.1-0.2-0.2-0.2h-4.5l0.3-0.7h0.1h4.1c0.1,0,0.2-0.1,0.3-0.2l1.2-3.6C162.7,117.9,162.7,117.8,162.6,117.8z M157.3,123.9
						c-0.2,0-0.4-0.2-0.4-0.4c0-0.2,0.2-0.4,0.4-0.4s0.4,0.2,0.4,0.4C157.6,123.8,157.5,123.9,157.3,123.9z M160.3,123.9
						c-0.2,0-0.4-0.2-0.4-0.4c0-0.2,0.2-0.4,0.4-0.4s0.4,0.2,0.4,0.4C160.7,123.8,160.5,123.9,160.3,123.9z M161.8,118.8h-1.4v-0.6
						h1.6L161.8,118.8z M161.4,120.1h-1v-0.7h1.2L161.4,120.1z M158.5,120.1v-0.7h1.3v0.7H158.5z M159.8,120.7v0.6h-1.3v-0.6H159.8z
						 M156.7,119.4h1.3v0.7h-1.1L156.7,119.4z M158.5,118.8v-0.6h1.3v0.6H158.5z M158,118.2v0.6h-1.5l-0.2-0.6H158z M157.1,120.7
						h0.9v0.6h-0.6L157.1,120.7z M160.4,121.3v-0.6h0.8l-0.2,0.6H160.4z"/>
				</g>
				<g>
					<path fill="#FFAF39" d="M55.9,36.3c0-3.3-2.7-6.1-6.1-6.1H25.4c-3.3,0-6.1,2.7-6.1,6.1v24.4c0,3.3,2.7,6.1,6.1,6.1h24.4
						c3.3,0,6.1-2.7,6.1-6.1C55.9,60.7,55.9,36.3,55.9,36.3z"/>
					<path fill="#E88B10" d="M49.9,63.9H25.4c-3.3,0-6.1-2.7-6.1-6.1v3c0,3.3,2.7,6.1,6.1,6.1h24.5c3.3,0,6.1-2.7,6.1-6.1v-3
						C55.9,61.2,53.2,63.9,49.9,63.9z"/>
					<path fill="#FFFFFF" d="M43.2,55L43.2,55V43.9l-9-4.7v10.1c-1.2-1-3.1-0.9-4.4,0.3c-1.5,1.3-1.7,3.4-0.5,4.8
						c1.2,1.3,3.3,1.3,4.8,0c0.8-0.7,1.2-1.7,1.2-2.7v-8.3l6.7,3.1v6c-1.2-0.9-3.1-0.8-4.4,0.3c-1.5,1.3-1.7,3.4-0.5,4.8
						c1.2,1.3,3.3,1.3,4.8,0C42.7,57,43.2,56,43.2,55L43.2,55L43.2,55z"/>
				</g>
				<g>
					<path fill="#FFFFFF" d="M19.6,146.3l-6.5-7.7c-0.1-0.1-0.3-0.2-0.4-0.1c-0.2,0.1-0.3,0.2-0.3,0.4V149c0,0.2,0.1,0.3,0.3,0.4
						h0.1c0.1,0,0.2-0.1,0.3-0.2l1.7-2.4l1.2,3.5c0.2,0.4,0.6,0.7,1.1,0.5c0.4-0.2,0.7-0.6,0.5-1.1l-1.2-3.4l2.7,0.5
						c0.2,0,0.3,0,0.4-0.2C19.7,146.6,19.7,146.4,19.6,146.3L19.6,146.3z"/>
				</g>
				
					<line fill="none" stroke="#126484" stroke-width="0.6836" stroke-linecap="round" stroke-linejoin="round" stroke-miterlimit="10" stroke-dasharray="2.7344" x1="100.6" y1="91.3" x2="100.6" y2="34.2"/>
				
					<polyline fill="none" stroke="#126484" stroke-width="0.6836" stroke-linecap="round" stroke-linejoin="round" stroke-miterlimit="10" stroke-dasharray="2.7344" points="
					117.8,91.5 117.8,47.9 143.2,47.9 				"/>
				
					<polyline fill="none" stroke="#126484" stroke-width="0.6836" stroke-linecap="round" stroke-linejoin="round" stroke-miterlimit="10" stroke-dasharray="2.7344" points="
					84,91.5 84,48.2 52,48.2 				"/>
				
					<line fill="none" stroke="#126484" stroke-width="0.6836" stroke-linecap="round" stroke-linejoin="round" stroke-miterlimit="10" stroke-dasharray="2.7344" x1="86.9" y1="108" x2="50" y2="108"/>
				
					<line fill="none" stroke="#126484" stroke-width="0.6836" stroke-linecap="round" stroke-linejoin="round" stroke-miterlimit="10" stroke-dasharray="2.7344" x1="118.4" y1="108.3" x2="178.6" y2="108.3"/>
				
					<polyline fill="none" stroke="#126484" stroke-width="0.6836" stroke-linecap="round" stroke-linejoin="round" stroke-miterlimit="10" stroke-dasharray="2.7344" points="
					100.9,108 100.9,120.3 154,120.3 				"/>
				
					<polyline fill="none" stroke="#126484" stroke-width="0.6836" stroke-linecap="round" stroke-linejoin="round" stroke-miterlimit="10" stroke-dasharray="2.7344" points="
					100.5,125 100.5,142.2 168.5,142.2 				"/>
				
					<line fill="none" stroke="#126484" stroke-width="0.6836" stroke-linecap="round" stroke-linejoin="round" stroke-miterlimit="10" stroke-dasharray="2.7344" x1="86.9" y1="125.1" x2="23.2" y2="125.1"/>
			</g>
		</g>
	</g>
</g>
</svg>
