<?xml version="1.0" encoding="utf-8"?>
<!-- Generator: Adobe Illustrator 21.0.0, SVG Export Plug-In . SVG Version: 6.00 Build 0)  -->
<svg version="1.1" id="objects" xmlns="http://www.w3.org/2000/svg" xmlns:xlink="http://www.w3.org/1999/xlink" x="0px" y="0px"
	 viewBox="0 0 200 200" enable-background="new 0 0 200 200" xml:space="preserve">
<g>
	<path fill="#FFCA28" d="M186.8,99.4c0,3.8-5.5,7.1-5.9,10.8c-0.5,3.7,3.9,8.4,3,11.9c-1,3.6-7.1,5.5-8.5,8.9
		c-1.4,3.4,1.6,9.1-0.2,12.3c-1.9,3.2-8.3,3.4-10.5,6.3c-2.3,2.9-0.8,9.2-3.4,11.8c-2.6,2.6-8.9,1.2-11.8,3.4
		c-2.9,2.3-3.1,8.7-6.3,10.5c-3.2,1.9-8.8-1.2-12.3,0.2c-3.4,1.4-5.2,7.6-8.9,8.5c-3.6,0.9-8.2-3.4-11.9-3c-3.6,0.5-7,5.9-10.8,5.9
		c-3.8,0-7.1-5.5-10.8-5.9c-3.7-0.5-8.4,3.9-11.9,3c-3.6-1-5.5-7.1-8.9-8.5c-3.4-1.4-9.1,1.6-12.3-0.2c-3.2-1.9-3.4-8.3-6.3-10.5
		c-2.9-2.3-9.2-0.8-11.8-3.4c-2.6-2.6-1.2-8.9-3.4-11.8c-2.3-2.9-8.7-3.1-10.5-6.3c-1.9-3.2,1.2-8.8-0.2-12.3
		c-1.4-3.4-7.6-5.2-8.5-8.9c-0.9-3.6,3.4-8.2,3-11.9c-0.5-3.6-5.9-7-5.9-10.8s5.5-7.1,5.9-10.8c0.5-3.7-3.9-8.4-3-11.9
		c1-3.6,7.1-5.5,8.5-8.9c1.4-3.4-1.6-9.1,0.2-12.3c1.9-3.2,8.3-3.4,10.5-6.3c2.3-2.9,0.8-9.2,3.4-11.8c2.6-2.6,8.9-1.2,11.8-3.4
		c2.9-2.3,3.1-8.7,6.3-10.5c3.2-1.9,8.8,1.2,12.3-0.2c3.4-1.4,5.2-7.6,8.9-8.5c3.6-0.9,8.2,3.4,11.9,3c3.6-0.5,7-5.9,10.8-5.9
		s7.1,5.5,10.8,5.9c3.7,0.5,8.4-3.9,11.9-3c3.6,1,5.5,7.1,8.9,8.5c3.4,1.4,9.1-1.6,12.3,0.2c3.2,1.9,3.4,8.3,6.3,10.5
		c2.9,2.3,9.2,0.8,11.8,3.4c2.6,2.6,1.2,8.9,3.4,11.8c2.3,2.9,8.7,3.1,10.5,6.3c1.9,3.2-1.2,8.8,0.2,12.3c1.4,3.4,7.6,5.2,8.5,8.9
		c0.9,3.6-3.4,8.2-3,11.9C181.4,92.2,186.8,95.6,186.8,99.4z"/>
	<path fill="none" stroke="#DDC61D" stroke-width="0.8921" stroke-miterlimit="10" d="M186.8,99.4c0,3.8-5.5,7.1-5.9,10.8
		c-0.5,3.7,3.9,8.4,3,11.9c-1,3.6-7.1,5.5-8.5,8.9c-1.4,3.4,1.6,9.1-0.2,12.3c-1.9,3.2-8.3,3.4-10.5,6.3c-2.3,2.9-0.8,9.2-3.4,11.8
		c-2.6,2.6-8.9,1.2-11.8,3.4c-2.9,2.3-3.1,8.7-6.3,10.5c-3.2,1.9-8.8-1.2-12.3,0.2c-3.4,1.4-5.2,7.6-8.9,8.5
		c-3.6,0.9-8.2-3.4-11.9-3c-3.6,0.5-7,5.9-10.8,5.9c-3.8,0-7.1-5.5-10.8-5.9c-3.7-0.5-8.4,3.9-11.9,3c-3.6-1-5.5-7.1-8.9-8.5
		c-3.4-1.4-9.1,1.6-12.3-0.2c-3.2-1.9-3.4-8.3-6.3-10.5c-2.9-2.3-9.2-0.8-11.8-3.4c-2.6-2.6-1.2-8.9-3.4-11.8
		c-2.3-2.9-8.7-3.1-10.5-6.3c-1.9-3.2,1.2-8.8-0.2-12.3c-1.4-3.4-7.6-5.2-8.5-8.9c-0.9-3.6,3.4-8.2,3-11.9c-0.5-3.6-5.9-7-5.9-10.8
		s5.5-7.1,5.9-10.8c0.5-3.7-3.9-8.4-3-11.9c1-3.6,7.1-5.5,8.5-8.9c1.4-3.4-1.6-9.1,0.2-12.3c1.9-3.2,8.3-3.4,10.5-6.3
		c2.3-2.9,0.8-9.2,3.4-11.8c2.6-2.6,8.9-1.2,11.8-3.4c2.9-2.3,3.1-8.7,6.3-10.5c3.2-1.9,8.8,1.2,12.3-0.2c3.4-1.4,5.2-7.6,8.9-8.5
		c3.6-0.9,8.2,3.4,11.9,3c3.6-0.5,7-5.9,10.8-5.9s7.1,5.5,10.8,5.9c3.7,0.5,8.4-3.9,11.9-3c3.6,1,5.5,7.1,8.9,8.5
		c3.4,1.4,9.1-1.6,12.3,0.2c3.2,1.9,3.4,8.3,6.3,10.5c2.9,2.3,9.2,0.8,11.8,3.4c2.6,2.6,1.2,8.9,3.4,11.8c2.3,2.9,8.7,3.1,10.5,6.3
		c1.9,3.2-1.2,8.8,0.2,12.3c1.4,3.4,7.6,5.2,8.5,8.9c0.9,3.6-3.4,8.2-3,11.9C181.4,92.2,186.8,95.6,186.8,99.4z"/>
</g>
<g>
	<polygon fill="#F4511E" points="173.3,98.4 173.3,94.6 177.6,100.3 177.6,104.1 	"/>
	<polygon fill="#F4511E" points="172.8,90.7 172.4,86.9 177.3,92.2 177.7,95.9 	"/>
	<polygon fill="#F4511E" points="171.6,83.3 170.8,79.5 176.2,84.2 176.9,88 	"/>
	<polygon fill="#F4511E" points="169.6,76.1 168.4,72.4 174.3,76.6 175.4,80.2 	"/>
	<polygon fill="#F4511E" points="166.9,69.2 165.4,65.7 171.6,69.3 173.1,72.7 	"/>
	<polygon fill="#F4511E" points="163.6,62.7 161.8,59.4 168.3,62.3 170.2,65.6 	"/>
	<polygon fill="#F4511E" points="159.7,56.6 157.6,53.4 164.3,55.7 166.5,58.8 	"/>
	<polygon fill="#F4511E" points="155.3,50.9 152.8,48 159.8,49.6 162.2,52.5 	"/>
	<polygon fill="#F4511E" points="150.3,45.6 147.6,43 154.6,43.9 157.4,46.6 	"/>
	<polygon fill="#F4511E" points="144.8,40.9 141.8,38.5 149,38.8 151.9,41.1 	"/>
	<polygon fill="#F4511E" points="138.9,36.7 135.7,34.7 142.8,34.2 146,36.3 	"/>
	<polygon fill="#F4511E" points="132.6,33.1 129.2,31.4 136.2,30.2 139.6,32 	"/>
	<polygon fill="#F4511E" points="125.9,30.2 122.4,28.8 129.2,26.9 132.8,28.3 	"/>
	<polygon fill="#F4511E" points="118.9,27.9 115.2,26.8 121.9,24.3 125.5,25.3 	"/>
	<polygon fill="#F4511E" points="111.6,26.3 107.8,25.6 114.2,22.4 118,23 	"/>
	<polygon fill="#F4511E" points="104,25.4 100.2,25.1 106.3,21.2 110.1,21.5 	"/>
	<polygon fill="#F4511E" points="96.3,25.3 92.5,25.4 98.1,20.9 101.9,20.8 	"/>
	<polygon fill="#F4511E" points="88.7,26 84.9,26.5 90,21.5 93.8,21 	"/>
	<polygon fill="#F4511E" points="81.3,27.4 77.6,28.3 82.1,22.8 85.8,21.9 	"/>
	<polygon fill="#F4511E" points="74.2,29.6 70.6,30.8 74.6,24.9 78.2,23.6 	"/>
	<polygon fill="#F4511E" points="67.4,32.4 63.9,34 67.3,27.7 70.8,26.1 	"/>
	<polygon fill="#F4511E" points="61,35.8 57.7,37.8 60.4,31.2 63.7,29.2 	"/>
	<polygon fill="#F4511E" points="54.9,39.9 51.9,42.1 54,35.3 57,33 	"/>
	<polygon fill="#F4511E" points="49.4,44.5 46.5,47 47.9,40 50.8,37.5 	"/>
	<polygon fill="#F4511E" points="44.3,49.6 41.7,52.4 42.4,45.3 45,42.5 	"/>
	<polygon fill="#F4511E" points="39.7,55.2 37.4,58.2 37.4,51.1 39.7,48 	"/>
	<polygon fill="#F4511E" points="35.6,61.2 33.6,64.4 33,57.3 35,54.1 	"/>
	<polygon fill="#F4511E" points="32.2,67.6 30.5,71 29.2,64 30.8,60.6 	"/>
	<polygon fill="#F4511E" points="29.4,74.4 28,77.9 26,71.1 27.3,67.5 	"/>
	<polygon fill="#F4511E" points="27.2,81.5 26.3,85.1 23.6,78.5 24.5,74.9 	"/>
	<polygon fill="#F4511E" points="25.8,88.8 25.2,92.6 21.9,86.3 22.4,82.5 	"/>
	<polygon fill="#F4511E" points="25.1,96.4 24.9,100.2 20.9,94.3 21.1,90.5 	"/>
	<polygon fill="#F4511E" points="25.2,104.2 25.4,108 20.8,102.5 20.6,98.7 	"/>
	<polygon fill="#F4511E" points="26.1,111.8 26.7,115.5 21.6,110.5 21,106.8 	"/>
	<polygon fill="#F4511E" points="27.7,119.1 28.7,122.8 23.1,118.3 22.1,114.6 	"/>
	<polygon fill="#F4511E" points="30,126.1 31.4,129.7 25.3,125.8 24,122.3 	"/>
	<polygon fill="#F4511E" points="33,132.8 34.7,136.2 28.3,133 26.7,129.6 	"/>
	<polygon fill="#F4511E" points="36.6,139.1 38.6,142.4 32,139.8 30,136.5 	"/>
	<polygon fill="#F4511E" points="40.8,145 43.1,148.1 36.2,146.1 33.9,143.1 	"/>
	<polygon fill="#F4511E" points="45.5,150.5 48.1,153.3 41.1,152 38.5,149.3 	"/>
	<polygon fill="#F4511E" points="50.8,155.5 53.6,158 46.5,157.4 43.7,154.9 	"/>
	<polygon fill="#F4511E" points="56.5,159.9 59.6,162.2 52.4,162.3 49.3,160.1 	"/>
	<polygon fill="#F4511E" points="62.6,163.8 65.9,165.8 58.8,166.6 55.5,164.7 	"/>
	<polygon fill="#F4511E" points="69.1,167.1 72.6,168.7 65.6,170.2 62.1,168.6 	"/>
	<polygon fill="#F4511E" points="76,169.8 79.6,171 72.8,173.2 69.2,172 	"/>
	<polygon fill="#F4511E" points="83.1,171.7 86.8,172.6 80.3,175.5 76.6,174.6 	"/>
	<polygon fill="#F4511E" points="90.5,173 94.3,173.5 88.1,177 84.3,176.5 	"/>
	<polygon fill="#F4511E" points="98.2,173.5 102,173.6 96.2,177.7 92.4,177.6 	"/>
	<polygon fill="#F4511E" points="105.9,173.2 109.7,172.9 104.4,177.6 100.6,177.9 	"/>
	<polygon fill="#F4511E" points="113.5,172.1 117.2,171.4 112.3,176.7 108.6,177.4 	"/>
	<polygon fill="#F4511E" points="120.7,170.3 124.4,169.3 120.1,175 116.4,176 	"/>
	<polygon fill="#F4511E" points="127.6,167.8 131.2,166.4 127.5,172.5 124,173.9 	"/>
	<polygon fill="#F4511E" points="134.3,164.7 137.6,162.9 134.6,169.4 131.2,171.1 	"/>
	<polygon fill="#F4511E" points="140.5,160.9 143.7,158.8 141.2,165.6 138.1,167.6 	"/>
	<polygon fill="#F4511E" points="146.3,156.6 149.3,154.2 147.5,161.1 144.5,163.5 	"/>
	<polygon fill="#F4511E" points="151.6,151.7 154.4,149.1 153.3,156.1 150.6,158.8 	"/>
	<polygon fill="#F4511E" points="156.5,146.4 158.9,143.5 158.5,150.6 156.1,153.5 	"/>
	<polygon fill="#F4511E" points="160.8,140.6 163,137.4 163.3,144.6 161.1,147.7 	"/>
	<polygon fill="#F4511E" points="164.6,134.3 166.4,131 167.4,138.1 165.5,141.4 	"/>
	<polygon fill="#F4511E" points="167.7,127.7 169.2,124.3 170.9,131.2 169.4,134.7 	"/>
	<polygon fill="#F4511E" points="170.2,120.8 171.3,117.2 173.7,123.9 172.5,127.6 	"/>
	<polygon fill="#F4511E" points="171.9,113.6 172.7,109.9 175.8,116.3 175,120.1 	"/>
	<polygon fill="#F4511E" points="173,106.1 173.4,102.3 177.1,108.4 176.7,112.2 	"/>
	<polygon fill="#F4511E" points="173.3,98.4 173.3,94.6 177.6,100.3 177.6,104.1 	"/>
</g>
<g>
	<polygon fill="#F4511E" points="109.5,56.4 103.7,64.4 99.1,56.4 94.5,64.4 88.7,56.4 88.2,70.8 90.8,70.8 99.1,70.8 99.1,70.8 
		107.4,70.8 110,70.8 	"/>
	<rect x="88.4" y="72.2" fill="#F4511E" width="21.4" height="2.8"/>
	<circle fill="#F4511E" cx="99.2" cy="56.3" r="2.2"/>
	<circle fill="#F4511E" cx="109.5" cy="56.3" r="2.2"/>
	<circle fill="#F4511E" cx="88.9" cy="56.3" r="2.2"/>
</g>
<g>
	<polygon fill="#F4511E" points="99.3,116.9 102.8,123.9 110.6,125.1 104.9,130.6 106.3,138.3 99.3,134.7 92.3,138.3 93.7,130.6 
		88,125.1 95.8,123.9 	"/>
	<polygon fill="#F4511E" points="127,119.6 129.6,124.9 135.4,125.7 131.2,129.8 132.2,135.6 127,132.9 121.8,135.6 122.8,129.8 
		118.6,125.7 124.4,124.9 	"/>
	<polygon fill="#F4511E" points="71.6,119.6 69,124.9 63.2,125.7 67.4,129.8 66.4,135.6 71.6,132.9 76.8,135.6 75.8,129.8 
		80.1,125.7 74.2,124.9 	"/>
</g>
<g>
	<path fill="none" stroke="#F4511E" stroke-width="2.2779" stroke-miterlimit="10" d="M166.3,99.4c0,2.9-4.7,5.4-5.1,8.2
		c-0.4,2.8,3.5,6.5,2.8,9.2c-0.7,2.8-6,4-7,6.6c-1.1,2.6,1.7,7.2,0.3,9.6c-1.4,2.5-6.8,2.3-8.5,4.5c-1.7,2.2-0.2,7.4-2.2,9.4
		c-2,2-7.1,0.5-9.4,2.2c-2.2,1.7-2.1,7.1-4.5,8.5c-2.4,1.4-7-1.4-9.6-0.3c-2.6,1.1-3.8,6.3-6.6,7c-2.7,0.7-6.4-3.2-9.2-2.8
		c-2.8,0.4-5.3,5.1-8.2,5.1s-5.4-4.7-8.2-5.1c-2.8-0.4-6.5,3.5-9.2,2.8c-2.8-0.7-4-6-6.6-7c-2.6-1.1-7.2,1.7-9.6,0.3
		c-2.5-1.4-2.3-6.8-4.5-8.5c-2.2-1.7-7.4-0.2-9.4-2.2c-2-2-0.5-7.1-2.2-9.4c-1.7-2.2-7.1-2.1-8.5-4.5c-1.4-2.4,1.4-7,0.3-9.6
		c-1.1-2.6-6.3-3.8-7-6.6c-0.7-2.7,3.2-6.4,2.8-9.2c-0.4-2.8-5.1-5.3-5.1-8.2c0-2.9,4.7-5.4,5.1-8.2c0.4-2.8-3.5-6.5-2.8-9.2
		c0.7-2.8,6-4,7-6.6c1.1-2.6-1.7-7.2-0.3-9.6c1.4-2.5,6.8-2.3,8.5-4.5c1.7-2.2,0.2-7.4,2.2-9.4c2-2,7.1-0.5,9.4-2.2
		c2.2-1.7,2.1-7.1,4.5-8.5c2.4-1.4,7,1.4,9.6,0.3c2.6-1.1,3.8-6.3,6.6-7c2.7-0.7,6.4,3.2,9.2,2.8c2.8-0.4,5.3-5.1,8.2-5.1
		s5.4,4.7,8.2,5.1c2.8,0.4,6.5-3.5,9.2-2.8c2.8,0.7,4,6,6.6,7c2.6,1.1,7.2-1.7,9.6-0.3c2.5,1.4,2.3,6.8,4.5,8.5
		c2.2,1.7,7.4,0.2,9.4,2.2c2,2,0.5,7.1,2.2,9.4c1.7,2.2,7.1,2.1,8.5,4.5c1.4,2.4-1.4,7-0.3,9.6c1.1,2.6,6.3,3.8,7,6.6
		c0.7,2.7-3.2,6.4-2.8,9.2C161.6,94,166.3,96.5,166.3,99.4z"/>
</g>
<g>
	<polygon fill="#F2F220" points="99,116.9 102.5,123.9 110.3,125.1 104.6,130.6 106,138.3 99,134.7 92,138.3 93.4,130.6 87.7,125.1 
		95.5,123.9 	"/>
	<polygon fill="#F2F220" points="126.7,119.6 129.3,124.9 135.1,125.7 130.9,129.8 131.9,135.6 126.7,132.9 121.5,135.6 
		122.5,129.8 118.2,125.7 124.1,124.9 	"/>
	<polygon fill="#F2F220" points="71.3,119.6 68.7,124.9 62.9,125.7 67.1,129.8 66.1,135.6 71.3,132.9 76.5,135.6 75.5,129.8 
		79.8,125.7 73.9,124.9 	"/>
</g>
<g>
	<polygon fill="#F2F220" points="109.2,56.6 103.4,64.6 98.8,56.6 94.1,64.6 88.3,56.6 87.9,71 90.5,71 98.8,71 98.8,71 107.1,71 
		109.7,71 	"/>
	<rect x="88" y="72.4" fill="#F2F220" width="21.4" height="2.8"/>
	<circle fill="#F2F220" cx="98.9" cy="56.5" r="2.2"/>
	<circle fill="#F2F220" cx="109.2" cy="56.5" r="2.2"/>
	<circle fill="#F2F220" cx="88.6" cy="56.5" r="2.2"/>
</g>
<g>
	<path fill="#F2F220" d="M52.7,93.4c0,0.5,0,1,0.1,1.4c0.1,0.4,0.2,0.7,0.3,1c0.1,0.3,0.2,0.5,0.3,0.6c0.1,0.2,0.2,0.3,0.3,0.4
		c-1.1,0-2-0.3-2.6-0.9c-0.6-0.6-1-1.4-1-2.6c0-1,0.3-1.9,0.8-2.8c0.5-0.9,1.2-1.6,2.1-2.3c0.9-0.6,1.9-1.2,3.1-1.5
		c1.2-0.4,2.4-0.6,3.7-0.6c1.2,0,2.2,0.1,3.1,0.4c0.9,0.3,1.6,0.7,2.2,1.2s1,1.1,1.3,1.7c0.3,0.6,0.4,1.3,0.4,2
		c0,0.8-0.2,1.5-0.6,2.3c-0.4,0.8-1,1.4-1.7,1.9c1.5,0.2,2.8,0.8,3.7,1.8s1.4,2.5,1.4,4.4c0,0.6-0.1,1.4-0.2,2.2
		c-0.1,0.8-0.4,1.6-0.8,2.4c-0.4,0.8-0.9,1.4-1.5,1.9c-0.7,0.5-1.5,0.8-2.5,0.8c-0.4,0-0.9-0.1-1.3-0.2c-0.4-0.1-0.8-0.3-1.1-0.5
		c-0.3-0.2-0.6-0.5-0.7-0.8s-0.3-0.7-0.3-1.1c0-0.1,0-0.3,0-0.5c0-0.2,0-0.4,0.1-0.5c0.3,0.4,0.6,0.7,1,0.9s0.8,0.3,1.2,0.3
		c0.5,0,0.9-0.1,1.2-0.4s0.6-0.6,0.8-1.1c0.2-0.4,0.3-0.9,0.4-1.5c0.1-0.5,0.1-1.1,0.1-1.6c0-1.9-0.4-3.3-1.1-4.1s-1.7-1.3-3-1.3
		c-0.2,0-0.5,0-0.9,0c-0.4,0-0.7,0.1-1,0.1v11.7h-3.3V89.4l3.3-0.5v6.8h0.4c0.6,0,1.1-0.1,1.6-0.4c0.5-0.3,0.9-0.6,1.3-1.1
		c0.4-0.4,0.6-0.9,0.8-1.5c0.2-0.5,0.3-1.1,0.3-1.6c0-1.2-0.4-2.1-1.2-2.9c-0.8-0.8-2-1.1-3.6-1.1c-0.9,0-1.7,0.1-2.5,0.4
		c-0.8,0.2-1.5,0.6-2.2,1.1c-0.6,0.5-1.1,1.2-1.5,1.9C52.9,91.5,52.7,92.4,52.7,93.4z"/>
	<path fill="#F2F220" d="M79.2,89v7h0.8c0.6,0,1.1-0.1,1.6-0.4c0.5-0.3,0.9-0.6,1.2-1c0.3-0.4,0.6-0.9,0.7-1.5
		c0.2-0.5,0.3-1.1,0.3-1.6c0-0.5-0.1-1-0.2-1.4c-0.2-0.5-0.4-0.9-0.8-1.3c-0.4-0.4-0.9-0.7-1.6-1c-0.7-0.2-1.5-0.4-2.6-0.4
		c-0.9,0-1.8,0.1-2.6,0.4c-0.8,0.3-1.5,0.7-2.1,1.2c-0.6,0.5-1,1.2-1.4,1.9c-0.3,0.8-0.5,1.6-0.5,2.6c0,0.7,0,1.3,0.1,1.7
		c0.1,0.4,0.2,0.8,0.3,1c0.1,0.2,0.2,0.4,0.3,0.5s0.2,0.2,0.3,0.3c-0.4,0-0.8-0.1-1.3-0.2c-0.4-0.1-0.8-0.3-1.1-0.6
		c-0.3-0.3-0.6-0.7-0.8-1.1c-0.2-0.5-0.3-1-0.3-1.7c0-0.9,0.2-1.8,0.7-2.7s1.1-1.6,2-2.2s1.8-1.2,2.9-1.6s2.3-0.6,3.6-0.6
		c1.2,0,2.3,0.1,3.2,0.4c0.9,0.2,1.8,0.6,2.4,1c0.7,0.4,1.2,1,1.5,1.6c0.3,0.6,0.5,1.3,0.5,2c0,0.4-0.1,0.8-0.2,1.3
		c-0.1,0.4-0.3,0.9-0.5,1.3c-0.2,0.4-0.5,0.8-0.9,1.2c-0.3,0.4-0.7,0.7-1.2,1c0.7,0.1,1.3,0.3,1.8,0.6c0.5,0.3,0.8,0.7,1,1.1
		c0.2,0.4,0.4,0.9,0.5,1.5c0.1,0.6,0.1,1.1,0.1,1.7c0,0.4,0,0.8,0,1.2c0,0.4,0,0.8,0,1.2c0,0.4,0,0.8,0,1.2c0,0.4,0,0.7,0,1
		c0,0.9,0.2,1.6,0.5,2.1s0.7,0.9,1.2,1c-0.6,0.2-1.1,0.3-1.5,0.4c-0.4,0.1-0.8,0.1-1.1,0.1c-0.9,0-1.6-0.3-2-0.9
		c-0.4-0.6-0.6-1.3-0.6-2.2c0-0.4,0-0.8,0-1.3c0-0.5,0.1-1,0.1-1.5c0-0.5,0.1-1,0.1-1.4c0-0.5,0-0.9,0-1.3c0-0.7-0.1-1.3-0.2-1.7
		c-0.1-0.5-0.3-0.8-0.6-1.1c-0.2-0.3-0.5-0.5-0.9-0.6S81.2,97,80.8,97c-0.2,0-0.5,0-0.8,0.1c-0.3,0-0.6,0.1-0.8,0.1v11.4h-3.3V89.4
		L79.2,89z"/>
	<path fill="#F2F220" d="M101.9,108.7V97.9c-0.8-0.4-1.6-0.7-2.6-0.9c-1-0.2-2-0.4-3-0.6c-0.2,0.9-0.5,1.8-0.7,2.7
		c-0.2,0.9-0.4,1.9-0.5,2.8c-0.1,0.9-0.3,1.8-0.3,2.7c-0.1,0.9-0.1,1.7-0.1,2.5c0,0.9,0.1,1.7,0.2,2.6c0.1,0.8,0.4,1.7,0.8,2.5
		c-0.5,0-0.9-0.1-1.4-0.2c-0.5-0.1-1-0.3-1.4-0.7c-0.4-0.4-0.8-0.9-1-1.5c-0.3-0.7-0.4-1.5-0.4-2.6c0-0.7,0-1.5,0.2-2.3
		c0.1-0.9,0.2-1.8,0.4-2.7c0.2-0.9,0.4-1.9,0.7-2.9c0.3-1,0.6-2,1-2.9c-0.6,0-1.1,0.1-1.6,0.1c-0.5,0.1-1,0.2-1.3,0.3
		s-0.7,0.3-0.9,0.5c-0.2,0.2-0.3,0.4-0.3,0.7c0,0.1,0,0.1,0,0.2c0.5,0.2,0.8,0.5,0.8,1c0,0.4-0.1,0.6-0.4,0.8
		c-0.3,0.1-0.5,0.2-0.8,0.2c-0.5,0-1-0.1-1.4-0.4c-0.4-0.3-0.6-0.8-0.6-1.5c0-0.5,0.1-0.9,0.4-1.3c0.3-0.4,0.7-0.7,1.2-1
		c0.5-0.3,1.1-0.5,1.8-0.6c0.7-0.1,1.4-0.2,2.3-0.2c0.2,0,0.4,0,0.7,0c0.2,0,0.5,0,0.7,0c0.5-1.2,1.1-2.3,1.7-3.4
		c0.6-1.1,1.3-2,2-2.9c0.7-0.8,1.5-1.5,2.3-1.9c0.8-0.5,1.6-0.7,2.5-0.7c0.3,0,0.7,0,1.1,0.1c0.4,0.1,0.9,0.2,1.3,0.3v22.1H101.9z
		 M96.7,95.4c1,0.2,2,0.4,2.9,0.7c0.9,0.3,1.7,0.6,2.4,0.9v-9.4c-0.5,0-1,0.3-1.5,0.7s-0.9,1-1.4,1.7c-0.4,0.7-0.9,1.5-1.3,2.4
		C97.4,93.3,97,94.3,96.7,95.4z"/>
	<path fill="#F2F220" d="M126.5,86.2v22.4h-4L115,91.8v16.9h-2V88c-1.1,0.4-2,1-2.6,1.8c-0.6,0.8-0.9,1.9-0.9,3.3
		c0,0.6,0,1.1,0.2,1.6c0.1,0.4,0.2,0.8,0.4,1.1c0.1,0.3,0.3,0.5,0.5,0.7c0.2,0.2,0.3,0.3,0.5,0.5c-1.3,0-2.2-0.3-2.8-0.9
		c-0.6-0.6-0.9-1.6-0.9-3c0-0.8,0.2-1.6,0.5-2.4s0.8-1.5,1.4-2.2c0.6-0.6,1.3-1.2,2.2-1.6c0.8-0.4,1.8-0.6,2.8-0.6
		c0.3,0,0.7,0,1.1,0.1c0.4,0.1,0.7,0.2,1,0.3l8.3,19.3V86.2H126.5z"/>
	<path fill="#F2F220" d="M138.4,89v17.3c0.4,0.3,0.7,0.5,1.1,0.6c0.3,0.1,0.7,0.2,1,0.2c0.8,0,1.4-0.3,2-0.9c0.5-0.6,1-1.3,1.3-2.2
		c0.3-0.9,0.6-1.9,0.7-3c0.1-1.1,0.2-2.2,0.2-3.3c0-1.9-0.1-3.5-0.4-4.8c-0.3-1.3-0.7-2.4-1.3-3.2c-0.6-0.8-1.3-1.5-2.2-1.8
		s-2-0.6-3.3-0.6c-0.9,0-1.8,0.1-2.6,0.4c-0.8,0.3-1.5,0.7-2.2,1.2c-0.6,0.5-1.1,1.2-1.5,2c-0.4,0.8-0.6,1.6-0.6,2.6
		c0,0.6,0.1,1.1,0.2,1.5c0.1,0.4,0.3,0.7,0.5,1c0.2,0.3,0.3,0.5,0.5,0.6c0.2,0.1,0.3,0.3,0.5,0.3c-1.2,0-2.2-0.3-2.9-0.8
		c-0.7-0.6-1-1.5-1-2.8c0-0.9,0.2-1.8,0.7-2.7c0.5-0.9,1.1-1.6,2-2.2c0.8-0.6,1.8-1.2,3-1.5s2.4-0.6,3.8-0.6c1.9,0,3.5,0.3,4.9,1
		s2.4,1.5,3.2,2.6s1.4,2.3,1.8,3.7c0.4,1.4,0.5,2.8,0.5,4.3c0,1.4-0.1,2.8-0.4,4.2c-0.3,1.4-0.7,2.6-1.2,3.6
		c-0.5,1.1-1.1,1.9-1.8,2.6c-0.7,0.7-1.5,1-2.3,1c-0.6,0-1.2-0.1-1.9-0.4s-1.4-0.7-2.2-1.3v1.4h-3.3V89.4L138.4,89z"/>
</g>
<g>
	<path fill="#D84315" d="M52.3,93.6c0,0.5,0,1,0.1,1.4c0.1,0.4,0.2,0.7,0.3,1c0.1,0.3,0.2,0.5,0.3,0.6c0.1,0.2,0.2,0.3,0.3,0.4
		c-1.1,0-2-0.3-2.6-0.9c-0.6-0.6-1-1.4-1-2.6c0-1,0.3-1.9,0.8-2.8c0.5-0.9,1.2-1.6,2.1-2.3c0.9-0.6,1.9-1.2,3.1-1.5
		c1.2-0.4,2.4-0.6,3.7-0.6c1.2,0,2.2,0.1,3.1,0.4c0.9,0.3,1.6,0.7,2.2,1.2s1,1.1,1.3,1.7c0.3,0.6,0.4,1.3,0.4,2
		c0,0.8-0.2,1.5-0.6,2.3c-0.4,0.8-1,1.4-1.7,1.9c1.5,0.2,2.8,0.8,3.7,1.8s1.4,2.5,1.4,4.4c0,0.6-0.1,1.4-0.2,2.2
		c-0.1,0.8-0.4,1.6-0.8,2.4c-0.4,0.8-0.9,1.4-1.5,1.9c-0.7,0.5-1.5,0.8-2.5,0.8c-0.4,0-0.9-0.1-1.3-0.2c-0.4-0.1-0.8-0.3-1.1-0.5
		s-0.6-0.5-0.7-0.8c-0.2-0.3-0.3-0.7-0.3-1.1c0-0.1,0-0.3,0-0.5c0-0.2,0-0.4,0.1-0.5c0.3,0.4,0.6,0.7,1,0.9s0.8,0.3,1.2,0.3
		c0.5,0,0.9-0.1,1.2-0.4c0.3-0.3,0.6-0.6,0.8-1.1c0.2-0.4,0.3-0.9,0.4-1.5c0.1-0.5,0.1-1.1,0.1-1.6c0-1.9-0.4-3.3-1.1-4.1
		s-1.7-1.3-3-1.3c-0.2,0-0.5,0-0.9,0c-0.4,0-0.7,0.1-1,0.1v11.7h-3.3V89.6l3.3-0.5V96h0.4c0.6,0,1.1-0.1,1.6-0.4
		c0.5-0.3,0.9-0.6,1.3-1.1c0.4-0.4,0.6-0.9,0.8-1.5c0.2-0.5,0.3-1.1,0.3-1.6c0-1.2-0.4-2.1-1.2-2.9c-0.8-0.8-2-1.1-3.6-1.1
		c-0.9,0-1.7,0.1-2.5,0.4c-0.8,0.2-1.5,0.6-2.2,1.1c-0.6,0.5-1.1,1.2-1.5,1.9C52.5,91.7,52.3,92.6,52.3,93.6z"/>
	<path fill="#D84315" d="M78.7,89.2v7h0.8c0.6,0,1.1-0.1,1.6-0.4c0.5-0.3,0.9-0.6,1.2-1c0.3-0.4,0.6-0.9,0.7-1.5
		c0.2-0.5,0.3-1.1,0.3-1.6c0-0.5-0.1-1-0.2-1.4c-0.2-0.5-0.4-0.9-0.8-1.3c-0.4-0.4-0.9-0.7-1.6-1c-0.7-0.2-1.5-0.4-2.6-0.4
		c-0.9,0-1.8,0.1-2.6,0.4c-0.8,0.3-1.5,0.7-2.1,1.2c-0.6,0.5-1,1.2-1.4,1.9c-0.3,0.8-0.5,1.6-0.5,2.6c0,0.7,0,1.3,0.1,1.7
		c0.1,0.4,0.2,0.8,0.3,1c0.1,0.2,0.2,0.4,0.3,0.5s0.2,0.2,0.3,0.3c-0.4,0-0.8-0.1-1.3-0.2c-0.4-0.1-0.8-0.3-1.1-0.6
		c-0.3-0.3-0.6-0.7-0.8-1.1c-0.2-0.5-0.3-1-0.3-1.7c0-0.9,0.2-1.8,0.7-2.7s1.1-1.6,2-2.2s1.8-1.2,2.9-1.6s2.3-0.6,3.6-0.6
		c1.2,0,2.3,0.1,3.2,0.4c0.9,0.2,1.8,0.6,2.4,1c0.7,0.4,1.2,1,1.5,1.6c0.3,0.6,0.5,1.3,0.5,2c0,0.4-0.1,0.8-0.2,1.3
		c-0.1,0.4-0.3,0.9-0.5,1.3c-0.2,0.4-0.5,0.8-0.9,1.2c-0.3,0.4-0.7,0.7-1.2,1c0.7,0.1,1.3,0.3,1.8,0.6c0.5,0.3,0.8,0.7,1,1.1
		c0.2,0.4,0.4,0.9,0.5,1.5c0.1,0.6,0.1,1.1,0.1,1.7c0,0.4,0,0.8,0,1.2c0,0.4,0,0.8,0,1.2c0,0.4,0,0.8,0,1.2c0,0.4,0,0.7,0,1
		c0,0.9,0.2,1.6,0.5,2.1c0.3,0.5,0.7,0.9,1.2,1c-0.6,0.2-1.1,0.3-1.5,0.4c-0.4,0.1-0.8,0.1-1.1,0.1c-0.9,0-1.6-0.3-2-0.9
		c-0.4-0.6-0.6-1.3-0.6-2.2c0-0.4,0-0.8,0-1.3c0-0.5,0.1-1,0.1-1.5c0-0.5,0.1-1,0.1-1.4c0-0.5,0-0.9,0-1.3c0-0.7-0.1-1.3-0.2-1.7
		c-0.1-0.5-0.3-0.8-0.6-1.1c-0.2-0.3-0.5-0.5-0.9-0.6s-0.7-0.2-1.1-0.2c-0.2,0-0.5,0-0.8,0.1c-0.3,0-0.6,0.1-0.8,0.1v11.4h-3.3V89.6
		L78.7,89.2z"/>
	<path fill="#D84315" d="M101.5,108.9V98.1c-0.8-0.4-1.6-0.7-2.6-0.9c-1-0.2-2-0.4-3-0.6c-0.2,0.9-0.5,1.8-0.7,2.7
		c-0.2,0.9-0.4,1.9-0.5,2.8c-0.1,0.9-0.3,1.8-0.3,2.7c-0.1,0.9-0.1,1.7-0.1,2.5c0,0.9,0.1,1.7,0.2,2.6c0.1,0.8,0.4,1.7,0.8,2.5
		c-0.5,0-0.9,0-1.4-0.1c-0.5-0.1-1-0.3-1.4-0.7c-0.4-0.4-0.8-0.9-1-1.5c-0.3-0.7-0.4-1.5-0.4-2.6c0-0.7,0-1.5,0.2-2.3
		c0.1-0.9,0.2-1.8,0.4-2.7c0.2-0.9,0.4-1.9,0.7-2.9c0.3-1,0.6-2,1-2.9c-0.6,0-1.1,0.1-1.6,0.1c-0.5,0.1-1,0.2-1.3,0.3
		s-0.7,0.3-0.9,0.5c-0.2,0.2-0.3,0.4-0.3,0.7c0,0.1,0,0.1,0,0.2c0.5,0.2,0.8,0.5,0.8,1c0,0.4-0.1,0.6-0.4,0.8
		c-0.3,0.1-0.5,0.2-0.8,0.2c-0.5,0-1-0.1-1.4-0.4c-0.4-0.3-0.6-0.8-0.6-1.5c0-0.5,0.1-0.9,0.4-1.3c0.3-0.4,0.7-0.7,1.2-1
		c0.5-0.3,1.1-0.5,1.8-0.6c0.7-0.1,1.4-0.2,2.3-0.2c0.2,0,0.4,0,0.7,0c0.2,0,0.5,0,0.7,0c0.5-1.2,1.1-2.3,1.7-3.4
		c0.6-1.1,1.3-2,2-2.9c0.7-0.8,1.5-1.5,2.3-1.9s1.6-0.7,2.5-0.7c0.3,0,0.7,0,1.1,0.1c0.4,0.1,0.9,0.2,1.3,0.3v22.1H101.5z
		 M96.2,95.6c1,0.2,2,0.4,2.9,0.7c0.9,0.3,1.7,0.6,2.4,0.9v-9.4c-0.5,0-1,0.3-1.5,0.7s-0.9,1-1.4,1.7c-0.4,0.7-0.9,1.5-1.3,2.4
		C97,93.5,96.6,94.5,96.2,95.6z"/>
	<path fill="#D84315" d="M126.1,86.4v22.4h-4L114.5,92v16.9h-2V88.2c-1.1,0.4-2,1-2.6,1.8c-0.6,0.8-0.9,1.9-0.9,3.3
		c0,0.6,0,1.1,0.2,1.6c0.1,0.4,0.2,0.8,0.4,1.1c0.1,0.3,0.3,0.5,0.5,0.7c0.2,0.2,0.3,0.3,0.5,0.5c-1.3,0-2.2-0.3-2.8-0.9
		c-0.6-0.6-0.9-1.6-0.9-3c0-0.8,0.2-1.6,0.5-2.4s0.8-1.5,1.4-2.2c0.6-0.6,1.3-1.2,2.2-1.6c0.8-0.4,1.8-0.6,2.8-0.6
		c0.3,0,0.7,0,1.1,0.1c0.4,0.1,0.7,0.2,1,0.3l8.3,19.3V86.4H126.1z"/>
	<path fill="#D84315" d="M138,89.2v17.3c0.4,0.3,0.7,0.5,1.1,0.6c0.3,0.1,0.7,0.2,1,0.2c0.8,0,1.4-0.3,2-0.9c0.5-0.6,1-1.3,1.3-2.2
		c0.3-0.9,0.6-1.9,0.7-3c0.1-1.1,0.2-2.2,0.2-3.3c0-1.9-0.1-3.5-0.4-4.8c-0.3-1.3-0.7-2.4-1.3-3.2c-0.6-0.8-1.3-1.5-2.2-1.8
		s-2-0.6-3.3-0.6c-0.9,0-1.8,0.1-2.6,0.4c-0.8,0.3-1.5,0.7-2.2,1.2c-0.6,0.5-1.1,1.2-1.5,2c-0.4,0.8-0.6,1.6-0.6,2.6
		c0,0.6,0.1,1.1,0.2,1.5c0.1,0.4,0.3,0.7,0.5,1c0.2,0.3,0.3,0.5,0.5,0.6c0.2,0.1,0.3,0.3,0.5,0.3c-1.2,0-2.2-0.3-2.9-0.8
		c-0.7-0.6-1-1.5-1-2.8c0-0.9,0.2-1.8,0.7-2.7c0.5-0.9,1.1-1.6,2-2.2c0.8-0.6,1.8-1.2,3-1.5s2.4-0.6,3.8-0.6c1.9,0,3.5,0.3,4.9,1
		s2.4,1.5,3.2,2.6s1.4,2.3,1.8,3.7c0.4,1.4,0.5,2.8,0.5,4.3c0,1.4-0.1,2.8-0.4,4.2c-0.3,1.4-0.7,2.6-1.2,3.6
		c-0.5,1.1-1.1,1.9-1.8,2.6c-0.7,0.7-1.5,1-2.3,1c-0.6,0-1.2-0.1-1.9-0.4c-0.7-0.3-1.4-0.7-2.2-1.3v1.3h-3.3V89.6L138,89.2z"/>
</g>
</svg>
