<?xml version="1.0" encoding="utf-8"?>
<!-- Generator: Adobe Illustrator 21.0.0, SVG Export Plug-In . SVG Version: 6.00 Build 0)  -->
<svg version="1.1" id="Layer_1" xmlns="http://www.w3.org/2000/svg" xmlns:xlink="http://www.w3.org/1999/xlink" x="0px" y="0px"
	 viewBox="0 0 800 800" style="enable-background:new 0 0 800 800;" xml:space="preserve">
<style type="text/css">
	.st0{fill:#FFFFFF;stroke:#6B7F9E;stroke-width:13.749;stroke-miterlimit:10;}
	.st1{fill:#6B7F9E;}
	.st2{fill:none;}
	.st3{fill:#FFFFFF;stroke:#DE0703;stroke-miterlimit:10;}
	.st4{fill:#FFFFFF;stroke:#DE0703;stroke-width:13.749;stroke-miterlimit:10;}
	.st5{fill:#FFFFFF;}
	.st6{fill:none;stroke:#FEBC00;stroke-width:12.9157;stroke-miterlimit:10;}
	.st7{fill:#FFFFFF;stroke:#FEBC00;stroke-miterlimit:10;}
	.st8{fill:#FFFFFF;stroke:#0B0B0B;stroke-miterlimit:10;}
	.st9{fill:none;stroke:#090242;stroke-width:13.749;stroke-miterlimit:10;}
	.st10{fill:none;stroke:#5ABA00;stroke-width:13.749;stroke-miterlimit:10;}
</style>
<polygon class="st0" points="672.5,549.3 672.5,230.4 396.4,71 120.2,230.4 120.2,549.3 396.4,708.7 "/>
<rect x="253.4" y="185.5" transform="matrix(0.866 -0.5 0.5 0.866 -196.2275 190.9294)" class="st1" width="9.6" height="552.3"/>
<rect x="120.2" y="540.5" class="st1" width="552.3" height="9.6"/>
<rect x="-17.9" y="305.3" transform="matrix(0.5 -0.866 0.866 0.5 -139.4474 378.7099)" class="st1" width="552.3" height="9.6"/>
<rect x="529.5" y="33.9" transform="matrix(0.866 -0.5 0.5 0.866 -83.4385 308.722)" class="st1" width="9.6" height="552.3"/>
<rect x="258.1" y="456.9" transform="matrix(0.5 -0.866 0.866 0.5 -132.6937 693.5479)" class="st1" width="552.3" height="9.6"/>
<rect x="120.2" y="229.6" class="st1" width="552.3" height="9.6"/>
<rect x="391.5" y="73" class="st1" width="9.6" height="637.4"/>
<line class="st2" x1="127.1" y1="238.6" x2="132" y2="230.4"/>
<rect x="391.7" y="71.2" transform="matrix(0.5 -0.866 0.866 0.5 -139.3901 538.325)" class="st1" width="9.6" height="637.4"/>
<rect x="77.8" y="385.1" transform="matrix(0.866 -0.5 0.5 0.866 -141.8217 250.4906)" class="st1" width="637.4" height="9.6"/>
<g>
	<g>
		<circle class="st3" cx="120.2" cy="230.4" r="57.4"/>
		<circle class="st4" cx="120.2" cy="230.4" r="57.4"/>
	</g>
</g>
<g>
	<g>
		<circle class="st5" cx="396.4" cy="69.1" r="57.4"/>
		<circle class="st6" cx="396.4" cy="69.1" r="57.4"/>
	</g>
</g>
<g>
	<g>
		<circle class="st7" cx="396.4" cy="705.7" r="57.4"/>
		<circle class="st6" cx="396.4" cy="705.7" r="57.4"/>
	</g>
</g>
<g>
	<g>
		<circle class="st8" cx="672.5" cy="230.4" r="57.4"/>
		<circle class="st9" cx="672.5" cy="230.4" r="57.4"/>
	</g>
</g>
<g>
	<g>
		<circle class="st5" cx="120.2" cy="549.2" r="57.4"/>
		<circle class="st9" cx="120.2" cy="549.2" r="57.4"/>
	</g>
</g>
<g>
	<g>
		<circle class="st4" cx="671.6" cy="548.4" r="57.4"/>
		<circle class="st4" cx="671.6" cy="548.4" r="57.4"/>
	</g>
</g>
<g>
	<g>
		<circle class="st5" cx="396.2" cy="389.9" r="57.4"/>
		<circle class="st10" cx="396.2" cy="389.9" r="57.4"/>
	</g>
</g>
</svg>
