<?xml version="1.0" encoding="utf-8"?>
<!-- Generator: Adobe Illustrator 21.0.0, SVG Export Plug-In . SVG Version: 6.00 Build 0)  -->
<svg version="1.1" xmlns="http://www.w3.org/2000/svg" xmlns:xlink="http://www.w3.org/1999/xlink" x="0px" y="0px"
	 viewBox="0 0 150 150" enable-background="new 0 0 150 150" xml:space="preserve">
<g id="Background" display="none">
	<rect x="-325" y="-325" display="inline" fill-rule="evenodd" clip-rule="evenodd" fill="#F2715C" width="799.9" height="799.9"/>
	<g display="inline">
		
			<path fill-rule="evenodd" clip-rule="evenodd" fill="none" stroke="#FF8F78" stroke-width="1.1999" stroke-miterlimit="22.9256" d="
			M-290.2-325V475 M-255.4-325V475 M-220.6-325V475 M-185.8-325V475 M-151.1-325V475 M-116.3-325V475 M-81.5-325V475 M-46.7-325V475
			 M-11.9-325V475 M22.8-325V475 M57.6-325V475 M92.4-325V475 M127.2-325V475 M161.9-325V475 M196.7-325V475 M231.5-325V475
			 M266.3-325V475 M301.1-325V475 M335.8-325V475 M370.6-325V475 M405.4-325V475 M440.2-325V475"/>
		
			<path fill-rule="evenodd" clip-rule="evenodd" fill="none" stroke="#FF8F78" stroke-width="1.1999" stroke-miterlimit="22.9256" d="
			M475-290.2H-325 M475-255.4H-325 M475-220.6H-325 M475-185.8H-325 M475-151.1H-325 M475-116.3H-325 M475-81.5H-325 M475-46.7H-325
			 M475-11.9H-325 M475,22.8H-325 M475,57.6H-325 M475,92.4H-325 M475,127.2H-325 M475,161.9H-325 M475,196.7H-325 M475,231.5H-325
			 M475,266.3H-325 M475,301.1H-325 M475,335.8H-325 M475,370.6H-325 M475,405.4H-325 M475,440.2H-325"/>
	</g>
</g>
<g id="Objects">
	<path fill-rule="evenodd" clip-rule="evenodd" fill="none" stroke="#848484" stroke-width="1.1411" stroke-miterlimit="10" d="
		M136.6,124H13.1c-6.6,0-12-5.4-12-12V33.5c0-6.6,5.4-12,12-12h123.6c6.6,0,12,5.4,12,12V112C148.6,118.6,143.2,124,136.6,124z"/>
	<circle fill-rule="evenodd" clip-rule="evenodd" fill="#97F2DC" cx="44.5" cy="84.7" r="1.9"/>
	<circle fill-rule="evenodd" clip-rule="evenodd" fill="#97F2DC" cx="64.5" cy="51.3" r="1.9"/>
	<g>
		<polygon fill="#97F2DC" points="4,91 24,64.3 24.4,63.8 24.9,64.3 44.3,83.7 64,51 64.5,50.2 65,51.1 84.5,90.1 103.9,57.7 
			104.3,57.2 104.8,57.5 124.2,70.5 143.9,24.5 145,24.9 125,71.6 124.7,72.2 124.1,71.8 104.6,58.8 84.9,91.6 84.4,92.5 83.9,91.6 
			64.4,52.5 45,85 44.6,85.6 44.1,85.1 24.5,65.5 4.9,91.7 		"/>
		<circle fill-rule="evenodd" clip-rule="evenodd" fill="#0C6E59" cx="84.4" cy="91.3" r="1.9"/>
	</g>
	<circle fill-rule="evenodd" clip-rule="evenodd" fill="#97F2DC" cx="104.4" cy="58" r="1.9"/>
	<circle fill-rule="evenodd" clip-rule="evenodd" fill="#97F2DC" cx="124.4" cy="71.3" r="1.9"/>
	<path fill-rule="evenodd" clip-rule="evenodd" fill="#97F2DC" d="M440.2-175.4c5.5,0,9.9-4.5,9.9-9.9c0-5.5-4.5-9.9-9.9-9.9
		s-9.9,4.5-9.9,9.9C430.3-179.9,434.7-175.4,440.2-175.4z"/>
	<circle fill-rule="evenodd" clip-rule="evenodd" fill="#97F2DC" cx="4.5" cy="91.3" r="1.9"/>
	<g>
		<path fill-rule="evenodd" clip-rule="evenodd" fill="#4B4C4C" d="M108.2,33.9h-7.6c-1.5,0-2.7,1.2-2.7,2.7v13.2
			c0,1.5,1.2,2.7,2.7,2.7h7.6c1.5,0,2.7-1.2,2.7-2.7V36.6C110.9,35.1,109.7,33.9,108.2,33.9z"/>
		<path fill-rule="evenodd" clip-rule="evenodd" fill="#FFFFFF" d="M110,35.4H98.9c0,0,0,0,0,0v15.2c0,0,0,0,0,0H110c0,0,0,0,0,0
			L110,35.4C110,35.5,110,35.4,110,35.4z"/>
		<path fill-rule="evenodd" clip-rule="evenodd" fill="#2F9982" d="M105.9,34.3H103c-0.1,0-0.1,0.1-0.1,0.1v0c0,0.1,0.1,0.1,0.1,0.1
			h2.8c0.1,0,0.1-0.1,0.1-0.1v0C106,34.4,105.9,34.3,105.9,34.3z"/>
		<circle fill-rule="evenodd" clip-rule="evenodd" fill="#2F9982" cx="104.4" cy="51.5" r="0.5"/>
		<rect x="105.6" y="36.8" fill-rule="evenodd" clip-rule="evenodd" fill="#F9A818" width="0.8" height="0.2"/>
		<rect x="106.7" y="36.8" fill-rule="evenodd" clip-rule="evenodd" fill="#F9A818" width="0.8" height="0.2"/>
		<rect x="107.7" y="36.8" fill-rule="evenodd" clip-rule="evenodd" fill="#F9A818" width="0.8" height="0.2"/>
		<rect x="108.8" y="36.8" fill-rule="evenodd" clip-rule="evenodd" fill="#F9A818" width="0.8" height="0.2"/>
		<rect x="99.5" y="36.8" fill-rule="evenodd" clip-rule="evenodd" fill="#9BB5B5" width="4.3" height="0.7"/>
		<g>
			<rect x="99.9" y="49.4" fill-rule="evenodd" clip-rule="evenodd" fill="#FFAE00" width="9" height="0.2"/>
			<rect x="107.3" y="44.3" fill-rule="evenodd" clip-rule="evenodd" fill="#9BB5B5" width="1.6" height="5.2"/>
			<rect x="105.5" y="46.2" fill-rule="evenodd" clip-rule="evenodd" fill="#DA4622" width="1.6" height="3.2"/>
			<rect x="103.6" y="47.3" fill-rule="evenodd" clip-rule="evenodd" fill="#6AD9C3" width="1.6" height="2.1"/>
			<rect x="101.8" y="46.3" fill-rule="evenodd" clip-rule="evenodd" fill="#FFAE00" width="1.6" height="3.1"/>
			<rect x="99.9" y="47.2" fill-rule="evenodd" clip-rule="evenodd" fill="#ED8970" width="1.6" height="2.2"/>
		</g>
		<g>
			<circle fill-rule="evenodd" clip-rule="evenodd" fill="#9BB5B5" cx="100.4" cy="45" r="0.3"/>
			<polygon fill-rule="evenodd" clip-rule="evenodd" fill="#9BB5B5" points="108.8,41.1 107.9,41.1 108.2,41.5 108.5,41.9 			"/>
			<path fill="#9BB5B5" d="M100.7,44.5l2.6-1.9l0.1-0.1l0.1,0.1l1.2,1.4l3.4-2.5l0.1,0.1l0.1,0.1l-3.5,2.6l-0.1,0.1l-0.1-0.1
				l-1.2-1.4l-2.5,1.8C100.8,44.6,100.8,44.5,100.7,44.5z"/>
		</g>
		<rect x="99.5" y="37.9" fill-rule="evenodd" clip-rule="evenodd" fill="#6AD9C3" width="10.1" height="1.9"/>
	</g>
	<g>
		<path fill-rule="evenodd" clip-rule="evenodd" fill="#FFFFFF" d="M34.3,78.1c-2.4,3.2-6.1,4.8-9.8,4.8v-7.1c1.6,0,3.1-0.7,4.1-2
			c1.8-2.3,1.3-5.6-1-7.3c-0.9-0.7-2.1-1.1-3.2-1.1v-7.1c2.6,0,5.3,0.8,7.5,2.5C37.4,64.9,38.4,72.7,34.3,78.1z M24.5,82.9
			c-2.6,0-5.3-0.8-7.5-2.5c-5.4-4.1-6.4-11.9-2.3-17.3c2.4-3.2,6.1-4.8,9.8-4.8v7.1c-1.6,0-3.1,0.7-4.1,2c-1.8,2.3-1.3,5.6,1,7.3
			c0.9,0.7,2.1,1.1,3.2,1.1V82.9z"/>
		<path fill-rule="evenodd" clip-rule="evenodd" fill="#DA4622" d="M32.3,61.9c2.4,2.2,3.9,5.3,3.9,8.8c-0.1,5.1-3.4,9.4-8,10.9
			l-1.8-5.5c2.3-0.8,4-2.9,4-5.5c0-1.8-0.7-3.4-1.9-4.5L32.3,61.9z"/>
		<path fill-rule="evenodd" clip-rule="evenodd" fill="#9BB5B5" d="M19.9,59.8c1.5-0.6,3.1-0.9,4.7-0.9c3,0,5.7,1.2,7.7,3l-3.9,4.3
			c-1-0.9-2.4-1.5-3.9-1.5c-0.8,0-1.7,0.2-2.4,0.5L19.9,59.8z"/>
		<path fill-rule="evenodd" clip-rule="evenodd" fill="#ED8970" d="M17,61.5c0.9-0.7,1.8-1.3,2.9-1.8l2.3,5.3
			c-0.5,0.2-1,0.5-1.5,0.9L17,61.5z"/>
		<path fill-rule="evenodd" clip-rule="evenodd" fill="#FFAE00" d="M18.1,80.4c-3.2-2.1-5.4-5.8-5.3-10c0-3.6,1.7-6.8,4.2-8.9
			l3.7,4.5c-1.3,1.1-2.1,2.7-2.1,4.5c0,2.1,1,4,2.7,5L18.1,80.4z"/>
		<path fill-rule="evenodd" clip-rule="evenodd" fill="#6AD9C3" d="M24.3,82.3c-0.1,0-0.1,0-0.2,0c-2.2-0.1-4.3-0.8-6.1-1.9l3.2-4.8
			c0.9,0.6,1.9,0.9,3.1,1c0,0,0.1,0,0.1,0c0.7,0,1.3-0.1,2-0.3l1.8,5.5C27,82.1,25.7,82.3,24.3,82.3z"/>
	</g>
	
		<line fill-rule="evenodd" clip-rule="evenodd" fill="none" stroke="#97F2DC" stroke-width="1.1497" stroke-miterlimit="22.9256" x1="24.5" y1="64.7" x2="38.8" y2="79"/>
	<circle fill-rule="evenodd" clip-rule="evenodd" fill="#97F2DC" cx="24.5" cy="64.7" r="1.9"/>
	<g>
		<path fill="#FF0D0D" d="M140.7,63.1c0,0,0.1,0,0.1,0l0.2,0.8l1.6-0.4l-0.2-0.8c0.6-0.3,1.1-0.6,1.6-1.1l0.7,0.4l0.9-1.4l-0.7-0.4
			c0.2-0.6,0.4-1.2,0.3-1.9l0.8-0.2l-0.4-1.6l-0.8,0.2c-0.3-0.6-0.6-1.1-1.1-1.6l0.4-0.7l-1.4-0.9l-0.4,0.7
			c-0.5-0.2-1.1-0.3-1.7-0.3v1.2c1.5,0,2.9,1.1,3.3,2.6c0.4,1.8-0.8,3.6-2.6,4c-0.2,0.1-0.5,0.1-0.7,0.1V63.1z M137.6,61.9l-0.4,0.7
			l1.4,0.9l0.4-0.7c0.5,0.2,1.1,0.3,1.7,0.3v-1.2c-1.5,0-2.9-1.1-3.3-2.6c-0.4-1.8,0.8-3.6,2.6-4l0,0c0.2-0.1,0.5-0.1,0.7-0.1V54
			c0,0-0.1,0-0.1,0l-0.2-0.8l-1.6,0.4l0.2,0.8c-0.6,0.3-1.1,0.6-1.6,1.1l-0.7-0.4l-0.9,1.4l0.7,0.4c-0.2,0.6-0.4,1.2-0.3,1.9
			l-0.8,0.2l0.4,1.6l0.8-0.2C136.8,60.9,137.1,61.4,137.6,61.9z"/>
		<path fill="#FF0D0D" d="M137.2,70.3C137.2,70.3,137.2,70.3,137.2,70.3l0.2,0.5l1.1-0.2l-0.1-0.5c0.4-0.2,0.8-0.4,1.1-0.8l0.5,0.3
			l0.6-1l-0.5-0.3c0.2-0.4,0.2-0.9,0.2-1.3l0.5-0.1l-0.2-1.1l-0.5,0.1c-0.2-0.4-0.4-0.8-0.8-1.1l0.3-0.5l-1-0.6l-0.3,0.5
			c-0.4-0.2-0.8-0.2-1.2-0.2v0.8c1.1,0,2.1,0.8,2.3,1.9c0.3,1.3-0.5,2.5-1.8,2.8c-0.2,0-0.3,0.1-0.5,0.1V70.3z M135,69.5l-0.3,0.5
			l1,0.6l0.3-0.5c0.4,0.2,0.8,0.2,1.2,0.2v-0.8c-1.1,0-2.1-0.8-2.3-1.9c-0.3-1.3,0.5-2.5,1.8-2.8l0,0c0.2,0,0.3-0.1,0.5-0.1v-0.8
			c0,0-0.1,0-0.1,0l-0.1-0.5l-1.1,0.2l0.1,0.5c-0.4,0.2-0.8,0.4-1.1,0.8l-0.5-0.3l-0.6,1l0.5,0.3c-0.2,0.4-0.2,0.9-0.2,1.3l-0.5,0.1
			l0.2,1.1l0.5-0.1C134.4,68.8,134.7,69.2,135,69.5z"/>
	</g>
	<g>
		<polygon fill="#FF0D0D" points="79,61.5 78.9,63 83.1,63 83.1,61.5 		"/>
		<path fill="#FF0D0D" d="M83,61.2H87v-7.4h-6v0.9h4.9v5.6H83h-2v0.9H83z M81,53.8h-6v7.4H79h2v-0.9h-2h-2.9l0,0v-5.6H81V53.8z"/>
		<polygon fill="#FF0D0D" points="78.1,63.3 78.1,63.9 84,63.9 84,63.3 83.1,63.3 78.9,63.3 		"/>
	</g>
	<g>
		<path fill="#FF0D0D" d="M44,88.8c1.1,0,2.2,0.5,2.9,1.2c0.8,0.8,1.2,1.8,1.2,2.9c0,0.7-0.2,1.4-0.5,2c-0.3,0.6-0.8,1.1-1.4,1.5
			l-0.4,3.1c0,0.1-0.1,0.2-0.2,0.2v0H44v-0.5h1.4l0.4-3c0-0.1,0-0.1,0.1-0.2c0.5-0.3,1-0.8,1.3-1.3c0.3-0.5,0.5-1.1,0.5-1.8
			c0-1-0.4-1.9-1.1-2.6c-0.7-0.7-1.6-1.1-2.6-1.1h0L44,88.8L44,88.8z M44,99.8h-1.6c-0.1,0-0.2-0.1-0.2-0.2l-0.4-3.1
			c-0.6-0.4-1-0.9-1.4-1.5c-0.3-0.6-0.5-1.3-0.5-2c0-1.1,0.5-2.2,1.2-2.9c0.8-0.8,1.8-1.2,2.9-1.2v0.5c-1,0-1.9,0.4-2.6,1.1
			C40.7,91,40.3,92,40.3,93c0,0.7,0.2,1.3,0.5,1.8c0.3,0.6,0.8,1,1.3,1.3v0c0.1,0,0.1,0.1,0.1,0.2l0.4,3H44V99.8z"/>
		<g>
			<path fill="#FF0D0D" d="M43.3,97.9c0,0.1,0,0.2-0.1,0.2c-0.1,0-0.2,0-0.2-0.1l-0.7-2.7V94l0,0c0,0,0,0,0,0v0
				c0.1,0.1,0.1,0.1,0.2,0.2c0.4,0.3,0.9,0.5,1.4,0.5c0.5,0,1-0.2,1.3-0.5c0.1-0.1,0.1-0.1,0.2-0.2c0.1-0.1,0.2-0.1,0.2,0
				c0.1,0,0.1,0.1,0.1,0.2l-1,3.9c0,0.1-0.1,0.1-0.2,0.1c-0.1,0-0.1-0.1-0.1-0.2l0.8-3.4c-0.4,0.3-0.9,0.4-1.4,0.4
				c-0.5,0-1-0.2-1.4-0.4L43.3,97.9z M42.4,95.3l-0.3-1.2c0-0.1,0-0.2,0.1-0.2c0.1,0,0.1,0,0.2,0.1l0,0v0c0,0,0,0,0,0l0,0V95.3z"/>
		</g>
		<path fill-rule="evenodd" clip-rule="evenodd" fill="#FF0D0D" d="M41.7,97.6h4.5L46,99.7c0,0.4-0.1,0.6-0.6,0.6h-2.9
			c-0.5,0-0.5-0.2-0.6-0.6L41.7,97.6z"/>
	</g>
	<text transform="matrix(1 0 0 1 106.5987 72.5322)" fill="#FF0D0D" font-family="'Arial-BoldMT'" font-size="7.759px">$</text>
	<g>
		<path fill-rule="evenodd" clip-rule="evenodd" fill="#FFFFFF" d="M124.4,88.6c3.7,0,6.7-3,6.7-6.7c0-3.7-3-6.7-6.7-6.7
			c-3.7,0-6.7,3-6.7,6.7C117.7,85.5,120.7,88.6,124.4,88.6z"/>
		<g>
			<circle fill-rule="evenodd" clip-rule="evenodd" fill="#6AD9C3" cx="124.4" cy="81.8" r="6"/>
			<path fill-rule="evenodd" clip-rule="evenodd" fill="#ED8970" d="M127.7,86.8c0.9-0.6,1.6-1.3,2-2.3l-5.3-2.7L127.7,86.8z"/>
			<path fill-rule="evenodd" clip-rule="evenodd" fill="#DA4622" d="M129.8,84.6c0.4-0.8,0.7-1.7,0.7-2.7c0-1.9-0.9-3.6-2.3-4.7
				l-3.7,4.7L129.8,84.6z"/>
			<path fill-rule="evenodd" clip-rule="evenodd" fill="#9BB5B5" d="M128.1,77.1c-1-0.8-2.3-1.3-3.7-1.3v6L128.1,77.1z"/>
			<path fill-rule="evenodd" clip-rule="evenodd" fill="#FFAE00" d="M124.4,75.9v6l-4.3-4.2C121.3,76.5,122.8,75.9,124.4,75.9z"/>
		</g>
	</g>
	<g>
		<path fill-rule="evenodd" clip-rule="evenodd" fill="#FFFFFF" d="M64.5,48.6c2.9,0,5.3-2.4,5.3-5.3c0-2.9-2.4-5.3-5.3-5.3
			c-2.9,0-5.3,2.4-5.3,5.3C59.1,46.2,61.5,48.6,64.5,48.6z"/>
		<circle fill-rule="evenodd" clip-rule="evenodd" fill="#9BB5B5" cx="64.5" cy="43.3" r="4.3"/>
		<path fill-rule="evenodd" clip-rule="evenodd" fill="#FFFFFF" d="M64.5,40.1L64.5,40.1c0.1,0,0.2,0.1,0.2,0.2V43
			c0,0.1-0.1,0.2-0.2,0.2h0c-0.1,0-0.2-0.1-0.2-0.2v-2.7C64.2,40.2,64.3,40.1,64.5,40.1z"/>
		<path fill-rule="evenodd" clip-rule="evenodd" fill="#FFFFFF" d="M62.5,41.5L62.5,41.5c0.1-0.1,0.2-0.1,0.4,0l1.6,1.4
			c0.1,0.1,0.1,0.2,0,0.4l0,0c-0.1,0.1-0.2,0.1-0.4,0l-1.6-1.4C62.4,41.7,62.4,41.6,62.5,41.5z"/>
		<circle fill-rule="evenodd" clip-rule="evenodd" fill="#FFFFFF" cx="64.5" cy="39.6" r="0.3"/>
		<circle fill-rule="evenodd" clip-rule="evenodd" fill="#FFFFFF" cx="68.3" cy="43.4" r="0.3"/>
		<circle fill-rule="evenodd" clip-rule="evenodd" fill="#FFFFFF" cx="64.5" cy="47.2" r="0.3"/>
		<circle fill-rule="evenodd" clip-rule="evenodd" fill="#FFFFFF" cx="60.7" cy="43.4" r="0.3"/>
		<circle fill-rule="evenodd" clip-rule="evenodd" fill="#FFFFFF" cx="64.5" cy="43.3" r="0.6"/>
	</g>
	<g>
		<g>
			<path fill-rule="evenodd" clip-rule="evenodd" fill="#FFFFFF" d="M-296.5,451.1c0.3,0,0.6-0.1,0.9-0.3c0.3-0.2,0.5-0.4,0.6-0.8
				c0.2-0.4,0.2-0.8,0.2-1.3c0-0.5-0.1-0.9-0.2-1.3c-0.2-0.4-0.4-0.6-0.7-0.8c-0.3-0.2-0.6-0.3-0.9-0.3V445c0.3,0,0.6,0.1,0.8,0.2
				c0.4,0.2,0.7,0.5,1.1,0.8v-2.7c0-0.4,0.1-0.7,0.2-0.9c0.2-0.2,0.4-0.3,0.6-0.3c0.3,0,0.5,0.1,0.7,0.3c0.2,0.2,0.2,0.4,0.2,0.8
				v8.2c0,0.4-0.1,0.6-0.2,0.8c-0.2,0.2-0.4,0.3-0.6,0.3c-0.3,0-0.5-0.1-0.6-0.3c-0.2-0.2-0.2-0.4-0.2-0.8v-0.2
				c-0.2,0.3-0.5,0.5-0.7,0.7c-0.2,0.2-0.5,0.3-0.8,0.4c-0.1,0-0.2,0.1-0.4,0.1V451.1z M-298.2,448.7c0,0.5,0.1,0.9,0.2,1.3
				c0.2,0.4,0.4,0.6,0.6,0.8c0.3,0.2,0.6,0.3,0.9,0.3h0v1.4c-0.2,0-0.4,0-0.6,0c-0.4,0-0.9-0.1-1.2-0.3c-0.4-0.2-0.7-0.5-1-0.8
				c-0.3-0.3-0.5-0.8-0.6-1.2c-0.1-0.5-0.2-1-0.2-1.5c0-1.2,0.3-2.1,0.9-2.7c0.6-0.6,1.3-1,2.2-1c0.2,0,0.4,0,0.6,0v1.3h0
				c-0.3,0-0.6,0.1-0.9,0.3c-0.3,0.2-0.5,0.5-0.6,0.8C-298.2,447.8-298.2,448.2-298.2,448.7z"/>
			<path fill-rule="evenodd" clip-rule="evenodd" fill="#FFFFFF" d="M-287.7,448.1h1.7c0-0.6-0.2-1.1-0.5-1.4
				c-0.3-0.3-0.7-0.5-1.2-0.5v-1.3h0.1c0.7,0,1.4,0.2,1.9,0.5c0.5,0.3,0.9,0.7,1.2,1.2c0.3,0.5,0.4,1,0.4,1.5c0,0.5-0.1,0.8-0.4,0.9
				c-0.3,0.1-0.6,0.2-1.1,0.2h-2V448.1L-287.7,448.1z M-287.7,452.5v-1.2c0,0,0.1,0,0.1,0c0.2,0,0.4,0,0.6-0.1
				c0.2,0,0.4-0.1,0.5-0.2c0.2-0.1,0.3-0.2,0.5-0.4c0.1-0.1,0.3-0.3,0.6-0.5c0.1-0.1,0.2-0.1,0.4-0.1c0.2,0,0.3,0.1,0.5,0.2
				c0.1,0.1,0.2,0.3,0.2,0.4c0,0.2-0.1,0.4-0.2,0.6c-0.1,0.2-0.3,0.4-0.6,0.6c-0.3,0.2-0.6,0.4-1,0.5c-0.4,0.1-0.9,0.2-1.4,0.2
				C-287.6,452.5-287.6,452.5-287.7,452.5z M-289.4,448.1h1.7v1.1h-1.7c0,0.4,0.1,0.8,0.3,1.1c0.2,0.3,0.4,0.6,0.7,0.7
				c0.2,0.1,0.5,0.2,0.8,0.2v1.2c-1.1,0-2-0.4-2.6-1c-0.7-0.7-1-1.6-1-2.8c0-0.6,0.1-1.1,0.2-1.5c0.2-0.5,0.4-0.9,0.7-1.2
				c0.3-0.3,0.7-0.6,1.2-0.8c0.4-0.2,0.9-0.3,1.5-0.3v1.3h0c-0.5,0-0.8,0.2-1.1,0.5C-289.2,447-289.3,447.5-289.4,448.1z"/>
			<path fill-rule="evenodd" clip-rule="evenodd" fill="#FFFFFF" d="M-276.7,450.1c0,0.5-0.1,1-0.4,1.3c-0.3,0.4-0.6,0.6-1.1,0.8
				c-0.5,0.2-1.1,0.3-1.8,0.3c-0.7,0-1.2-0.1-1.7-0.3c-0.5-0.2-0.8-0.5-1.1-0.8c-0.2-0.3-0.3-0.6-0.3-0.9c0-0.2,0.1-0.4,0.2-0.5
				c0.1-0.1,0.3-0.2,0.6-0.2c0.2,0,0.3,0,0.5,0.1c0.1,0.1,0.2,0.2,0.3,0.4c0.2,0.3,0.4,0.6,0.7,0.7c0.3,0.2,0.6,0.2,1.1,0.2
				c0.4,0,0.7-0.1,0.9-0.2c0.2-0.2,0.4-0.4,0.4-0.6c0-0.3-0.1-0.6-0.4-0.7c-0.2-0.1-0.7-0.3-1.2-0.4c-0.6-0.2-1.2-0.3-1.6-0.5
				c-0.4-0.2-0.7-0.4-1-0.7c-0.2-0.3-0.4-0.6-0.4-1.1c0-0.4,0.1-0.7,0.3-1.1c0.2-0.3,0.6-0.6,1-0.8c0.4-0.2,1-0.3,1.6-0.3
				c0.5,0,0.9,0,1.3,0.1c0.4,0.1,0.7,0.2,1,0.4c0.3,0.2,0.5,0.4,0.6,0.6c0.1,0.2,0.2,0.4,0.2,0.6c0,0.2-0.1,0.4-0.2,0.5
				c-0.1,0.1-0.3,0.2-0.6,0.2c-0.2,0-0.4-0.1-0.5-0.2c-0.1-0.1-0.3-0.3-0.5-0.5c-0.1-0.2-0.3-0.3-0.5-0.4c-0.2-0.1-0.5-0.2-0.8-0.2
				c-0.3,0-0.6,0.1-0.8,0.2c-0.2,0.1-0.3,0.3-0.3,0.5c0,0.2,0.1,0.4,0.2,0.5c0.2,0.1,0.4,0.2,0.7,0.3c0.3,0.1,0.7,0.2,1.1,0.3
				c0.6,0.1,1,0.3,1.4,0.5c0.4,0.2,0.6,0.4,0.8,0.7C-276.8,449.4-276.7,449.7-276.7,450.1z"/>
			<path fill-rule="evenodd" clip-rule="evenodd" fill="#FFFFFF" d="M-273.2,446v5.4c0,0.4-0.1,0.7-0.3,0.8
				c-0.2,0.2-0.4,0.3-0.7,0.3c-0.3,0-0.5-0.1-0.7-0.3c-0.2-0.2-0.3-0.5-0.3-0.8V446c0-0.4,0.1-0.6,0.3-0.8c0.2-0.2,0.4-0.3,0.7-0.3
				c0.3,0,0.5,0.1,0.7,0.3C-273.3,445.4-273.2,445.6-273.2,446L-273.2,446z M-274.1,444.1c-0.3,0-0.5-0.1-0.7-0.2
				c-0.2-0.2-0.3-0.4-0.3-0.7c0-0.3,0.1-0.5,0.3-0.7c0.2-0.2,0.4-0.3,0.7-0.3c0.2,0,0.5,0.1,0.6,0.2c0.2,0.2,0.3,0.4,0.3,0.7
				c0,0.3-0.1,0.5-0.3,0.7C-273.7,444-273.9,444.1-274.1,444.1z"/>
			<path fill-rule="evenodd" clip-rule="evenodd" fill="#FFFFFF" d="M-268.1,450.9c0.3,0,0.6-0.1,0.9-0.2c0.3-0.2,0.5-0.4,0.7-0.8
				c0.2-0.3,0.3-0.7,0.3-1.2c0-0.8-0.2-1.4-0.5-1.8c-0.3-0.4-0.8-0.6-1.3-0.6V445c0.3,0,0.5,0.1,0.8,0.3c0.4,0.2,0.7,0.5,1.1,1v-0.3
				c0-0.3,0.1-0.6,0.2-0.7c0.2-0.2,0.4-0.3,0.6-0.3c0.4,0,0.6,0.1,0.7,0.4c0.1,0.2,0.2,0.6,0.2,1v5.4c0,0.6-0.1,1.2-0.2,1.6
				c-0.1,0.4-0.3,0.8-0.6,1.1c-0.3,0.3-0.7,0.5-1.1,0.6c-0.4,0.1-1,0.2-1.6,0.2V454c0.4,0,0.7-0.1,1-0.2c0.3-0.1,0.5-0.3,0.6-0.6
				c0.1-0.2,0.2-0.5,0.2-0.8c0-0.3,0-0.7,0-1.3c-0.3,0.4-0.6,0.7-1,0.9c-0.2,0.1-0.5,0.2-0.8,0.3V450.9z M-269.8,448.6
				c0,0.8,0.2,1.3,0.5,1.7c0.3,0.4,0.8,0.6,1.3,0.6h0v1.3c-0.2,0-0.4,0-0.6,0c-0.6,0-1.2-0.2-1.6-0.5c-0.5-0.3-0.8-0.8-1.1-1.3
				c-0.3-0.6-0.4-1.2-0.4-2c0-0.6,0.1-1.1,0.2-1.5c0.2-0.5,0.4-0.8,0.7-1.1c0.3-0.3,0.6-0.5,1-0.7c0.4-0.2,0.8-0.2,1.2-0.2
				c0.2,0,0.4,0,0.6,0v1.3h0c-0.5,0-1,0.2-1.3,0.6C-269.7,447.3-269.8,447.9-269.8,448.6L-269.8,448.6z M-268.1,454v1.3l-0.1,0
				c-0.6,0-1.2-0.1-1.7-0.3c-0.5-0.2-0.9-0.4-1.2-0.7c-0.3-0.3-0.4-0.6-0.4-0.9c0-0.2,0.1-0.4,0.2-0.6c0.2-0.1,0.3-0.2,0.6-0.2
				c0.3,0,0.5,0.1,0.7,0.4c0.1,0.1,0.2,0.2,0.3,0.4c0.1,0.1,0.2,0.2,0.4,0.3c0.1,0.1,0.3,0.2,0.5,0.2c0.2,0,0.4,0.1,0.6,0.1
				L-268.1,454z"/>
			<path fill-rule="evenodd" clip-rule="evenodd" fill="#FFFFFF" d="M-260.9,446v0.2c0.3-0.4,0.7-0.8,1.1-1c0.4-0.2,0.8-0.3,1.3-0.3
				c0.5,0,0.9,0.1,1.3,0.3c0.4,0.2,0.7,0.5,0.9,0.9c0.1,0.2,0.2,0.5,0.2,0.7c0,0.3,0.1,0.6,0.1,1v3.5c0,0.4-0.1,0.7-0.3,0.8
				c-0.2,0.2-0.4,0.3-0.7,0.3c-0.3,0-0.5-0.1-0.7-0.3c-0.2-0.2-0.3-0.5-0.3-0.8v-3.1c0-0.6-0.1-1.1-0.3-1.4c-0.2-0.3-0.5-0.5-1-0.5
				c-0.3,0-0.6,0.1-0.9,0.3c-0.3,0.2-0.5,0.5-0.6,0.8c-0.1,0.3-0.1,0.8-0.1,1.6v2.3c0,0.4-0.1,0.7-0.3,0.8c-0.2,0.2-0.4,0.3-0.7,0.3
				c-0.3,0-0.5-0.1-0.7-0.3c-0.2-0.2-0.3-0.5-0.3-0.8V446c0-0.4,0.1-0.6,0.2-0.8c0.2-0.2,0.4-0.3,0.6-0.3c0.2,0,0.3,0,0.4,0.1
				c0.1,0.1,0.2,0.2,0.3,0.3C-260.9,445.5-260.9,445.7-260.9,446z"/>
			<path fill-rule="evenodd" clip-rule="evenodd" fill="#FFFFFF" d="M-250.9,448.1h1.7c0-0.6-0.2-1.1-0.5-1.4
				c-0.3-0.3-0.7-0.5-1.2-0.5v-1.3h0.1c0.7,0,1.4,0.2,1.9,0.5c0.5,0.3,0.9,0.7,1.2,1.2c0.3,0.5,0.4,1,0.4,1.5c0,0.5-0.1,0.8-0.4,0.9
				c-0.3,0.1-0.6,0.2-1.1,0.2h-2V448.1L-250.9,448.1z M-250.9,452.5v-1.2c0,0,0.1,0,0.1,0c0.2,0,0.4,0,0.6-0.1
				c0.2,0,0.4-0.1,0.5-0.2c0.2-0.1,0.3-0.2,0.5-0.4c0.1-0.1,0.3-0.3,0.6-0.5c0.1-0.1,0.2-0.1,0.4-0.1c0.2,0,0.3,0.1,0.5,0.2
				c0.1,0.1,0.2,0.3,0.2,0.4c0,0.2-0.1,0.4-0.2,0.6c-0.1,0.2-0.3,0.4-0.6,0.6c-0.3,0.2-0.6,0.4-1,0.5c-0.4,0.1-0.9,0.2-1.4,0.2
				C-250.8,452.5-250.8,452.5-250.9,452.5z M-252.6,448.1h1.7v1.1h-1.7c0,0.4,0.1,0.8,0.3,1.1c0.2,0.3,0.4,0.6,0.7,0.7
				c0.2,0.1,0.5,0.2,0.8,0.2v1.2c-1.1,0-2-0.4-2.6-1c-0.7-0.7-1-1.6-1-2.8c0-0.6,0.1-1.1,0.2-1.5c0.2-0.5,0.4-0.9,0.7-1.2
				c0.3-0.3,0.7-0.6,1.2-0.8c0.4-0.2,0.9-0.3,1.5-0.3v1.3h0c-0.5,0-0.8,0.2-1.1,0.5C-252.3,447-252.5,447.5-252.6,448.1z"/>
			<path fill-rule="evenodd" clip-rule="evenodd" fill="#FFFFFF" d="M-242.6,451.1c0.3,0,0.6-0.1,0.9-0.3c0.3-0.2,0.5-0.4,0.6-0.8
				c0.2-0.4,0.2-0.8,0.2-1.3c0-0.5-0.1-0.9-0.2-1.3c-0.2-0.4-0.4-0.6-0.7-0.8c-0.3-0.2-0.6-0.3-0.9-0.3V445c0.3,0,0.6,0.1,0.8,0.2
				c0.4,0.2,0.7,0.5,1.1,0.8v-2.7c0-0.4,0.1-0.7,0.2-0.9c0.2-0.2,0.4-0.3,0.7-0.3c0.3,0,0.5,0.1,0.6,0.3c0.2,0.2,0.2,0.4,0.2,0.8
				v8.2c0,0.4-0.1,0.6-0.2,0.8c-0.2,0.2-0.4,0.3-0.6,0.3c-0.3,0-0.5-0.1-0.6-0.3c-0.2-0.2-0.2-0.4-0.2-0.8v-0.2
				c-0.3,0.3-0.5,0.5-0.7,0.7c-0.2,0.2-0.5,0.3-0.8,0.4c-0.1,0-0.2,0.1-0.4,0.1V451.1z M-244.4,448.7c0,0.5,0.1,0.9,0.2,1.3
				c0.2,0.4,0.4,0.6,0.6,0.8c0.3,0.2,0.6,0.3,0.9,0.3h0v1.4c-0.2,0-0.4,0-0.6,0c-0.4,0-0.9-0.1-1.2-0.3c-0.4-0.2-0.7-0.5-1-0.8
				c-0.3-0.3-0.5-0.8-0.6-1.2c-0.1-0.5-0.2-1-0.2-1.5c0-1.2,0.3-2.1,0.9-2.7c0.6-0.6,1.3-1,2.2-1c0.2,0,0.4,0,0.6,0v1.3h0
				c-0.3,0-0.6,0.1-0.9,0.3c-0.3,0.2-0.5,0.5-0.6,0.8C-244.3,447.8-244.4,448.2-244.4,448.7z"/>
			<path fill-rule="evenodd" clip-rule="evenodd" fill="#FFFFFF" d="M-230,451.1L-230,451.1c0.5,0,0.9-0.2,1.3-0.6
				c0.3-0.4,0.5-1,0.5-1.7c0-0.5-0.1-0.9-0.2-1.3c-0.1-0.4-0.3-0.6-0.6-0.8c-0.3-0.2-0.6-0.3-0.9-0.3l-0.1,0V445c0.2,0,0.4,0,0.6,0
				c0.6,0,1.2,0.1,1.6,0.4c0.5,0.3,0.8,0.7,1.1,1.3c0.3,0.6,0.4,1.2,0.4,2c0,0.6-0.1,1.1-0.2,1.6c-0.1,0.5-0.4,0.9-0.6,1.2
				c-0.3,0.3-0.6,0.6-1,0.8c-0.4,0.2-0.8,0.3-1.3,0.3c-0.2,0-0.4,0-0.5,0V451.1z M-231.8,448.7c0,0.7,0.2,1.3,0.5,1.7
				c0.3,0.4,0.8,0.6,1.3,0.6v1.4c-0.1,0-0.2,0-0.3-0.1c-0.3-0.1-0.5-0.2-0.6-0.3c-0.2-0.1-0.3-0.2-0.5-0.3c-0.1-0.1-0.3-0.3-0.5-0.5
				v0.2c0,0.4-0.1,0.6-0.3,0.8c-0.2,0.2-0.4,0.3-0.6,0.3c-0.3,0-0.5-0.1-0.6-0.3c-0.2-0.2-0.2-0.4-0.2-0.8v-8.1
				c0-0.4,0.1-0.7,0.2-0.9c0.2-0.2,0.4-0.3,0.6-0.3c0.3,0,0.5,0.1,0.7,0.3c0.2,0.2,0.2,0.4,0.2,0.8v2.8c0.3-0.4,0.7-0.6,1.1-0.8
				c0.2-0.1,0.5-0.2,0.8-0.3v1.3c-0.3,0-0.6,0.1-0.9,0.3c-0.3,0.2-0.5,0.5-0.7,0.8C-231.7,447.8-231.8,448.2-231.8,448.7z"/>
			<path fill-rule="evenodd" clip-rule="evenodd" fill="#FFFFFF" d="M-223.4,452.7l0.2-0.4l-2.3-5.8c-0.1-0.3-0.2-0.6-0.2-0.7
				c0-0.2,0-0.3,0.1-0.4c0.1-0.1,0.2-0.2,0.3-0.3c0.1-0.1,0.3-0.1,0.4-0.1c0.3,0,0.5,0.1,0.6,0.3c0.1,0.2,0.3,0.4,0.4,0.7l1.6,4.6
				l1.5-4.3c0.1-0.3,0.2-0.6,0.3-0.8c0.1-0.2,0.2-0.3,0.3-0.4c0.1-0.1,0.3-0.1,0.5-0.1c0.1,0,0.3,0,0.4,0.1c0.1,0.1,0.2,0.2,0.3,0.3
				c0.1,0.1,0.1,0.3,0.1,0.4c0,0.1,0,0.2-0.1,0.4c0,0.2-0.1,0.3-0.2,0.5l-2.4,6.4c-0.2,0.6-0.4,1-0.6,1.3c-0.2,0.3-0.5,0.6-0.8,0.7
				c-0.3,0.2-0.8,0.3-1.3,0.3c-0.5,0-1-0.1-1.2-0.2c-0.3-0.1-0.4-0.3-0.4-0.6c0-0.2,0.1-0.4,0.2-0.5c0.1-0.1,0.3-0.2,0.6-0.2
				c0.1,0,0.2,0,0.3,0c0.1,0,0.2,0,0.3,0c0.2,0,0.4,0,0.5-0.1c0.1-0.1,0.2-0.2,0.3-0.3C-223.6,453.3-223.5,453-223.4,452.7z"/>
		</g>
		<g>
			<path fill-rule="evenodd" clip-rule="evenodd" fill="#FFFFFF" d="M-181.5,442.6h0.6v-0.7c0-0.7,0.1-1.3,0.3-1.7
				c0.2-0.4,0.5-0.7,0.9-0.9c0.4-0.2,1-0.3,1.8-0.3c1.4,0,2,0.3,2,1c0,0.2-0.1,0.4-0.2,0.6c-0.1,0.2-0.3,0.2-0.5,0.2
				c-0.1,0-0.2,0-0.5-0.1c-0.2,0-0.4,0-0.6,0c-0.4,0-0.7,0.1-0.8,0.4c-0.1,0.2-0.2,0.6-0.2,1.1v0.6h0.6c0.9,0,1.3,0.3,1.3,0.8
				c0,0.4-0.1,0.6-0.4,0.7c-0.2,0.1-0.6,0.2-1,0.2h-0.6v6.1c0,0.5-0.1,0.8-0.3,1.1c-0.2,0.2-0.5,0.4-0.8,0.4c-0.3,0-0.6-0.1-0.8-0.4
				c-0.2-0.2-0.3-0.6-0.3-1.1v-6.1h-0.6c-0.3,0-0.6-0.1-0.8-0.2c-0.2-0.2-0.3-0.4-0.3-0.6C-182.7,442.8-182.3,442.6-181.5,442.6z"/>
			<path fill-rule="evenodd" clip-rule="evenodd" fill="#FFFFFF" d="M-173.2,448.5v1.9c0,0.5-0.1,0.8-0.3,1.1
				c-0.2,0.2-0.5,0.4-0.8,0.4c-0.3,0-0.6-0.1-0.8-0.4c-0.2-0.2-0.3-0.6-0.3-1.1v-6.5c0-1,0.4-1.6,1.1-1.6c0.4,0,0.7,0.1,0.8,0.4
				c0.2,0.2,0.3,0.6,0.3,1.1c0.3-0.5,0.6-0.8,0.9-1.1c0.3-0.2,0.7-0.4,1.2-0.4c0.5,0,1,0.1,1.4,0.4c0.5,0.2,0.7,0.6,0.7,1
				c0,0.3-0.1,0.5-0.3,0.7c-0.2,0.2-0.4,0.3-0.6,0.3c-0.1,0-0.3-0.1-0.6-0.2c-0.3-0.1-0.6-0.2-0.9-0.2c-0.3,0-0.6,0.1-0.8,0.3
				c-0.2,0.2-0.4,0.4-0.5,0.8c-0.1,0.4-0.2,0.8-0.2,1.3C-173.2,447.2-173.2,447.8-173.2,448.5z"/>
			<path fill-rule="evenodd" clip-rule="evenodd" fill="#FFFFFF" d="M-164.3,446.3h2.1c-0.1-0.8-0.3-1.4-0.6-1.8
				c-0.4-0.4-0.9-0.6-1.5-0.6v-1.6l0.1,0c0.9,0,1.7,0.2,2.3,0.6c0.7,0.4,1.1,0.9,1.5,1.5c0.3,0.6,0.5,1.2,0.5,1.9
				c0,0.6-0.2,1-0.5,1.1c-0.3,0.2-0.8,0.3-1.4,0.3h-2.4V446.3L-164.3,446.3z M-164.3,451.8v-1.5c0.1,0,0.1,0,0.2,0
				c0.3,0,0.5,0,0.8-0.1c0.2-0.1,0.5-0.2,0.7-0.3c0.2-0.1,0.4-0.3,0.6-0.4c0.2-0.2,0.4-0.4,0.7-0.6c0.1-0.1,0.3-0.2,0.5-0.2
				c0.2,0,0.4,0.1,0.6,0.2c0.1,0.1,0.2,0.3,0.2,0.6c0,0.2-0.1,0.5-0.2,0.7c-0.2,0.3-0.4,0.6-0.7,0.8c-0.3,0.3-0.8,0.5-1.3,0.6
				c-0.5,0.2-1.1,0.3-1.7,0.3C-164.1,451.8-164.2,451.8-164.3,451.8z M-166.4,446.3h2.1v1.3h-2.1c0,0.5,0.1,1,0.3,1.4
				c0.2,0.4,0.5,0.7,0.8,0.9c0.3,0.2,0.6,0.3,1,0.3v1.5c-1.4,0-2.5-0.5-3.2-1.3c-0.8-0.8-1.2-2-1.2-3.5c0-0.7,0.1-1.3,0.3-1.9
				c0.2-0.6,0.5-1.1,0.9-1.5c0.4-0.4,0.9-0.7,1.4-1c0.5-0.2,1.2-0.3,1.8-0.3v1.6h0c-0.6,0-1.1,0.2-1.4,0.6
				C-166.1,445-166.3,445.6-166.4,446.3z"/>
			<path fill-rule="evenodd" clip-rule="evenodd" fill="#FFFFFF" d="M-153.9,446.3h2.1c-0.1-0.8-0.3-1.4-0.6-1.8
				c-0.4-0.4-0.9-0.6-1.5-0.6v-1.6h0.1c0.9,0,1.7,0.2,2.3,0.6c0.6,0.4,1.1,0.9,1.5,1.5c0.3,0.6,0.5,1.2,0.5,1.9c0,0.6-0.2,1-0.5,1.1
				c-0.3,0.2-0.8,0.3-1.4,0.3h-2.4V446.3L-153.9,446.3z M-153.9,451.8v-1.5c0.1,0,0.1,0,0.2,0c0.3,0,0.5,0,0.8-0.1
				c0.2-0.1,0.5-0.2,0.7-0.3c0.2-0.1,0.4-0.3,0.6-0.4c0.2-0.2,0.4-0.4,0.7-0.6c0.1-0.1,0.3-0.2,0.5-0.2c0.2,0,0.4,0.1,0.6,0.2
				c0.1,0.1,0.2,0.3,0.2,0.6c0,0.2-0.1,0.5-0.2,0.7c-0.2,0.3-0.4,0.6-0.7,0.8c-0.3,0.3-0.7,0.5-1.2,0.6c-0.5,0.2-1.1,0.3-1.7,0.3
				C-153.7,451.8-153.8,451.8-153.9,451.8z M-156,446.3h2.1v1.3h-2.1c0,0.5,0.1,1,0.3,1.4c0.2,0.4,0.5,0.7,0.8,0.9
				c0.3,0.2,0.6,0.3,1,0.3v1.5c-1.4,0-2.5-0.5-3.2-1.3c-0.8-0.8-1.2-2-1.2-3.5c0-0.7,0.1-1.3,0.3-1.9c0.2-0.6,0.5-1.1,0.9-1.5
				c0.4-0.4,0.9-0.7,1.4-1c0.6-0.2,1.2-0.3,1.8-0.3v1.6h0c-0.6,0-1.1,0.2-1.4,0.6C-155.7,445-155.9,445.6-156,446.3z"/>
			<path fill-rule="evenodd" clip-rule="evenodd" fill="#FFFFFF" d="M-141.1,447c0-0.6-0.1-1.1-0.3-1.6c-0.2-0.4-0.4-0.8-0.8-1
				c-0.3-0.2-0.7-0.4-1.1-0.4l-0.1,0v-1.7c0.2,0,0.4-0.1,0.6-0.1c0.7,0,1.4,0.2,2,0.6c0.6,0.4,1.1,0.9,1.4,1.6
				c0.3,0.7,0.5,1.5,0.5,2.5c0,0.7-0.1,1.4-0.3,2c-0.2,0.6-0.5,1.1-0.8,1.5c-0.4,0.4-0.8,0.7-1.2,0.9c-0.5,0.2-1,0.3-1.5,0.3
				c-0.2,0-0.4,0-0.6,0V450l0.1,0c0.4,0,0.7-0.1,1.1-0.3c0.3-0.2,0.6-0.6,0.8-1C-141.2,448.2-141.1,447.7-141.1,447z M-143.4,444.1
				c-0.6,0-1.1,0.3-1.6,0.8c-0.4,0.5-0.7,1.2-0.7,2.2c0,0.9,0.2,1.6,0.7,2.2c0.4,0.5,0.9,0.8,1.6,0.8v1.7c-0.4-0.1-0.7-0.2-1-0.4
				c-0.5-0.3-0.9-0.7-1.3-1.2v3.5c0,1-0.4,1.5-1.1,1.5c-0.4,0-0.7-0.1-0.9-0.4c-0.1-0.3-0.2-0.7-0.2-1.2v-10c0-0.4,0.1-0.8,0.3-1
				c0.2-0.2,0.5-0.3,0.8-0.3c0.3,0,0.6,0.1,0.8,0.3c0.2,0.2,0.3,0.5,0.3,1v0.3c0.4-0.5,0.9-0.9,1.4-1.2c0.3-0.2,0.6-0.3,1-0.3V444.1
				z"/>
			<path fill-rule="evenodd" clip-rule="evenodd" fill="#FFFFFF" d="M-134.6,443.7v6.7c0,0.5-0.1,0.8-0.3,1.1
				c-0.2,0.2-0.5,0.4-0.8,0.4c-0.3,0-0.6-0.1-0.8-0.4c-0.2-0.2-0.3-0.6-0.3-1v-6.6c0-0.5,0.1-0.8,0.3-1c0.2-0.2,0.5-0.4,0.8-0.4
				c0.3,0,0.6,0.1,0.8,0.4C-134.7,442.9-134.6,443.3-134.6,443.7L-134.6,443.7z M-135.8,441.3c-0.3,0-0.6-0.1-0.8-0.3
				c-0.2-0.2-0.3-0.5-0.3-0.8c0-0.3,0.1-0.6,0.4-0.8c0.2-0.2,0.5-0.3,0.8-0.3c0.3,0,0.6,0.1,0.8,0.3c0.2,0.2,0.3,0.5,0.3,0.8
				c0,0.4-0.1,0.6-0.3,0.8C-135.2,441.2-135.5,441.3-135.8,441.3z"/>
			<path fill-rule="evenodd" clip-rule="evenodd" fill="#FFFFFF" d="M-126.4,450.7l-2.1-3.4l-1.3,1.2v1.8c0,0.4-0.1,0.8-0.3,1
				c-0.2,0.2-0.5,0.4-0.8,0.4c-0.4,0-0.6-0.1-0.8-0.4c-0.2-0.2-0.3-0.6-0.3-1.1v-9.9c0-0.5,0.1-0.9,0.3-1.2c0.2-0.3,0.5-0.4,0.9-0.4
				c0.4,0,0.6,0.1,0.8,0.4c0.2,0.2,0.3,0.6,0.3,1.1v5.6l2.6-2.7c0.3-0.3,0.6-0.6,0.7-0.7c0.2-0.1,0.4-0.2,0.6-0.2
				c0.3,0,0.5,0.1,0.7,0.3c0.2,0.2,0.3,0.4,0.3,0.7c0,0.3-0.3,0.8-0.9,1.4l-1.2,1.1l2.4,3.7c0.2,0.3,0.3,0.5,0.4,0.6
				c0.1,0.1,0.1,0.3,0.1,0.4c0,0.4-0.1,0.7-0.3,0.9c-0.2,0.2-0.5,0.3-0.8,0.3c-0.3,0-0.5-0.1-0.7-0.2
				C-126,451.4-126.2,451.1-126.4,450.7z"/>
			<path fill-rule="evenodd" clip-rule="evenodd" fill="#FFFFFF" d="M-120.7,451.8c-0.4,0-0.7-0.1-0.9-0.3c-0.3-0.2-0.4-0.5-0.4-1
				c0-0.3,0.1-0.6,0.4-0.9c0.2-0.2,0.5-0.4,0.9-0.4c0.4,0,0.7,0.1,0.9,0.4c0.3,0.2,0.4,0.5,0.4,0.9c0,0.4-0.1,0.7-0.4,1
				C-120.1,451.7-120.4,451.8-120.7,451.8z"/>
			<path fill-rule="evenodd" clip-rule="evenodd" fill="#FFFFFF" d="M-108.4,448.9c0,0.3-0.1,0.6-0.3,0.9c-0.2,0.3-0.4,0.6-0.8,0.9
				c-0.4,0.3-0.8,0.5-1.3,0.7c-0.5,0.2-1.2,0.3-1.8,0.3c-1.4,0-2.6-0.4-3.4-1.3c-0.8-0.8-1.2-2-1.2-3.4c0-1,0.2-1.8,0.6-2.5
				c0.4-0.7,0.9-1.3,1.6-1.7c0.7-0.4,1.5-0.6,2.5-0.6c0.6,0,1.2,0.1,1.7,0.3c0.5,0.2,0.9,0.4,1.3,0.7c0.3,0.3,0.6,0.6,0.8,0.9
				c0.2,0.3,0.3,0.6,0.3,0.9c0,0.3-0.1,0.5-0.3,0.7c-0.2,0.2-0.5,0.3-0.8,0.3c-0.2,0-0.4,0-0.5-0.1c-0.1-0.1-0.3-0.3-0.4-0.5
				c-0.3-0.4-0.6-0.8-0.9-1c-0.3-0.2-0.7-0.3-1.2-0.3c-0.7,0-1.2,0.3-1.7,0.8c-0.4,0.5-0.6,1.3-0.6,2.2c0,0.4,0.1,0.8,0.2,1.2
				c0.1,0.4,0.3,0.7,0.5,0.9c0.2,0.3,0.5,0.5,0.7,0.6c0.3,0.1,0.6,0.2,1,0.2c0.5,0,0.9-0.1,1.2-0.3c0.3-0.2,0.6-0.5,0.9-1
				c0.1-0.3,0.3-0.5,0.5-0.6c0.2-0.1,0.4-0.2,0.6-0.2c0.3,0,0.5,0.1,0.7,0.3C-108.5,448.5-108.4,448.7-108.4,448.9z"/>
			<path fill-rule="evenodd" clip-rule="evenodd" fill="#FFFFFF" d="M-100.1,447.1c0-0.9-0.2-1.7-0.6-2.2c-0.4-0.5-1-0.8-1.7-0.8
				v-1.7c0.7,0,1.3,0.1,1.9,0.3c0.6,0.2,1.1,0.5,1.5,1c0.4,0.4,0.7,0.9,0.9,1.5c0.2,0.6,0.3,1.2,0.3,1.9c0,0.7-0.1,1.3-0.3,1.9
				c-0.2,0.6-0.5,1.1-0.9,1.5c-0.4,0.4-0.9,0.7-1.5,1c-0.6,0.2-1.2,0.3-1.9,0.3v-1.7c0.7,0,1.3-0.3,1.7-0.8
				C-100.3,448.7-100.1,448-100.1,447.1z M-102.4,444.1L-102.4,444.1c-0.5,0-0.9,0.1-1.2,0.4c-0.3,0.2-0.6,0.6-0.8,1
				c-0.2,0.5-0.3,1-0.3,1.6c0,0.6,0.1,1.1,0.3,1.6c0.2,0.5,0.4,0.8,0.8,1c0.3,0.2,0.7,0.4,1.2,0.4h0v1.7h0c-0.7,0-1.3-0.1-1.9-0.3
				c-0.6-0.2-1-0.5-1.5-1c-0.4-0.4-0.7-0.9-0.9-1.5c-0.2-0.6-0.3-1.2-0.3-1.9c0-0.7,0.1-1.3,0.3-1.9c0.2-0.6,0.5-1.1,0.9-1.5
				c0.4-0.4,0.9-0.7,1.5-1c0.6-0.2,1.2-0.3,1.9-0.3h0V444.1z"/>
			<path fill-rule="evenodd" clip-rule="evenodd" fill="#FFFFFF" d="M-88.2,447.3v3.1c0,0.5-0.1,0.9-0.3,1.1
				c-0.2,0.2-0.5,0.4-0.9,0.4c-0.4,0-0.6-0.1-0.9-0.4c-0.2-0.2-0.3-0.6-0.3-1.1v-3.7c0-0.6,0-1-0.1-1.4c0-0.3-0.1-0.6-0.3-0.8
				c-0.2-0.2-0.5-0.3-0.8-0.3c-0.8,0-1.3,0.3-1.5,0.8c-0.2,0.5-0.4,1.3-0.4,2.2v3.1c0,0.5-0.1,0.8-0.3,1.1c-0.2,0.2-0.5,0.4-0.9,0.4
				c-0.4,0-0.6-0.1-0.9-0.4c-0.2-0.2-0.3-0.6-0.3-1.1v-6.6c0-0.4,0.1-0.8,0.3-1c0.2-0.2,0.5-0.3,0.8-0.3c0.3,0,0.6,0.1,0.8,0.3
				c0.2,0.2,0.3,0.5,0.3,0.9v0.2c0.4-0.5,0.8-0.8,1.3-1.1c0.5-0.2,1-0.3,1.5-0.3c0.6,0,1.1,0.1,1.5,0.3c0.4,0.2,0.8,0.6,1,1.1
				c0.4-0.5,0.8-0.8,1.3-1.1c0.4-0.2,0.9-0.3,1.5-0.3c0.6,0,1.2,0.1,1.6,0.4c0.5,0.3,0.8,0.6,1,1.1c0.2,0.4,0.3,1.1,0.3,2v4.5
				c0,0.5-0.1,0.9-0.3,1.1c-0.2,0.2-0.5,0.4-0.9,0.4c-0.3,0-0.6-0.1-0.9-0.4c-0.2-0.2-0.3-0.6-0.3-1.1v-3.9c0-0.5,0-0.9-0.1-1.2
				c0-0.3-0.2-0.6-0.3-0.8c-0.2-0.2-0.5-0.3-0.9-0.3c-0.3,0-0.6,0.1-0.9,0.3c-0.3,0.2-0.5,0.4-0.6,0.7
				C-88.1,445.6-88.2,446.3-88.2,447.3z"/>
			<path fill-rule="evenodd" clip-rule="evenodd" fill="#FFFFFF" d="M-199.8,436.4c0-0.2-0.1-0.3-0.1-0.4c0.8-0.1,1.3-1,0.9-1.7
				c-0.2-0.4-0.6-0.6-1-0.6h-0.1c-0.4,0-0.7,0.2-0.9,0.5c-0.5,0.6-0.1,1.6,0.7,1.8c0,0.2,0.1,0.3,0.1,0.5c-1.2,0.1-2.4,0.3-3.3,1
				c0.1,0.3,0.2,0.6,0.3,0.9c2-0.9,4.2-0.7,6.3-0.5c0.1-0.3,0.1-0.6,0.2-0.8C-197.7,436.5-198.8,436.4-199.8,436.4z"/>
			<path fill-rule="evenodd" clip-rule="evenodd" fill="#FFFFFF" d="M-188,439.6c-0.3,0.2-0.4,0.5-0.4,0.9c-0.4,0.3-0.2,0.8-0.2,1.3
				c-0.1,0.2-0.4,0.3-0.6,0.4c-0.3-0.4-0.6-0.8-0.9-1.2l0,0c-0.4-0.4-0.8-0.7-1.3-1c-0.4,0.4-0.7,0.8-1.1,1.2
				c0.7,0.8,1.3,1.6,1.9,2.5c0.4,0.7,0.7,1.4,1,2.1c0.6-0.3,1.2-0.6,1.8-0.9c-0.3-0.7-0.7-1.4-1-2.1c0.3-0.1,0.6-0.3,0.7-0.6
				c0-0.4-0.1-0.8,0.2-1.1c0.5,0.3,1.1,0,1.2-0.6C-186.8,439.7-187.6,439.2-188,439.6z"/>
			<path fill-rule="evenodd" clip-rule="evenodd" fill="#FFFFFF" d="M-192.6,444.3c-0.1,1-1,1.8-2,1.7v3.8c1.8-0.5,3.5-1.2,5.1-2.1
				c0,0-0.3-1.9-1.7-3.9c-0.8-1.3-1.6-2.5-2.7-3.5c-0.2-0.2-0.5-0.4-0.7-0.6v2.2c0.2,0,0.5,0.1,0.7,0.1
				C-193,442.4-192.5,443.4-192.6,444.3z M-194.7,446L-194.7,446c-0.6,0-1.1-0.2-1.5-0.6c-0.3-0.3-0.5-0.7-0.5-1.2
				c-0.1-1,0.6-2,1.5-2.2c0.2-0.1,0.4-0.1,0.5-0.1v-2.2c-1.2-0.8-2.6-1.3-4-1.3c-1.8,0-3.6,0.2-5.3,0.8v2.1c0.3,0,0.6,0,0.9,0.1
				c0.3,0.1,0.7,0.2,0.9,0.4c0.6,0.4,1.1,1.1,1.3,1.8c0.3,0.9,0.1,1.9-0.4,2.7c-0.4,0.6-0.9,1-1.6,1.2c-0.4,0.1-0.7,0.2-1.1,0.2v2.8
				l0.1,0c2.1,0.1,4.2,0.1,6.2-0.2c1-0.1,2-0.3,3-0.6V446z M-204,439.2v2.1c-0.5,0-1.1,0.1-1.5,0.4c-1,0.5-1.7,1.6-1.7,2.7
				c-0.1,0.9,0.3,1.8,0.9,2.4c0.6,0.7,1.5,1,2.4,1v2.8c-2.1-0.1-4.1-0.6-6.1-1.1c-0.4-1.9-0.4-3.9,0.4-5.6c0.8-2,2.5-3.5,4.5-4.3
				C-204.8,439.5-204.4,439.3-204,439.2z"/>
			<path fill-rule="evenodd" clip-rule="evenodd" fill="#FFFFFF" d="M-209.6,441c-0.8,0.5-1.5,1.2-2.1,2c-0.2-0.3-0.2-0.7-0.4-1
				c-0.1-0.2-0.3-0.1-0.5-0.1c-0.2,0-0.4,0-0.6-0.1c0.2-0.3,0.2-0.9-0.2-1.1c-0.4-0.3-1,0-1.1,0.4c-0.2,0.5,0.4,1,0.9,0.9
				c0.3,0.4,0.8,0.3,1.2,0.3c0.2,0.3,0.3,0.7,0.6,1c-0.4,0.9-0.7,1.9-0.7,2.8c0.6,0.2,1.1,0.5,1.7,0.7c0-0.6,0.1-1.2,0.2-1.8
				c0.2-1.3,1-2.5,1.9-3.4C-209.1,441.4-209.4,441.2-209.6,441z"/>
			<path fill-rule="evenodd" clip-rule="evenodd" fill="#FFFFFF" d="M-196.3,451c-2.1,0.5-4.3,0.6-6.4,0.5c-1.5-0.1-2.9-0.2-4.3-0.5
				c-1-0.2-2-0.5-3-0.8c0.2,1.3,0.7,2.5,1.4,3.5c0.9,1.2,2,2.3,3.4,2.8c1.1,0.3,2.3,0.6,4.3,0.6h0.2l0.2,0c1.9,0,3.8-0.3,5.4-1
				c1.1-0.5,2.1-1.1,3-1.9c0.7-0.7,1.3-1.6,1.7-2.5c0.4-0.9,0.7-2.5,0.7-3.3C-191.6,449.6-193.9,450.7-196.3,451z"/>
		</g>
	</g>
	<g>
		<rect x="43.9" y="66.4" fill-rule="evenodd" clip-rule="evenodd" fill="#FF0D0D" width="6.7" height="0.2"/>
		<rect x="43.9" y="59.2" fill-rule="evenodd" clip-rule="evenodd" fill="#FF0D0D" width="1.2" height="7.3"/>
		<rect x="45.3" y="62.8" fill-rule="evenodd" clip-rule="evenodd" fill="#FF0D0D" width="1.2" height="3.6"/>
		<rect x="46.6" y="64.6" fill-rule="evenodd" clip-rule="evenodd" fill="#FF0D0D" width="1.2" height="1.8"/>
		<rect x="48" y="61.1" fill-rule="evenodd" clip-rule="evenodd" fill="#FF0D0D" width="1.2" height="5.3"/>
		<rect x="49.4" y="64.5" fill-rule="evenodd" clip-rule="evenodd" fill="#FF0D0D" width="1.2" height="1.9"/>
	</g>
	<g>
		<g>
			
				<polygon fill-rule="evenodd" clip-rule="evenodd" fill="#E5E5E5" stroke="#B2B2B2" stroke-width="1.5313" stroke-miterlimit="10" points="
				65.1,77.6 100.8,77.6 107.6,84.6 107.6,137.7 65.1,137.7 			"/>
			<rect x="76" y="84" fill-rule="evenodd" clip-rule="evenodd" fill="#FFFFFF" width="20.7" height="1.1"/>
			<rect x="69" y="101.5" fill-rule="evenodd" clip-rule="evenodd" fill="#FFFFFF" width="17.4" height="1.1"/>
			<g>
				<circle fill-rule="evenodd" clip-rule="evenodd" fill="#087F63" cx="99.2" cy="111.7" r="4.5"/>
				<path fill-rule="evenodd" clip-rule="evenodd" fill="#6AD9C3" d="M96.8,115.5c-0.6-0.4-1.2-1-1.5-1.7l4-2.1L96.8,115.5z"/>
				<path fill-rule="evenodd" clip-rule="evenodd" fill="#53BEA9" d="M95.2,113.8c-0.3-0.6-0.5-1.3-0.5-2.1c0-1.4,0.7-2.7,1.7-3.5
					l2.8,3.5L95.2,113.8z"/>
				<path fill-rule="evenodd" clip-rule="evenodd" fill="#3BA48E" d="M96.5,108.2c0.8-0.6,1.7-1,2.8-1v4.5L96.5,108.2z"/>
				<path fill-rule="evenodd" clip-rule="evenodd" fill="#248974" d="M99.2,107.2v4.5l3.2-3.2C101.6,107.8,100.5,107.2,99.2,107.2z"
					/>
			</g>
			<g>
				<rect x="69" y="117" fill-rule="evenodd" clip-rule="evenodd" fill="#FFFFFF" width="20.7" height="0.5"/>
				<rect x="69" y="106" fill-rule="evenodd" clip-rule="evenodd" fill="#087F63" width="2.7" height="11"/>
				<rect x="73.3" y="110.1" fill-rule="evenodd" clip-rule="evenodd" fill="#279B7F" width="2.7" height="6.8"/>
				<rect x="77.5" y="112.5" fill-rule="evenodd" clip-rule="evenodd" fill="#3BA48E" width="2.7" height="4.6"/>
				<rect x="81.8" y="110.3" fill-rule="evenodd" clip-rule="evenodd" fill="#53BEA9" width="2.7" height="6.6"/>
				<rect x="87" y="112.2" fill-rule="evenodd" clip-rule="evenodd" fill="#6AD9C3" width="2.7" height="4.8"/>
				<rect x="95" y="117" fill-rule="evenodd" clip-rule="evenodd" fill="#FFFFFF" width="1.9" height="0.5"/>
				<rect x="97.7" y="117" fill-rule="evenodd" clip-rule="evenodd" fill="#FFFFFF" width="5.5" height="0.5"/>
			</g>
			<rect x="69" y="120.8" fill-rule="evenodd" clip-rule="evenodd" fill="#FFFFFF" width="15.9" height="1.1"/>
			<rect x="69" y="123.3" fill-rule="evenodd" clip-rule="evenodd" fill="#FFFFFF" width="15.9" height="1.1"/>
			<rect x="69" y="126" fill-rule="evenodd" clip-rule="evenodd" fill="#FFFFFF" width="15.9" height="1.1"/>
			<rect x="69" y="128.6" fill-rule="evenodd" clip-rule="evenodd" fill="#FFFFFF" width="15.9" height="1.1"/>
			<rect x="69" y="131.1" fill-rule="evenodd" clip-rule="evenodd" fill="#FFFFFF" width="15.9" height="1.1"/>
			<rect x="69" y="133.8" fill-rule="evenodd" clip-rule="evenodd" fill="#FFFFFF" width="8" height="1.1"/>
			<rect x="69" y="87.1" fill-rule="evenodd" clip-rule="evenodd" fill="#FFFFFF" width="37.2" height="1.1"/>
			<rect x="69" y="89.9" fill-rule="evenodd" clip-rule="evenodd" fill="#FFFFFF" width="37.2" height="1.1"/>
			<rect x="69" y="92.6" fill-rule="evenodd" clip-rule="evenodd" fill="#FFFFFF" width="37.2" height="1.1"/>
			<rect x="69" y="95.4" fill-rule="evenodd" clip-rule="evenodd" fill="#FFFFFF" width="37.2" height="1.1"/>
			<rect x="69" y="98.2" fill-rule="evenodd" clip-rule="evenodd" fill="#FFFFFF" width="37.2" height="1.1"/>
			<rect x="87.9" y="120.8" fill-rule="evenodd" clip-rule="evenodd" fill="#FFFFFF" width="15.9" height="1.1"/>
			<rect x="87.9" y="123.3" fill-rule="evenodd" clip-rule="evenodd" fill="#FFFFFF" width="15.9" height="1.1"/>
			<rect x="87.9" y="126" fill-rule="evenodd" clip-rule="evenodd" fill="#FFFFFF" width="15.9" height="1.1"/>
			<rect x="87.9" y="128.6" fill-rule="evenodd" clip-rule="evenodd" fill="#FFFFFF" width="15.9" height="1.1"/>
			<rect x="87.9" y="131.1" fill-rule="evenodd" clip-rule="evenodd" fill="#FFFFFF" width="15.9" height="1.1"/>
			<rect x="87.9" y="133.8" fill-rule="evenodd" clip-rule="evenodd" fill="#FFFFFF" width="8" height="1.1"/>
		</g>
		<polygon fill-rule="evenodd" clip-rule="evenodd" fill="#CCCCCC" points="107.6,84.6 100.8,84.6 100.8,77.6 		"/>
	</g>
	
		<ellipse fill-rule="evenodd" clip-rule="evenodd" fill="none" stroke="#00A8C4" stroke-width="1.6254" stroke-miterlimit="10" cx="84.1" cy="106.3" rx="34.3" ry="22.3"/>
	<g>
		<defs>
			<ellipse id="SVGID_1_" cx="84.1" cy="106.3" rx="34.3" ry="22.3"/>
		</defs>
		<clipPath id="SVGID_2_">
			<use xlink:href="#SVGID_1_"  overflow="visible"/>
		</clipPath>
		<g clip-path="url(#SVGID_2_)">
			<g>
				
					<polygon fill-rule="evenodd" clip-rule="evenodd" fill="#E5E5E5" stroke="#B2B2B2" stroke-width="2.6413" stroke-miterlimit="10" points="
					47.4,52.7 109,52.7 120.8,64.7 120.8,156.5 47.4,156.5 				"/>
				<rect x="66.3" y="63.8" fill-rule="evenodd" clip-rule="evenodd" fill="#FFFFFF" width="35.6" height="1.8"/>
				<rect x="54.2" y="94" fill-rule="evenodd" clip-rule="evenodd" fill="#FFFFFF" width="30" height="1.8"/>
				<g>
					<circle fill-rule="evenodd" clip-rule="evenodd" fill="#087F63" cx="106.3" cy="111.6" r="7.8"/>
					<path fill-rule="evenodd" clip-rule="evenodd" fill="#6AD9C3" d="M102,118.1c-1.1-0.7-2-1.8-2.6-2.9l6.9-3.5L102,118.1z"/>
					<path fill-rule="evenodd" clip-rule="evenodd" fill="#53BEA9" d="M99.4,115.2c-0.5-1.1-0.9-2.3-0.9-3.5c0-2.5,1.2-4.7,3-6.1
						l4.8,6.1L99.4,115.2z"/>
					<path fill-rule="evenodd" clip-rule="evenodd" fill="#3BA48E" d="M101.5,105.5c1.3-1,3-1.7,4.8-1.7v7.8L101.5,105.5z"/>
					<path fill-rule="evenodd" clip-rule="evenodd" fill="#248974" d="M106.3,103.9v7.8l5.5-5.5
						C110.4,104.8,108.5,103.9,106.3,103.9z"/>
				</g>
				<g>
					<rect x="54.2" y="120.7" fill-rule="evenodd" clip-rule="evenodd" fill="#FFFFFF" width="35.7" height="0.9"/>
					<rect x="54.2" y="101.7" fill-rule="evenodd" clip-rule="evenodd" fill="#087F63" width="4.6" height="19"/>
					<rect x="61.5" y="108.9" fill-rule="evenodd" clip-rule="evenodd" fill="#279B7F" width="4.6" height="11.8"/>
					<rect x="68.8" y="112.9" fill-rule="evenodd" clip-rule="evenodd" fill="#3BA48E" width="4.6" height="7.9"/>
					<rect x="76.2" y="109.2" fill-rule="evenodd" clip-rule="evenodd" fill="#53BEA9" width="4.6" height="11.5"/>
					<rect x="85.2" y="112.5" fill-rule="evenodd" clip-rule="evenodd" fill="#6AD9C3" width="4.6" height="8.3"/>
					<rect x="99" y="120.7" fill-rule="evenodd" clip-rule="evenodd" fill="#FFFFFF" width="3.2" height="0.9"/>
					<rect x="103.7" y="120.7" fill-rule="evenodd" clip-rule="evenodd" fill="#FFFFFF" width="9.5" height="0.9"/>
				</g>
				<rect x="54.2" y="127.2" fill-rule="evenodd" clip-rule="evenodd" fill="#FFFFFF" width="27.5" height="1.8"/>
				<rect x="54.2" y="131.6" fill-rule="evenodd" clip-rule="evenodd" fill="#FFFFFF" width="27.5" height="1.8"/>
				<rect x="54.2" y="136.2" fill-rule="evenodd" clip-rule="evenodd" fill="#FFFFFF" width="27.5" height="1.8"/>
				<rect x="54.2" y="140.7" fill-rule="evenodd" clip-rule="evenodd" fill="#FFFFFF" width="27.5" height="1.8"/>
				<rect x="54.2" y="145.1" fill-rule="evenodd" clip-rule="evenodd" fill="#FFFFFF" width="27.5" height="1.8"/>
				<rect x="54.2" y="149.6" fill-rule="evenodd" clip-rule="evenodd" fill="#FFFFFF" width="13.8" height="1.8"/>
				<rect x="54.2" y="69.2" fill-rule="evenodd" clip-rule="evenodd" fill="#FFFFFF" width="64.1" height="1.8"/>
				<rect x="54.2" y="74" fill-rule="evenodd" clip-rule="evenodd" fill="#FFFFFF" width="64.1" height="1.8"/>
				<rect x="54.2" y="78.7" fill-rule="evenodd" clip-rule="evenodd" fill="#FFFFFF" width="64.1" height="1.8"/>
				<rect x="54.2" y="83.5" fill-rule="evenodd" clip-rule="evenodd" fill="#FFFFFF" width="64.1" height="1.8"/>
				<rect x="54.2" y="88.2" fill-rule="evenodd" clip-rule="evenodd" fill="#FFFFFF" width="64.1" height="1.8"/>
				<rect x="86.7" y="127.2" fill-rule="evenodd" clip-rule="evenodd" fill="#FFFFFF" width="27.5" height="1.8"/>
				<rect x="86.7" y="131.6" fill-rule="evenodd" clip-rule="evenodd" fill="#FFFFFF" width="27.5" height="1.8"/>
				<rect x="86.7" y="136.2" fill-rule="evenodd" clip-rule="evenodd" fill="#FFFFFF" width="27.5" height="1.8"/>
				<rect x="86.7" y="140.7" fill-rule="evenodd" clip-rule="evenodd" fill="#FFFFFF" width="27.5" height="1.8"/>
				<rect x="86.7" y="145.1" fill-rule="evenodd" clip-rule="evenodd" fill="#FFFFFF" width="27.5" height="1.8"/>
				<rect x="86.7" y="149.6" fill-rule="evenodd" clip-rule="evenodd" fill="#FFFFFF" width="13.8" height="1.8"/>
			</g>
			<polygon fill-rule="evenodd" clip-rule="evenodd" fill="#CCCCCC" points="120.8,64.7 109,64.7 109,52.7 			"/>
		</g>
	</g>
</g>
</svg>
