<?xml version="1.0" encoding="utf-8"?>
<!-- Generator: Adobe Illustrator 21.0.0, SVG Export Plug-In . SVG Version: 6.00 Build 0)  -->
<svg version="1.1" xmlns="http://www.w3.org/2000/svg" xmlns:xlink="http://www.w3.org/1999/xlink" x="0px" y="0px"
	 viewBox="0 0 100 100" enable-background="new 0 0 100 100" xml:space="preserve">
<g id="BACKGROUND" display="none">
	<rect x="-350" y="-349.8" display="inline" fill="#FFFFFF" width="799.6" height="800"/>
</g>
<g id="OBJECTS">
	<g>
		<defs>
			<path id="SVGID_1_" d="M58.2,98.8H41.8c-22.5,0-40.7-18.2-40.7-40.7V41.8c0-22.5,18.2-40.7,40.7-40.7h16.3
				c22.5,0,40.7,18.2,40.7,40.7v16.3C98.8,80.6,80.6,98.8,58.2,98.8z"/>
		</defs>
		<clipPath id="SVGID_2_">
			<use xlink:href="#SVGID_1_"  overflow="visible"/>
		</clipPath>
		<path clip-path="url(#SVGID_2_)" fill="#FFD655" d="M93.1,20.1l-0.5-1L91,17.6l-2.8-1.3c-0.2-0.8-0.4-1.6-0.8-2.5
			c-0.6-1.5-1.2-2.4-2-3.4L92,1.2h-2.7l-5.3,7.6c-1.4-1.9-3.6-2.4-4.2-2.4c-1-0.1-7.6,0.1-8.3,6.3c-0.2,2.1-0.1,3.9,0.2,5.8
			c0.9,5.5,2.3,6.8,2.3,6.8l-7.6,27.3l-5.2,9.6l-2,2.3L42.4,87l3.5-1l6-8.2l12.1-16l1.3-1.8l2.7-4.8l5.8-20.2l5.4-4.7
			c0,0,1,1.2,3.5,0.4c2.8-1,4.9-4.2,5.1-5.6l0,0l6.6-3.5l4.5,6.8v-7.4L93.1,20.1z M88.4,21.9c0.1-0.9,0.2-1.9,0.1-3l1.6,0.8l0.5,0.9
			L88.4,21.9z"/>
		<polygon clip-path="url(#SVGID_2_)" fill="#E1EAEA" points="5.7,98.9 14.2,87.6 24.6,98.8 		"/>
		<polygon clip-path="url(#SVGID_2_)" fill="#E1EAEA" points="1.2,78.4 6.4,83.2 10.3,84.7 12.3,86.1 3.1,98.8 1.2,98.8 		"/>
		<path clip-path="url(#SVGID_2_)" fill="#E1EAEA" d="M1.2,45.3"/>
		<polygon clip-path="url(#SVGID_2_)" fill="#E1EAEA" points="1.2,45.3 4.3,45.5 4.2,55.9 1.2,55.9 		"/>
		<polygon clip-path="url(#SVGID_2_)" fill="#E1EAEA" points="1.2,57.9 2.9,58 1.2,60.4 		"/>
		<g clip-path="url(#SVGID_2_)">
			<g opacity="5.000000e-02">
				<path d="M92.2,21.3l-0.5-1.1l-3.1-1.9c0,0,0.4,1.6,0.3,2.5c-0.1,0.6-0.5,2.7-0.5,2.7L92.2,21.3z"/>
			</g>
			<g>
				<path fill="#ABD35F" d="M91.8,20.9l-0.5-1.1l-3.1-1.9c0,0,0.4,1.6,0.3,2.5C88.4,21,88,23,88,23L91.8,20.9z"/>
			</g>
		</g>
		<g clip-path="url(#SVGID_2_)">
			<g opacity="5.000000e-02">
				<polygon points="75.6,27.2 77.8,29.7 73.8,33.1 				"/>
			</g>
			<g>
				<polygon fill="#ABD35F" points="75.2,26.8 77.4,29.3 73.4,32.7 				"/>
			</g>
		</g>
		<polygon clip-path="url(#SVGID_2_)" fill="#E1EAEA" points="47.4,28 56.7,25.6 57.9,56.7 48,56.5 		"/>
		<polygon clip-path="url(#SVGID_2_)" fill="#E1EAEA" points="93.1,70.1 95.4,80.1 98.8,79.4 98.8,68.5 		"/>
		<g clip-path="url(#SVGID_2_)">
			<path fill="#ABD35F" d="M7.5,32.2c0,0-0.7,11.1-0.8,13.2c-0.1,2.2-0.2,10.7-0.2,10.7l22.7,0.7l-1.6-24.3L20.3,34L7.5,32.2z"/>
			<g>
				<defs>
					<path id="SVGID_3_" d="M7.5,32.2c0,0-0.7,11.1-0.8,13.2c-0.1,2.2-0.2,10.7-0.2,10.7l22.7,0.7l-1.6-24.3L20.3,34L7.5,32.2z"/>
				</defs>
				<clipPath id="SVGID_4_">
					<use xlink:href="#SVGID_3_"  overflow="visible"/>
				</clipPath>
				<g clip-path="url(#SVGID_4_)">
					<g>
						<path fill="#84827E" d="M17.1,48.4c-2.1,0-3.9-1.8-3.9-3.9c0-2.2,1.7-3.9,3.9-3.9c2.1,0,3.9,1.8,3.9,3.9
							C21,46.6,19.3,48.4,17.1,48.4z M17.1,41.1c-1.8,0-3.3,1.5-3.3,3.3c0,1.8,1.5,3.3,3.3,3.3s3.3-1.5,3.3-3.3
							C20.4,42.6,19,41.1,17.1,41.1z"/>
					</g>
					<line fill="none" stroke="#84827E" stroke-width="0.6104" stroke-miterlimit="10" x1="17.3" y1="40.8" x2="17.3" y2="33.4"/>
					<g>
						<polygon fill="#84827E" points="20,42 19.5,41.6 25.8,35.3 27.7,33.9 28.1,34.4 26.2,35.8 						"/>
					</g>
					<g>
						
							<rect x="24.4" y="40.5" transform="matrix(1.292256e-02 -0.9999 0.9999 1.292256e-02 -20.1329 68.577)" fill="#84827E" width="0.6" height="7.9"/>
					</g>
					<g>
						
							<rect x="10.6" y="31.6" transform="matrix(0.7434 -0.6688 0.6688 0.7434 -22.1737 16.8363)" fill="#84827E" width="0.6" height="11.5"/>
					</g>
					<g>
						
							<rect x="6.4" y="44.2" transform="matrix(1 -9.959506e-03 9.959506e-03 1 -0.4424 0.1016)" fill="#84827E" width="7.1" height="0.6"/>
					</g>
					<g>
						<polygon fill="#84827E" points="6.6,56.3 6.1,55.9 8.7,52.7 14.6,47 15,47.4 9.2,53.1 						"/>
					</g>
					<g>
						
							<rect x="13" y="52" transform="matrix(1.408142e-02 -0.9999 0.9999 1.408142e-02 -35.3066 68.8929)" fill="#84827E" width="8.6" height="0.6"/>
					</g>
					<g>
						<path fill="#84827E" d="M28.3,55.6c-0.4,0-0.9,0-1.2-0.2c-1-0.5-7-7.3-7.7-8l0.5-0.4c2.6,3,6.8,7.6,7.5,7.9
							c0.4,0.2,1.5,0.2,2,0.1l0.1,0.6C29.4,55.5,28.9,55.6,28.3,55.6z"/>
					</g>
				</g>
			</g>
		</g>
		<g clip-path="url(#SVGID_2_)">
			<polygon fill="#E1EAEA" points="1.2,28.9 5.5,29.6 9.5,1.2 1.2,1.2 			"/>
			<polygon fill="#D2D8D8" points="2.2,15 7,15.4 7.8,8.5 3.1,8.1 			"/>
			<polygon fill="#D2D8D8" points="3.1,7.8 7.8,8.1 8.3,4.3 3.6,3.8 			"/>
			<polygon fill="#D2D8D8" points="3.6,3.5 8.3,4 8.7,1.2 3.9,1.2 			"/>
			<polygon fill="#D2D8D8" points="3.7,1.2 3.2,5.4 1.2,5.1 1.2,1.2 			"/>
			<polygon fill="#D2D8D8" points="1.2,5.3 3.1,5.6 1.9,15.6 1.2,15.5 			"/>
			<polygon fill="#D2D8D8" points="1.2,15.6 1.9,15.8 1.6,17.8 1.2,17.7 			"/>
		</g>
		<g clip-path="url(#SVGID_2_)">
			<path fill="#E1EAEA" d="M7.7,29.9l11.4,1.5l3.4-25.4c0,0-3.9-2.4-6.5-4.9h-4.3L7.7,29.9z"/>
			<polygon fill="#D2D8D8" points="13.6,4 17.5,4.4 17.6,2.8 16.1,1.5 13.9,1.4 			"/>
			<polygon fill="#D2D8D8" points="13.6,4.3 17.5,4.7 17.2,8.1 13.3,7.7 			"/>
			<path fill="#D2D8D8" d="M19,5l1.7,0.2c0,0,0.8,0.7,1.3,0.9l-0.9,7.7l-3-0.3L19,5z"/>
			<polygon fill="#D2D8D8" points="13.1,10 17.2,10.5 16.8,14.4 12.7,13.9 			"/>
			<polygon fill="#D2D8D8" points="12.7,14.2 16.7,14.7 16.3,18.9 12.2,18.3 			"/>
			<polygon fill="#D2D8D8" points="17.6,15.6 20.8,16 19.8,23.5 16.6,23 			"/>
			<polygon fill="#D2D8D8" points="11.3,19.9 10.5,26.6 14.4,27.2 15.2,20.5 			"/>
		</g>
		<g clip-path="url(#SVGID_2_)">
			<polygon fill="#E1EAEA" points="1.2,43.2 4.3,43.2 5.3,31.9 1.2,31.2 			"/>
			<polygon fill="#D2D8D8" points="1.2,31.9 4.6,32.1 4.4,36.8 1.2,36.7 			"/>
			<polygon fill="#D2D8D8" points="1.2,37 4.2,37.1 4,41.5 1.2,41.3 			"/>
		</g>
		<g clip-path="url(#SVGID_2_)">
			<path fill="#E1EAEA" d="M37.1,10.5l7.6-9.3H19.8c0,0,3.9,3.2,5.2,3.8S37.1,10.5,37.1,10.5z"/>
			<path fill="#D2D8D8" d="M37.5,9.3c0-0.1,6.6-8.2,6.6-8.2h-6.8l-4.8,6.3L37.5,9.3z"/>
			<polygon fill="#D2D8D8" points="30.6,6.8 34.5,1.2 21.4,1.2 23.7,2.9 			"/>
		</g>
		<g clip-path="url(#SVGID_2_)">
			<path fill="#E1EAEA" d="M39.5,11.2c0,0,8.1,2.7,9.1,3.7L59.5,1.2H47.1L39.5,11.2z"/>
			<polygon fill="#D2D8D8" points="41.1,10.9 40.7,10.3 47.5,1.2 52.1,1.2 44.4,11.5 			"/>
			<polygon fill="#D2D8D8" points="44.7,11.6 52.4,1.2 55.8,1.2 57.7,2.6 49.9,12.6 48.7,13.2 			"/>
		</g>
		<g clip-path="url(#SVGID_2_)">
			<path fill="#E1EAEA" d="M77,1.2l1.3,5.3c0,0,3.7-0.4,5.7,2.4l5.3-7.6H77z"/>
			<polygon fill="#D2D8D8" points="85.6,6 88.9,1.2 83.2,1.2 81.6,3.3 			"/>
		</g>
		<g clip-path="url(#SVGID_2_)">
			<path fill="#E1EAEA" d="M85.3,10.5L92,1.2h6.8v10.9L91,17.6l-2.9-1.3C88.1,16.3,87.5,12.7,85.3,10.5z"/>
			<polygon fill="#D2D8D8" points="87.6,7.9 89.6,5 92.6,7.3 90.5,10.1 			"/>
			<polygon fill="#D2D8D8" points="90.7,10.3 92.8,7.5 94.1,8.5 94.9,7.9 97.6,12 92.3,15.8 90,14.6 90,12.2 91.4,11.1 			"/>
			<polygon fill="#D2D8D8" points="95.2,7.7 97.8,11.9 98.8,11.2 98.8,7.5 97.7,5.7 			"/>
		</g>
		<g clip-path="url(#SVGID_2_)">
			<polygon fill="#E1EAEA" points="92.7,19.1 98.8,14.3 98.8,20.9 93.1,20.1 			"/>
			<polygon fill="#D2D8D8" points="95.6,17.2 98.8,14.5 98.8,19.7 97.2,19.7 			"/>
		</g>
		<g clip-path="url(#SVGID_2_)">
			<path fill="#E1EAEA" d="M84.6,29.4c0,0,2.7-2.3,3.1-4.4l2-1.2l4.6-2.3l4.5,6.8v11.6L87.1,43L84.6,29.4z"/>
			<path fill="#D2D8D8" d="M85.3,30.2l1,2.4l5.1-2.5l1.3,3.3l-5.5,1.9l0.7,5.8l4.4-0.3l-0.7-4.5l4-0.3l0.9,3.3l2.4-0.2V28.8
				l-4.6-6.9l-4.5,2.3c0,0-0.4,1.4-1,2.3C87.7,28.2,85.3,30.2,85.3,30.2z"/>
		</g>
		<g clip-path="url(#SVGID_2_)">
			<polygon fill="#E1EAEA" points="29.8,32.3 45.1,28.7 45.8,56.5 31.3,56.8 			"/>
			<polygon fill="#D2D8D8" points="32.2,33.4 33.5,31.7 36,31.3 36.5,34.7 36.5,35.7 32.4,35.9 			"/>
			<polygon fill="#D2D8D8" points="36.3,31.3 36.9,35.6 39.4,35.7 39.4,34.7 39.7,34.6 39,30.9 			"/>
			<polygon fill="#D2D8D8" points="39.2,30.8 39.9,34.5 43,34.5 42.1,30.4 			"/>
			<polygon fill="#D2D8D8" points="42.4,30.3 43.3,34.4 45.1,34.4 45,29.7 			"/>
			<polygon fill="#D2D8D8" points="41.8,34.7 46.1,34.6 46.3,41.1 41.7,41.3 			"/>
			<path fill="#D2D8D8" d="M38.4,36l0.1,3.4l-6,0.2c0,0-0.1-3.5,0-3.5C32.6,36.1,38.4,36,38.4,36z"/>
			<polygon fill="#D2D8D8" points="42.5,41.5 46.2,41.4 46.3,47.9 42.7,47.8 			"/>
			<polygon fill="#D2D8D8" points="42.8,48.1 46.3,48.1 46.3,50.4 41.3,50.4 41.3,49.7 42.8,49.6 			"/>
			<polygon fill="#D2D8D8" points="42.7,52 42.7,50.6 45.3,50.5 45.3,51.7 46.4,51.7 46.4,52.7 41.4,52.8 41.3,52 			"/>
			<polygon fill="#D2D8D8" points="42.8,54 42.8,52.9 45.4,52.9 45.5,53.8 46.4,53.8 46.5,55 41.4,55.1 41.4,54 			"/>
			<polygon fill="#D2D8D8" points="38.9,50.5 39.1,55 41.2,55.1 41.1,50.6 			"/>
			<polygon fill="#D2D8D8" points="38.9,53.2 38.9,55.1 33.5,55.2 33.5,53.4 			"/>
			<polygon fill="#D2D8D8" points="38.8,53 38.7,50.2 33.4,50.3 33.5,53.2 			"/>
			<polygon fill="#D2D8D8" points="33.4,50 38.7,50 38.6,48 33.4,48.1 			"/>
			<polygon fill="#D2D8D8" points="33.4,47.9 38.6,47.8 38.5,45.5 33.3,45.6 			"/>
			<polygon fill="#D2D8D8" points="33.3,45.3 38.6,45.2 38.5,42.9 33.2,43 			"/>
			<polygon fill="#D2D8D8" points="33.2,42.7 37.4,42.7 37.3,39.7 33.1,39.7 			"/>
		</g>
		<g clip-path="url(#SVGID_2_)">
			<path fill="#E1EAEA" d="M72.1,20.8c0,0,0.7,3.1,1.8,4.5l-3.5,13.1l-4,14.2l-2.3,4.8l-2.9,4.8l-1-4.2L59,25L72.1,20.8z"/>
			<polygon fill="#D2D8D8" points="62.6,24.5 63.5,27.3 60.1,27.4 60,25.1 			"/>
			<polygon fill="#D2D8D8" points="60.1,27.6 63.5,27.6 63.8,28.4 62.8,28.9 62.7,30.9 63.6,30.9 63.7,32.1 62.6,32.1 62.5,32.4 
				60.2,32.3 			"/>
			<path fill="#D2D8D8" d="M62.9,24.4l1.1,3.8l3.7-0.7l-0.4,1.2l5.4,0.3l0.9-3.4c0,0-0.7-0.4-1.7-3.5L62.9,24.4z"/>
			<polygon fill="#D2D8D8" points="67.1,28.9 72.6,29.2 72.1,31.2 66.4,30.8 			"/>
			<polygon fill="#D2D8D8" points="66.3,31 72,31.4 71.6,33 65.6,32.7 			"/>
			<polygon fill="#D2D8D8" points="65.5,32.9 71.5,33.2 71,34.6 64.9,34.2 			"/>
			<polygon fill="#D2D8D8" points="64.9,34.5 70.9,34.8 70.5,36.3 64.7,35.9 			"/>
			<polygon fill="#D2D8D8" points="64.6,36.2 70.4,36.5 70.2,38.3 64.6,37.9 			"/>
			<polygon fill="#D2D8D8" points="64.6,38.1 70.1,38.4 69.5,40.3 64.4,40.2 			"/>
			<polygon fill="#D2D8D8" points="63.3,40.5 69.5,40.5 68.5,44 63.5,43.5 			"/>
			<polygon fill="#D2D8D8" points="63.5,43.7 68.4,44.2 67.3,48.1 63.8,47.9 			"/>
			<polygon fill="#D2D8D8" points="63.8,48.2 67.2,48.3 65.9,52.6 64.1,52.3 			"/>
			<polygon fill="#D2D8D8" points="60.4,51.8 66,52.8 65.6,53.6 64.8,55.3 60.4,54.6 			"/>
			<polygon fill="#D2D8D8" points="60.4,51.5 63.6,52.1 63.1,46.6 60.2,46.8 			"/>
			<polygon fill="#D2D8D8" points="60.2,46.6 63.1,46.4 62.9,43.2 60,43.3 			"/>
			<polygon fill="#D2D8D8" points="60.3,40.2 62.9,40 62.7,36.2 60.2,36.2 			"/>
			<polygon fill="#D2D8D8" points="60.3,36 62.7,35.9 62.5,32.6 60.2,32.5 			"/>
		</g>
		<g clip-path="url(#SVGID_2_)">
			<path fill="#E1EAEA" d="M82.6,30.6L86,51.3l2,6.7l-19.1,4.5L65.3,60l2.7-5.1l5.7-20l5.4-4.7C79.1,30.2,80.9,31.1,82.6,30.6z"/>
			<path fill="#D2D8D8" d="M73.8,41.3c0,0,7.6-1.6,7.6-1.7c0-0.1-0.6-4-0.6-4l1.7-0.3l-0.6-3.5c0,0-1.6,0.2-2.5-0.2l-4.3,3.3
				L73,40.8L73.8,41.3z"/>
			<polygon fill="#D2D8D8" points="78.5,40.5 83,39.5 83.9,43.3 79.3,44.4 			"/>
			<polygon fill="#D2D8D8" points="78.4,44.8 84.4,43.5 85.1,48.1 79.5,49.4 			"/>
			<polygon fill="#D2D8D8" points="79.5,49.7 85.2,48.5 85.5,50 79.8,51.2 			"/>
			<polygon fill="#D2D8D8" points="79.6,51.5 85.5,50.2 85.6,51.3 86.5,54.4 80.5,55.8 			"/>
			<path fill="#D2D8D8" d="M80.6,56.1l5.9-1.4c0,0,0.8,3.3,0.8,3.2s-5.9,1.4-5.9,1.4L80.6,56.1z"/>
			<polygon fill="#D2D8D8" points="75.4,55.9 75.3,54.4 77.4,54 77,51.9 79.4,51.3 77.6,43.3 72.7,43.7 68.2,56.1 69.4,61.8 
				81.1,59.4 80.1,54.9 			"/>
		</g>
		<polygon clip-path="url(#SVGID_2_)" fill="#D2D8D8" points="53.3,48.7 57.9,48.5 57.9,49 53.4,52.2 		"/>
		<polygon clip-path="url(#SVGID_2_)" fill="#D2D8D8" points="53.6,48.3 58.1,48.3 58,43.3 53.4,43.4 		"/>
		<polygon clip-path="url(#SVGID_2_)" fill="#D2D8D8" points="53.4,43.2 58,43.1 57.9,39.4 53.3,39.7 		"/>
		<polygon clip-path="url(#SVGID_2_)" fill="#D2D8D8" points="54.6,39.4 57.9,39.3 57.6,32.6 54.3,32.6 		"/>
		<polygon clip-path="url(#SVGID_2_)" fill="#D2D8D8" points="48.3,32.5 57.6,32.4 57.4,29.7 53,29.9 52.9,27.9 48.2,28 		"/>
		<polygon clip-path="url(#SVGID_2_)" fill="#D2D8D8" points="52.6,26 53,27.2 55.1,26.6 54.8,25.4 		"/>
		<polygon clip-path="url(#SVGID_2_)" fill="#D2D8D8" points="48.4,32.7 53.3,32.6 53.4,36.2 48.4,36.4 		"/>
		<polygon clip-path="url(#SVGID_2_)" fill="#D2D8D8" points="52.4,41.6 52.4,39.7 53.1,39.7 53.2,43.3 48.6,43.3 48.6,41.8 		"/>
		<polygon clip-path="url(#SVGID_2_)" fill="#D2D8D8" points="48.6,43.5 53.1,43.4 53.3,48.4 48.8,48.5 		"/>
		<g clip-path="url(#SVGID_2_)">
			<polygon fill="#ABD35F" points="87.4,45 88.3,51.1 90.1,57.4 98.8,55.5 98.8,42.2 			"/>
			<polygon fill="#E1EAEA" points="95.9,43.4 97.2,48.3 98.8,47.9 98.8,42.6 			"/>
			<polygon fill="#E1EAEA" points="97.8,50.8 98.8,50.5 98.8,55.5 			"/>
			<polygon fill="#E1EAEA" points="98,52.7 98.6,55.4 95.4,56.2 95.2,55.1 97,54.7 96.7,53 			"/>
			<polygon fill="#E1EAEA" points="94.9,54.4 95.3,56.2 91.4,57.1 91.1,56.1 92.4,55.8 91.8,53.1 93.8,52.7 94.3,54.6 			"/>
		</g>
		<g clip-path="url(#SVGID_2_)">
			<polygon fill="#E1EAEA" points="88.6,60.3 90.3,68.3 72.4,73 70.2,64.3 			"/>
			<polygon fill="#D2D8D8" points="79.8,61.9 87.6,60.3 89.3,68.2 81.8,70.2 			"/>
			<polygon fill="#D2D8D8" points="70.4,63.8 71.7,68.7 75.5,67.7 74.4,62.9 			"/>
			<polygon fill="#D2D8D8" points="71.8,69 77.3,67.6 78.2,71.1 72.6,72.6 			"/>
		</g>
		<g clip-path="url(#SVGID_2_)">
			<polygon fill="#E1EAEA" points="51.9,77.8 64,61.8 68.4,64.5 70.2,73.2 			"/>
			<polygon fill="#D2D8D8" points="63.6,65.4 68.1,64.6 69.1,69.3 65,70.4 			"/>
			<polygon fill="#D2D8D8" points="63.4,65.4 63.1,65.4 61.2,69 61.9,72.1 65,71.3 			"/>
			<polygon fill="#D2D8D8" points="65.1,70.6 65.3,71.5 67.1,71.2 67.3,72.2 66.6,72.4 66.9,73.6 69.9,73 69,69.5 			"/>
			<polygon fill="#D2D8D8" points="62.1,73 64.4,72.4 64.9,74.2 62.6,74.8 			"/>
			<polygon fill="#D2D8D8" points="62.4,74.9 61,69.2 57.3,75.3 57.5,76.2 			"/>
		</g>
		<g clip-path="url(#SVGID_2_)">
			<polygon fill="#E1EAEA" points="15.5,85.9 28,98.8 33.8,98.8 37.4,93.5 21.9,77.3 			"/>
			<polygon fill="#D2D8D8" points="20.5,81.5 22.8,78.7 25.9,82 23.1,84.5 			"/>
			<polygon fill="#D2D8D8" points="20.3,81.7 23.6,85.5 20.3,88.5 17.3,85.3 			"/>
			<polygon fill="#D2D8D8" points="24.8,86.4 26.3,85.3 27.4,86.4 28.9,85.1 26.1,82.2 23.4,84.6 			"/>
			<polygon fill="#D2D8D8" points="26.9,87.2 29,85.2 30.6,86.8 28.4,88.7 			"/>
			<polygon fill="#D2D8D8" points="28.5,88.9 30.7,87 32,88.4 29.8,90.4 			"/>
			<polygon fill="#D2D8D8" points="29.4,91.2 32.2,88.5 33.6,90 30.5,92.6 			"/>
			<polygon fill="#D2D8D8" points="30.7,92.8 33.8,90.2 36.2,92.7 36.3,93.8 32.2,98.6 29.2,98.6 27.5,96.8 31.3,93.5 			"/>
		</g>
		<g clip-path="url(#SVGID_2_)">
			<polygon fill="#E1EAEA" points="90.7,59.7 98.8,57.8 98.8,66.5 92.5,67.8 			"/>
			<polygon fill="#D2D8D8" points="91.9,59.6 96.6,58.5 97.1,60.7 92.4,61.8 			"/>
			<polygon fill="#D2D8D8" points="93.4,61.9 97.4,60.9 97.8,62.3 98.8,62.1 98.8,66.2 94.5,67.1 			"/>
		</g>
		<g clip-path="url(#SVGID_2_)">
			<path fill="#E1EAEA" d="M70.9,74.9l2.3,10.8l-10.9,2.4c0,0-3.1,0.9-5.3,4c-2.3,3.1-6.4,6.7-6.4,6.7H36.4l13.4-18.3L70.9,74.9z"/>
			<polygon fill="#D2D8D8" points="70.7,75.1 71.7,80.2 68.6,80.9 67.6,76 			"/>
			<polygon fill="#D2D8D8" points="67.4,76 68.4,81 64.9,81.8 63.6,77.1 			"/>
			<polygon fill="#D2D8D8" points="63.4,77.1 64.4,81.2 61.9,81.8 60.9,77.8 			"/>
			<polygon fill="#D2D8D8" points="60.7,77.8 61.7,81.9 60.9,82.1 59.9,78.1 			"/>
			<polygon fill="#D2D8D8" points="59.7,78.1 60.7,82.1 59.7,82.4 58.7,78.3 			"/>
			<polygon fill="#D2D8D8" points="58.5,78.4 59.6,82.5 58.2,82.9 58,81.9 57.3,81.6 57.7,80.7 57.1,78.8 			"/>
			<polygon fill="#D2D8D8" points="56.8,78.9 57.4,80.7 57,81.6 57.5,82 56.7,82.8 53.8,80.8 55,79.3 			"/>
			<polygon fill="#D2D8D8" points="53.6,81 56.5,82.9 54.3,85.3 51.9,83.4 			"/>
		</g>
		<g clip-path="url(#SVGID_2_)">
			<polygon fill="#E1EAEA" points="72.8,74.7 75.5,85.3 93.3,80.8 90.8,70.7 			"/>
			<path fill="#D2D8D8" d="M85.3,72.2l4.6-1.1c0,0,1,4.7,1,4.7c0-0.1-4.7,1-4.7,1L85.3,72.2z"/>
			<polygon fill="#D2D8D8" points="82.2,77.7 80.9,73.1 76.9,74.1 78.2,78.8 			"/>
			<path fill="#D2D8D8" d="M76.7,74l0.7,2.7c0,0-3.6,1.1-3.6,1s-0.7-2.8-0.7-2.8L76.7,74z"/>
			<polygon fill="#D2D8D8" points="73.9,78 77.5,77 78.7,81.4 75.1,82.5 			"/>
			<polygon fill="#D2D8D8" points="86.4,77.2 91,76.2 91.9,80.6 87.4,81.8 			"/>
			<polygon fill="#D2D8D8" points="79.1,81.7 79.6,83.7 75.6,84.7 75.1,82.8 			"/>
		</g>
		<g clip-path="url(#SVGID_2_)">
			<g>
				<g opacity="5.000000e-02">
					<path d="M78,9.5c1.3-0.4,4.3-0.6,6.5,3.5c2.3,4.1,2.3,4.8,2.4,7.1c0.1,2.3-0.5,4.9-1.8,6.8c-1.3,2-2.8,2.1-4.7,1.6
						s-4.2-3.8-5.1-6s-1.2-7-1-8.7C74.4,12.1,75.6,10.2,78,9.5z"/>
				</g>
				<g>
					<path fill="#ABD35F" d="M77.3,8.9c1.3-0.4,4.3-0.6,6.5,3.5c2.3,4.1,2.3,4.8,2.4,7.1c0.1,2.3-0.5,4.9-1.8,6.8s-2.8,2.1-4.7,1.6
						c-1.9-0.5-4.2-3.8-5.1-6c-0.9-2.2-1.2-7-1-8.7S75,9.6,77.3,8.9z"/>
				</g>
			</g>
			<path fill="#3ECECE" d="M79.9,17.7c1.8-0.5,3.1,0.6,3.5,2.2c0.4,1.5,0.3,3.4-0.8,4.6c-1.1,1.2-2.5,1.1-3.8-0.4
				C77.4,22.7,77,18.5,79.9,17.7z"/>
		</g>
		<g clip-path="url(#SVGID_2_)">
			<g>
				<path fill="#E1EAEA" d="M50.4,16.4c0,0,3.9,4.2,5.4,7l15.9-4.9c0,0-0.9-4.5,0.3-7.6s4.2-3.9,4.2-3.9l-1.3-5.7H62.1L50.4,16.4z"
					/>
				<polygon fill="#D2D8D8" points="59.6,5.6 62.2,2.2 67.3,5.9 64.8,9.2 				"/>
				<polygon fill="#D2D8D8" points="67.6,5.9 69.9,2.7 73.6,5.2 71.1,8.6 				"/>
				<polygon fill="#D2D8D8" points="67.3,4.5 69,2.3 67.3,1.2 65.4,1.2 64.5,2.7 				"/>
				<polygon fill="#D2D8D8" points="57.5,14.2 58.9,15.8 60.5,14.6 62.1,16.6 65.1,14.5 62.5,11.1 59.6,13.4 59.2,12.8 				"/>
				<polygon fill="#D2D8D8" points="64.6,12.1 66.1,10.2 67.4,11.1 68.2,10.2 71.2,12.5 68.9,15.4 				"/>
			</g>
			<circle fill="#ABD35F" cx="52.6" cy="16.5" r="0.7"/>
			<circle fill="#ABD35F" cx="54.5" cy="13.8" r="0.7"/>
			<circle fill="#ABD35F" cx="56.4" cy="11.4" r="0.7"/>
			<circle fill="#ABD35F" cx="58.4" cy="8.8" r="0.7"/>
			<circle fill="#ABD35F" cx="54.3" cy="18.7" r="0.7"/>
			<circle fill="#ABD35F" cx="56.1" cy="21.1" r="0.7"/>
			<circle fill="#ABD35F" cx="59.4" cy="20.2" r="0.7"/>
			<circle fill="#ABD35F" cx="62.6" cy="19.2" r="0.7"/>
			<circle fill="#ABD35F" cx="65.8" cy="18.2" r="0.7"/>
			<circle fill="#ABD35F" cx="69.2" cy="17.3" r="0.7"/>
		</g>
		<g clip-path="url(#SVGID_2_)">
			<g>
				<polygon fill="#E1EAEA" points="31.2,59 28.4,67.6 23.3,75.2 30.5,82.8 49.1,58.7 				"/>
				<polygon fill="#D2D8D8" points="24.9,74.7 31.1,81.1 37.7,72.1 34.2,69.6 33.3,70.8 30.1,68.5 				"/>
				<polygon fill="#D2D8D8" points="34.3,69.4 35.6,67.8 39,70.3 37.8,72 				"/>
				<polygon fill="#D2D8D8" points="35.7,67.6 36.9,66.2 40.2,68.7 39,70.2 				"/>
				<polygon fill="#D2D8D8" points="37,66.1 38.1,64.6 41.4,67 40.3,68.5 				"/>
				<polygon fill="#D2D8D8" points="38.2,64.5 39.5,62.8 42.8,65.2 41.5,66.9 				"/>
				<path fill="#D2D8D8" d="M39.6,62.7c0,0,1.3-1.6,1.3-1.6l3.2,2.3l-1.2,1.7L39.6,62.7z"/>
				<polygon fill="#D2D8D8" points="41,61 42,59.7 45.1,62 44.1,63.3 				"/>
				<polygon fill="#D2D8D8" points="42.2,59.6 42.8,58.9 45.4,58.9 45.8,61 45.2,61.8 				"/>
				<polygon fill="#D2D8D8" points="33.1,59.6 32.7,62.9 34.6,63.1 35.2,59.5 				"/>
			</g>
			<circle fill="#ABD35F" cx="31.6" cy="64.2" r="0.7"/>
			<circle fill="#ABD35F" cx="34.5" cy="64.8" r="0.7"/>
			<circle fill="#ABD35F" cx="32.8" cy="68.2" r="0.7"/>
		</g>
		<g clip-path="url(#SVGID_2_)">
			<polygon fill="#E1EAEA" points="7.8,58.4 28.9,59 26.5,66.5 21.7,73.7 			"/>
			<polygon fill="#D2D8D8" points="23.1,59 26.9,59.1 27.8,60 26.9,63.9 21.9,62.7 			"/>
			<circle fill="#ABD35F" cx="25.1" cy="65.6" r="0.7"/>
			<circle fill="#ABD35F" cx="23.5" cy="68.3" r="0.7"/>
			<circle fill="#ABD35F" cx="21.9" cy="70.7" r="0.7"/>
			<circle fill="#ABD35F" cx="19.4" cy="68.6" r="0.7"/>
			<circle fill="#ABD35F" cx="17.3" cy="66.5" r="0.7"/>
			<circle fill="#ABD35F" cx="15.1" cy="64.3" r="0.7"/>
			<circle fill="#ABD35F" cx="13" cy="62.1" r="0.7"/>
			<circle fill="#ABD35F" cx="11" cy="60" r="0.7"/>
		</g>
		<g clip-path="url(#SVGID_2_)">
			<g>
				<path fill="#E1EAEA" d="M24.6,7.4c0,0,6.7,3.6,11.4,5.2s10.9,3.3,12.5,5.2s4.7,6.2,4.7,6.2s-23.3,7-31.7,7.6L24.6,7.4z"/>
				<polygon fill="#D2D8D8" points="25.7,17.8 25,24.3 27.8,27.5 35.1,25.9 33.7,21.1 31.6,21.7 32.3,24.2 31.4,24.5 27.7,21.1 
					28.1,20.2 30.6,20.3 30.6,18.4 				"/>
				<polygon fill="#D2D8D8" points="25.6,15.5 28.8,15.8 29.4,10 26.2,9.7 				"/>
				<polygon fill="#D2D8D8" points="30.8,11.7 30.2,16 34.1,16.6 34.9,12.5 				"/>
			</g>
			<circle fill="#ABD35F" cx="37.1" cy="14.5" r="0.7"/>
			<circle fill="#ABD35F" cx="39.9" cy="15.5" r="0.7"/>
			<circle fill="#ABD35F" cx="42.9" cy="16.5" r="0.7"/>
			<circle fill="#ABD35F" cx="46.2" cy="18.1" r="0.7"/>
			<circle fill="#ABD35F" cx="48.7" cy="20.5" r="0.7"/>
			<circle fill="#ABD35F" cx="50.7" cy="23" r="0.7"/>
			<circle fill="#ABD35F" cx="47.5" cy="24" r="0.7"/>
			<circle fill="#ABD35F" cx="44.7" cy="24.8" r="0.7"/>
			<circle fill="#ABD35F" cx="41.4" cy="25.6" r="0.7"/>
			<circle fill="#ABD35F" cx="38.1" cy="26.5" r="0.7"/>
		</g>
		<g clip-path="url(#SVGID_2_)">
			<polygon fill="#E1EAEA" points="13.9,84.1 20.3,75.5 5.1,59 1.2,64 1.2,75.4 8.4,81.7 11.6,82.5 			"/>
			<path fill="#D2D8D8" d="M6.6,59.5L3.2,62l-2,2.7v2.9L2,66.4l1.6,0.9l0,1.2l1,0.4l-0.1,0.9l1.1,0.3l-0.5,2.6L7.3,73l1-5.9l0-1.4
				l-0.7-0.6l0.5-0.5L8.6,65l3.6,4l1.8-1.3L6.6,59.5z M6.7,65.3l-3.2-0.6l2-2.8L7,63.2L6.7,65.3z"/>
			<circle fill="#ABD35F" cx="3.1" cy="74.7" r="0.7"/>
			<circle fill="#ABD35F" cx="5.4" cy="76.7" r="0.7"/>
			<circle fill="#ABD35F" cx="8.2" cy="79.2" r="0.7"/>
			<circle fill="#ABD35F" cx="11.3" cy="80.6" r="0.7"/>
			<circle fill="#ABD35F" cx="8.9" cy="74.7" r="0.7"/>
			<circle fill="#ABD35F" cx="11.1" cy="76.6" r="0.7"/>
			<circle fill="#ABD35F" cx="13.1" cy="78.6" r="0.7"/>
			<circle fill="#ABD35F" cx="14" cy="70" r="0.7"/>
			<circle fill="#ABD35F" cx="16.2" cy="71.9" r="0.7"/>
			<circle fill="#ABD35F" cx="18" cy="73.6" r="0.7"/>
			<g>
				<g>
					<path fill="none" stroke="#1D1D1B" stroke-width="6.104167e-02" stroke-linecap="round" stroke-linejoin="round" d="M14.4,72.7
						"/>
				</g>
				<g>
					<polygon fill="#FFC1AB" points="14.4,72.7 11.8,70.4 9.3,73.2 11.8,75.5 14.4,77.8 16.9,74.9 					"/>
				</g>
				<g>
					<path fill="none" stroke="#1D1D1B" stroke-width="6.104167e-02" stroke-linecap="round" stroke-linejoin="round" d="M11.8,75.5
						"/>
				</g>
				<g>
					<path fill="#898989" d="M11.8,75.5C11.8,75.5,11.8,75.5,11.8,75.5C11.8,75.5,11.8,75.5,11.8,75.5l2.5-2.9c0,0,0,0,0,0
						c0,0,0,0,0,0L11.8,75.5C11.8,75.5,11.8,75.5,11.8,75.5z"/>
				</g>
				<g>
					<path fill="#898989" d="M13.3,74.5c-0.2,0.1-0.5,0-0.6-0.3c-0.1-0.3,0-0.6,0.2-0.7c0.3-0.1,0.6,0,0.7,0.2
						c0.1,0.1,0.1,0.3,0,0.4C13.5,74.4,13.4,74.5,13.3,74.5C13.3,74.5,13.3,74.5,13.3,74.5z M12.9,73.6
						C12.9,73.6,12.9,73.6,12.9,73.6c-0.3,0.1-0.4,0.4-0.2,0.6c0.1,0.2,0.4,0.3,0.6,0.2c0.1-0.1,0.2-0.1,0.2-0.3c0-0.1,0-0.2,0-0.3
						C13.4,73.7,13.2,73.5,12.9,73.6z"/>
				</g>
				<g>
					<path fill="#898989" d="M10.8,73c-0.1,0-0.2,0.1-0.4,0.1c-0.3,0-0.6-0.1-0.8-0.3c0,0,0,0,0,0c0,0,0,0,0,0
						c0.2,0.2,0.5,0.3,0.8,0.3c0.3,0,0.6-0.1,0.8-0.4l0.2-0.3c0.4-0.5,0.4-1.2-0.1-1.6c0,0,0,0,0,0c0,0,0,0,0,0
						c0.5,0.4,0.5,1.1,0.1,1.6l-0.2,0.3C11.2,72.8,11,72.9,10.8,73z"/>
				</g>
				<g>
					<path fill="#898989" d="M14.8,77.3C14.8,77.3,14.8,77.3,14.8,77.3c-0.5-0.4-0.5-1.1-0.1-1.6l0.2-0.3c0.2-0.2,0.5-0.4,0.8-0.4
						c0.3,0,0.6,0.1,0.8,0.3c0,0,0,0,0,0c0,0,0,0,0,0c-0.2-0.2-0.5-0.3-0.8-0.3c-0.3,0-0.6,0.2-0.8,0.4l-0.2,0.3
						C14.3,76.2,14.4,76.9,14.8,77.3C14.8,77.3,14.8,77.3,14.8,77.3C14.8,77.3,14.8,77.3,14.8,77.3z"/>
				</g>
			</g>
		</g>
		<g clip-path="url(#SVGID_2_)">
			<g>
				<polygon fill="#E1EAEA" points="51.8,58.8 58.1,58.8 59.2,64.5 38.9,91.8 32,84.5 				"/>
				<polygon fill="#D2D8D8" points="38,77.1 40.6,74.1 44.4,75.5 43.1,77.3 42.5,77 40.9,79.2 				"/>
				<polygon fill="#D2D8D8" points="35.5,80.3 37.9,77.3 40.7,79.5 38.5,82.8 				"/>
				<polygon fill="#D2D8D8" points="38.4,83.9 41.3,79.8 44.8,82.6 41.8,86.5 				"/>
				<polygon fill="#D2D8D8" points="36.3,86.7 38.6,83.1 35.3,80.5 33.6,82.9 33.5,84.5 				"/>
				<polygon fill="#D2D8D8" points="41.7,79.7 45.4,75.1 48.7,77.7 44.9,82 				"/>
			</g>
			<circle fill="#ABD35F" cx="52.5" cy="60.4" r="0.7"/>
			<circle fill="#ABD35F" cx="56.1" cy="60.2" r="0.7"/>
			<circle fill="#ABD35F" cx="50.4" cy="62.8" r="0.7"/>
			<circle fill="#ABD35F" cx="48.5" cy="65.3" r="0.7"/>
			<circle fill="#ABD35F" cx="46.7" cy="67.7" r="0.7"/>
			<circle fill="#ABD35F" cx="44.6" cy="70.3" r="0.7"/>
			<circle fill="#ABD35F" cx="42.7" cy="72.9" r="0.7"/>
			<polygon fill="#ABD35F" points="45.6,73.3 53.9,62.6 56.9,62.4 57.4,64.3 49.1,75.6 			"/>
		</g>
		<g clip-path="url(#SVGID_2_)">
			<path fill="#3ECECE" d="M46.4,64.3l-0.8,0.4c-0.1,0-0.1,0.1,0,0.1l0.2,0.1l-1,1.2c0,0.1,0,0.1,0,0.2c0,0,0,0,0.1,0
				c0,0,0.1,0,0.1,0l1-1.3l0.2,0.1c0.1,0,0.1,0,0.1,0L46.4,64.3C46.5,64.3,46.4,64.2,46.4,64.3z"/>
			<path fill="#3ECECE" d="M37.1,76.2l-0.8,0.4c-0.1,0-0.1,0.1,0,0.1l0.2,0.1l-1,1.2c0,0.1,0,0.1,0,0.2c0,0,0,0,0.1,0
				c0,0,0.1,0,0.1,0l1-1.3l0.2,0.1c0.1,0,0.1,0,0.1,0L37.1,76.2C37.2,76.2,37.2,76.2,37.1,76.2z"/>
			<path fill="#3ECECE" d="M26.2,80.1l0.3,0.9c0,0.1,0.1,0.1,0.1,0l0.2-0.2l1.1,1.2c0,0,0.1,0.1,0.2,0c0,0,0,0,0-0.1
				c0,0,0-0.1,0-0.1l-1.1-1.2l0.2-0.2c0,0,0-0.1,0-0.1L26.2,80.1C26.2,80,26.2,80,26.2,80.1z"/>
			<path fill="#3ECECE" d="M39.5,57.7l-0.8-0.3c-0.1,0-0.1,0-0.1,0.1l0,0.2L37,57.8c-0.1,0-0.1,0.1-0.1,0.1c0,0,0,0.1,0,0.1
				c0,0,0.1,0,0.1,0l1.6-0.1l0,0.2c0,0.1,0.1,0.1,0.1,0.1l0.8-0.4C39.6,57.8,39.6,57.8,39.5,57.7z"/>
			<path fill="#3ECECE" d="M55.8,57.3L55,57c-0.1,0-0.1,0-0.1,0.1l0,0.2l-1.6,0.1c-0.1,0-0.1,0.1-0.1,0.1c0,0,0,0.1,0,0.1
				c0,0,0.1,0,0.1,0l1.6-0.1l0,0.2c0,0.1,0.1,0.1,0.1,0.1l0.8-0.4C55.9,57.4,55.9,57.4,55.8,57.3z"/>
			<path fill="#3ECECE" d="M58.8,52.5l0.4-0.8c0-0.1,0-0.1-0.1-0.1l-0.2,0l0-1.6c0-0.1-0.1-0.1-0.1-0.1c0,0-0.1,0-0.1,0
				c0,0,0,0.1,0,0.1l0,1.6l-0.2,0c-0.1,0-0.1,0.1-0.1,0.1l0.4,0.8C58.8,52.5,58.8,52.5,58.8,52.5z"/>
			<path fill="#3ECECE" d="M58.2,28.8l0.4-0.8c0-0.1,0-0.1-0.1-0.1l-0.2,0l0-1.6c0-0.1-0.1-0.1-0.1-0.1c0,0-0.1,0-0.1,0
				c0,0,0,0.1,0,0.1l0,1.6l-0.2,0c-0.1,0-0.1,0.1-0.1,0.1l0.4,0.8C58.1,28.9,58.2,28.9,58.2,28.8z"/>
			<path fill="#3ECECE" d="M42.1,28.4l0.9,0.1c0.1,0,0.1,0,0.1-0.1L43,28.1l1.5-0.5c0.1,0,0.1-0.1,0.1-0.2c0,0,0,0,0-0.1
				c0,0-0.1,0-0.1,0l-1.5,0.5l-0.1-0.2c0-0.1-0.1-0.1-0.1,0L42.1,28.4C42,28.3,42.1,28.4,42.1,28.4z"/>
			<path fill="#3ECECE" d="M61.9,22.9L61,22.7c-0.1,0-0.1,0-0.1,0.1l0.1,0.2l-1.5,0.4c-0.1,0-0.1,0.1-0.1,0.2c0,0,0,0,0,0.1
				c0,0,0.1,0,0.1,0l1.5-0.4l0.1,0.2c0,0.1,0.1,0.1,0.1,0L61.9,22.9C62,22.9,61.9,22.9,61.9,22.9z"/>
			<path fill="#3ECECE" d="M6.3,30.9l-0.8-0.5c-0.1,0-0.1,0-0.1,0.1l0,0.2l-1.6-0.3c-0.1,0-0.1,0-0.1,0.1c0,0,0,0.1,0,0.1
				c0,0,0,0.1,0.1,0.1l1.6,0.3l0,0.2c0,0.1,0,0.1,0.1,0.1L6.3,31C6.4,30.9,6.4,30.9,6.3,30.9z"/>
			<path fill="#3ECECE" d="M7.6,23.2L8,22.4c0-0.1,0-0.1-0.1-0.1l-0.2,0L8,20.7c0-0.1,0-0.1-0.1-0.1c0,0-0.1,0-0.1,0
				c0,0-0.1,0.1-0.1,0.1l-0.2,1.6l-0.2,0c-0.1,0-0.1,0-0.1,0.1l0.3,0.8C7.5,23.2,7.5,23.2,7.6,23.2z"/>
			<path fill="#3ECECE" d="M9.9,6.4l0.5-0.8c0-0.1,0-0.1-0.1-0.1l-0.2,0l0.2-1.6c0-0.1,0-0.1-0.1-0.1c0,0-0.1,0-0.1,0
				c0,0-0.1,0.1-0.1,0.1L9.8,5.5l-0.2,0c-0.1,0-0.1,0-0.1,0.1l0.3,0.8C9.8,6.5,9.8,6.5,9.9,6.4z"/>
			<path fill="#3ECECE" d="M79.7,72.2l0.9,0.1c0.1,0,0.1,0,0.1-0.1L80.6,72l1.5-0.4c0.1,0,0.1-0.1,0.1-0.1c0,0,0,0,0-0.1
				c0,0-0.1,0-0.1,0l-1.5,0.4l-0.1-0.2c0-0.1-0.1-0.1-0.1,0L79.7,72.2C79.6,72.1,79.6,72.2,79.7,72.2z"/>
			<path fill="#3ECECE" d="M80.1,60.9l-0.9-0.2c-0.1,0-0.1,0-0.1,0.1l0.1,0.2l-1.5,0.4c-0.1,0-0.1,0.1-0.1,0.1c0,0,0,0.1,0,0.1
				c0,0,0.1,0,0.1,0l1.5-0.4l0.1,0.2c0,0.1,0.1,0.1,0.1,0L80.1,60.9C80.2,60.9,80.2,60.9,80.1,60.9z"/>
			<path fill="#3ECECE" d="M84.1,33.2l-0.2,0.9c0,0.1,0,0.1,0.1,0.1l0.2,0l0.3,1.6c0,0.1,0.1,0.1,0.1,0.1c0,0,0.1,0,0.1,0
				c0,0,0-0.1,0-0.1l-0.3-1.6l0.2,0c0.1,0,0.1-0.1,0.1-0.1l-0.5-0.7C84.2,33.2,84.2,33.2,84.1,33.2z"/>
			<path fill="#3ECECE" d="M89.3,43.6l0.9,0.1c0.1,0,0.1,0,0.1-0.1l-0.1-0.2l1.5-0.4c0.1,0,0.1-0.1,0.1-0.2c0,0,0,0,0-0.1
				c0,0-0.1,0-0.1,0l-1.5,0.5L90,43c0-0.1-0.1-0.1-0.1,0L89.3,43.6C89.2,43.5,89.2,43.6,89.3,43.6z"/>
			<path fill="#3ECECE" d="M90.3,63.2l-0.2,0.9c0,0.1,0,0.1,0.1,0.1l0.2-0.1l0.4,1.5c0,0.1,0.1,0.1,0.1,0.1c0,0,0.1,0,0.1,0
				c0,0,0-0.1,0-0.1L90.7,64l0.2-0.1c0.1,0,0.1-0.1,0-0.1L90.3,63.2C90.3,63.1,90.3,63.1,90.3,63.2z"/>
		</g>
		<polygon clip-path="url(#SVGID_2_)" fill="#ABD35F" points="98.8,25.2 97.1,22.5 98.8,22.8 		"/>
		<use xlink:href="#SVGID_1_"  overflow="visible" fill="none" stroke="#ABD35F" stroke-width="0.9767" stroke-miterlimit="10"/>
	</g>
	<g>
		<g>
			<g>
				<g>
					<g>
						<path fill="#21A384" d="M27.6,72.5c0.1-0.3,0.1-0.7,0.1-1c0-2.9-2.3-5.2-5.2-5.2s-5.2,2.3-5.2,5.2c0,0.3,0,0.7,0.1,1
							c0.3,2,2.3,3.4,5.1,10.4C25.2,76.2,27.4,74.5,27.6,72.5z"/>
						<path fill="#2BC59A" d="M22.6,66.3c-2.9,0-5.2,2.3-5.2,5.2c0,0.3,0,0.7,0.1,1c0.3,2,2.3,3.4,5.1,10.4"/>
						<circle fill="#2BC59A" cx="22.6" cy="71.5" r="4.3"/>
						<path fill="#21A384" d="M22.6,75.8c-2.4,0-4.3-1.9-4.3-4.3c0-2.4,1.9-4.3,4.3-4.3"/>
						<linearGradient id="SVGID_5_" gradientUnits="userSpaceOnUse" x1="20.0756" y1="74.0163" x2="25.0806" y2="69.0113">
							<stop  offset="0" style="stop-color:#DADADA"/>
							<stop  offset="0.1132" style="stop-color:#E5E5E5"/>
							<stop  offset="0.3315" style="stop-color:#F4F4F4"/>
							<stop  offset="0.5918" style="stop-color:#FCFCFC"/>
							<stop  offset="1" style="stop-color:#FFFFFF"/>
						</linearGradient>
						<circle fill="url(#SVGID_5_)" cx="22.6" cy="71.5" r="3.5"/>
					</g>
					<linearGradient id="SVGID_6_" gradientUnits="userSpaceOnUse" x1="22.5837" y1="83.4025" x2="22.5837" y2="82.4003">
						<stop  offset="0" style="stop-color:#1D1D1B"/>
						<stop  offset="0.9975" style="stop-color:#1D1D1B;stop-opacity:0"/>
					</linearGradient>
					<ellipse opacity="0.1" fill="url(#SVGID_6_)" cx="22.6" cy="82.9" rx="3" ry="0.5"/>
				</g>
			</g>
		</g>
		<g>
			<g>
				<g>
					<g>
						<g>
							<path fill="#DB5856" d="M12.9,17.1c0.1-0.3,0.1-0.7,0.1-1c0-2.9-2.3-5.2-5.2-5.2c-2.9,0-5.2,2.3-5.2,5.2c0,0.3,0,0.7,0.1,1
								c0.3,2,2.3,3.4,5.1,10.4C10.4,20.8,12.6,19.1,12.9,17.1z"/>
							<path fill="#F06060" d="M7.8,10.9c-2.9,0-5.2,2.3-5.2,5.2c0,0.3,0,0.7,0.1,1c0.3,2,2.3,3.4,5.1,10.4"/>
							<circle fill="#F06060" cx="7.8" cy="16.1" r="4.3"/>
							<path fill="#DB5856" d="M7.8,20.4c-2.4,0-4.3-1.9-4.3-4.3s1.9-4.3,4.3-4.3"/>
							<linearGradient id="SVGID_7_" gradientUnits="userSpaceOnUse" x1="5.2892" y1="18.6142" x2="10.2942" y2="13.6092">
								<stop  offset="0" style="stop-color:#DADADA"/>
								<stop  offset="0.1132" style="stop-color:#E5E5E5"/>
								<stop  offset="0.3315" style="stop-color:#F4F4F4"/>
								<stop  offset="0.5918" style="stop-color:#FCFCFC"/>
								<stop  offset="1" style="stop-color:#FFFFFF"/>
							</linearGradient>
							<circle fill="url(#SVGID_7_)" cx="7.8" cy="16.1" r="3.5"/>
						</g>
						<linearGradient id="SVGID_8_" gradientUnits="userSpaceOnUse" x1="7.7972" y1="28.0004" x2="7.7972" y2="26.9982">
							<stop  offset="0" style="stop-color:#1D1D1B"/>
							<stop  offset="0.9975" style="stop-color:#1D1D1B;stop-opacity:0"/>
						</linearGradient>
						<ellipse opacity="0.1" fill="url(#SVGID_8_)" cx="7.8" cy="27.5" rx="3" ry="0.5"/>
					</g>
				</g>
			</g>
		</g>
		<g>
			<g>
				<g>
					<g>
						<g>
							<g>
								<path fill="#EF923F" d="M58.9,38.1c0.1-0.3,0.1-0.7,0.1-1c0-2.9-2.3-5.2-5.2-5.2c-2.9,0-5.2,2.3-5.2,5.2c0,0.3,0,0.7,0.1,1
									c0.3,2,2.3,3.4,5.1,10.4C56.5,41.8,58.7,40.1,58.9,38.1z"/>
								<path fill="#FFAB57" d="M53.9,32c-2.9,0-5.2,2.3-5.2,5.2c0,0.3,0,0.7,0.1,1c0.3,2,2.3,3.4,5.1,10.4"/>
								<circle fill="#FFAB57" cx="53.9" cy="37.1" r="4.3"/>
								<path fill="#EF923F" d="M53.9,41.4c-2.4,0-4.3-1.9-4.3-4.3s1.9-4.3,4.3-4.3"/>
								<linearGradient id="SVGID_9_" gradientUnits="userSpaceOnUse" x1="51.3517" y1="39.6204" x2="56.3567" y2="34.6155">
									<stop  offset="0" style="stop-color:#DADADA"/>
									<stop  offset="0.1132" style="stop-color:#E5E5E5"/>
									<stop  offset="0.3315" style="stop-color:#F4F4F4"/>
									<stop  offset="0.5918" style="stop-color:#FCFCFC"/>
									<stop  offset="1" style="stop-color:#FFFFFF"/>
								</linearGradient>
								<circle fill="url(#SVGID_9_)" cx="53.9" cy="37.1" r="3.5"/>
							</g>
							<linearGradient id="SVGID_10_" gradientUnits="userSpaceOnUse" x1="53.8597" y1="49.0066" x2="53.8597" y2="48.0044">
								<stop  offset="0" style="stop-color:#1D1D1B"/>
								<stop  offset="0.9975" style="stop-color:#1D1D1B;stop-opacity:0"/>
							</linearGradient>
							<ellipse opacity="0.1" fill="url(#SVGID_10_)" cx="53.9" cy="48.5" rx="3" ry="0.5"/>
						</g>
					</g>
				</g>
			</g>
		</g>
		<g>
			<g>
				<g>
					<g>
						<g>
							<g>
								<path fill="#2AA3AE" d="M92.8,16.5c0.1-0.3,0.1-0.7,0.1-1c0-2.9-2.3-5.2-5.2-5.2c-2.9,0-5.2,2.3-5.2,5.2c0,0.3,0,0.7,0.1,1
									c0.3,2,2.3,3.4,5.1,10.4C90.4,20.1,92.6,18.4,92.8,16.5z"/>
								<path fill="#34BFC6" d="M87.8,10.3c-2.9,0-5.2,2.3-5.2,5.2c0,0.3,0,0.7,0.1,1c0.3,2,2.3,3.4,5.1,10.4"/>
								<circle fill="#34BFC6" cx="87.8" cy="15.5" r="4.3"/>
								<path fill="#2AA3AE" d="M87.8,19.8c-2.4,0-4.3-1.9-4.3-4.3s1.9-4.3,4.3-4.3"/>
								<linearGradient id="SVGID_11_" gradientUnits="userSpaceOnUse" x1="85.2475" y1="17.983" x2="90.2525" y2="12.978">
									<stop  offset="0" style="stop-color:#DADADA"/>
									<stop  offset="0.1132" style="stop-color:#E5E5E5"/>
									<stop  offset="0.3315" style="stop-color:#F4F4F4"/>
									<stop  offset="0.5918" style="stop-color:#FCFCFC"/>
									<stop  offset="1" style="stop-color:#FFFFFF"/>
								</linearGradient>
								<circle fill="url(#SVGID_11_)" cx="87.8" cy="15.5" r="3.5"/>
							</g>
							<linearGradient id="SVGID_12_" gradientUnits="userSpaceOnUse" x1="87.7556" y1="27.3692" x2="87.7556" y2="26.367">
								<stop  offset="0" style="stop-color:#1D1D1B"/>
								<stop  offset="0.9975" style="stop-color:#1D1D1B;stop-opacity:0"/>
							</linearGradient>
							<ellipse opacity="0.1" fill="url(#SVGID_12_)" cx="87.8" cy="26.9" rx="3" ry="0.5"/>
						</g>
					</g>
				</g>
			</g>
		</g>
		<g>
			<g>
				<g>
					<g>
						<g>
							<g>
								<path fill="#ABD35F" d="M93.5,57c0.1-0.3,0.1-0.7,0.1-1c0-2.9-2.3-5.2-5.2-5.2c-2.9,0-5.2,2.3-5.2,5.2c0,0.3,0,0.7,0.1,1
									c0.3,2,2.3,3.4,5.1,10.4C91.1,60.6,93.3,58.9,93.5,57z"/>
								<path fill="#BEE862" d="M88.4,50.8c-2.9,0-5.2,2.3-5.2,5.2c0,0.3,0,0.7,0.1,1c0.3,2,2.3,3.4,5.1,10.4"/>
								<circle fill="#BEE862" cx="88.4" cy="56" r="4.3"/>
								<path fill="#ABD35F" d="M88.4,60.3c-2.4,0-4.3-1.9-4.3-4.3c0-2.4,1.9-4.3,4.3-4.3"/>
								<linearGradient id="SVGID_13_" gradientUnits="userSpaceOnUse" x1="85.9456" y1="58.4946" x2="90.9506" y2="53.4897">
									<stop  offset="0" style="stop-color:#DADADA"/>
									<stop  offset="0.1132" style="stop-color:#E5E5E5"/>
									<stop  offset="0.3315" style="stop-color:#F4F4F4"/>
									<stop  offset="0.5918" style="stop-color:#FCFCFC"/>
									<stop  offset="1" style="stop-color:#FFFFFF"/>
								</linearGradient>
								<circle fill="url(#SVGID_13_)" cx="88.4" cy="56" r="3.5"/>
							</g>
							<linearGradient id="SVGID_14_" gradientUnits="userSpaceOnUse" x1="88.4536" y1="67.8808" x2="88.4536" y2="66.8786">
								<stop  offset="0" style="stop-color:#1D1D1B"/>
								<stop  offset="0.9975" style="stop-color:#1D1D1B;stop-opacity:0"/>
							</linearGradient>
							<ellipse opacity="0.1" fill="url(#SVGID_14_)" cx="88.5" cy="67.4" rx="3" ry="0.5"/>
						</g>
					</g>
				</g>
			</g>
		</g>
	</g>
</g>
</svg>
