<?xml version="1.0" encoding="utf-8"?>
<!-- Generator: Adobe Illustrator 21.0.0, SVG Export Plug-In . SVG Version: 6.00 Build 0)  -->
<svg version="1.0" xmlns="http://www.w3.org/2000/svg" xmlns:xlink="http://www.w3.org/1999/xlink" x="0px" y="0px"
	 viewBox="0 0 400 400" style="enable-background:new 0 0 400 400;" xml:space="preserve">
<style type="text/css">
	.st0{fill-rule:evenodd;clip-rule:evenodd;fill:#6B7F9E;}
	.st1{fill:#6B7F9E;}
	.st2{fill-rule:evenodd;clip-rule:evenodd;fill:#DE0703;}
	.st3{fill-rule:evenodd;clip-rule:evenodd;fill:#FEBC00;}
	.st4{fill-rule:evenodd;clip-rule:evenodd;fill:#5ABA00;}
	.st5{fill-rule:evenodd;clip-rule:evenodd;fill:#FFFFFF;}
	.st6{fill:#211E66;}
	.st7{display:none;}
	.st8{display:inline;fill:#6B7F9E;}
</style>
<g id="Layer_2">
	<g>
		<path class="st0" d="M272.8,38.6c-22.3-9.5-47-14.4-73.1-14.4c-25.6,0-50.3,4.9-72.6,14.4l0,0c-23.5,9.5-44.6,23.9-62.3,41.3
			C47.5,97.6,33,118.6,23.5,141.8c-9.5,22.7-14.4,47-14.4,73c0,26,5,50.4,14.4,73.1C33,311,47.5,332,64.8,349.8
			c1.2,1.2,2.5,2.1,3.7,3.3l1.2,1.2c0-1.2,0.4-2.1,0.4-3.3c0.4-1.7,1.3-3.3,1.7-4.9l-1.7-1.6l0,0C53.7,327.5,40,307.3,30.6,285
			c-9.1-21.5-14-45.4-14-70.2c0-24.8,4.9-48.3,14-70.2c9.5-22.3,23.1-42.5,39.6-59.4l0,0c16.9-16.9,37.2-30.5,59.8-39.6
			c21.5-9.1,45-14,69.8-14c24.8,0,48.7,4.9,70.1,14c22.3,9.1,42.5,22.7,59.4,39.6c16.9,16.9,30.5,37.1,40,59.4
			c8.7,21.9,13.6,45.4,13.6,70.2c0,23.9-4.5,47-13.2,68.1c-8.7,21.5-21,41.3-36.7,57.8c0.8,1.6,1.2,2.9,2.1,4.5
			c0.4,1.2,0.8,2.1,1.2,3.3c16.9-17.3,30.5-38,40-60.7l0,0c9.1-22.7,14.4-47,14.4-73.1c0-26-5.4-50.3-14.4-73
			c-9.9-23.1-23.9-44.2-41.7-61.9l0,0C317.4,62.5,296.3,48.1,272.8,38.6L272.8,38.6z M257.1,70.8c-17.3-7.4-36.7-11.1-57.4-11.1
			c-20.2,0-39.6,3.7-57.4,11.1l0,0c-18.2,7.8-34.7,19-48.7,32.6c-13.6,14-24.8,30.5-32.6,48.7C53.7,169.8,50,189.2,50,209.4
			c0,20.6,3.7,40,11.1,57.4c7.8,18.6,19,35.1,32.6,48.7c0.8,1.2,1.6,2.1,2.9,2.9l0.4,0.4c0-0.8,0-1.2,0.4-2.1l0,0
			c0.4-1.2,0.8-2.5,1.2-3.7l-1.2-1.2l0,0c-13.2-13.2-23.9-29.3-31.4-47c-7-16.9-10.7-35.5-10.7-55.3c0-40,16.1-75.9,42.1-102.4
			c13.6-13.2,29.3-23.9,47-31.4c17.3-7,35.9-10.7,55.3-10.7c19.8,0,38.4,3.7,55.3,10.7c17.8,7.4,33.9,18.2,47,31.4l0,0l0,0
			c13.6,13.6,24.4,29.3,31.4,47c7.4,17.4,11.1,35.9,11.1,55.3c0,19-3.7,37.1-10.3,54.1c-7,16.9-16.9,32.2-28.9,45.4
			c0.4,0.8,0.8,2.1,1.2,3.3l0,0c0.4,0.8,0.4,1.2,0.8,2.1c13.2-13.6,23.9-29.7,31-47.5c7.4-17.3,11.6-36.7,11.6-57.4
			c0-20.2-4.1-39.6-11.6-57.4c-7.4-18.2-18.6-34.7-32.6-48.7l0,0C292.2,89.8,275.7,78.6,257.1,70.8L257.1,70.8z"/>
		<path class="st1" d="M199.7,40.7c47.5,0,90.4,19,121.3,50.3c31.4,31,50.3,73.9,50.3,121.3c0,47-19,90-50.3,121.3l-0.4,0.4
			c-0.8-3.3-2.1-6.6-3.7-9.9c28.1-29.3,45-68.5,45-111.9c0-45-18.2-85.4-47.5-114.7c-29.3-29.3-69.7-47.5-114.7-47.5
			c-44.6,0-85,18.2-114.3,47.5c-29.3,29.3-47.5,69.7-47.5,114.7c0,44.6,18.2,85,47.5,114.3l1.7,2.1c-1.2,3.3-2.1,7-2.5,10.7
			c-2.1-2.1-4.1-4.1-6.2-5.8C47.4,302.3,28,259.4,28,212.3C28,164.9,47.4,122,78.4,91C109.3,59.6,152.2,40.7,199.7,40.7L199.7,40.7z
			"/>
		<path class="st2" d="M86.3,284c20.9,0,37.9,17,37.9,38.3c0,20.9-17,37.9-37.9,37.9c-21.3,0-38.3-17-38.3-37.9
			C48,301,65,284,86.3,284L86.3,284z"/>
		<path class="st3" d="M40.3,154.4c21.3,0,38.3,17,38.3,37.9c0,21.3-17,38.3-38.3,38.3c-21.3,0-38.3-17-38.3-38.3
			C1.9,171.4,19,154.4,40.3,154.4L40.3,154.4z"/>
		<path class="st4" d="M121.1,39.5c20.9,0,37.9,17,37.9,38.3c0,20.9-17,37.9-37.9,37.9c-21.3,0-38.3-17-38.3-37.9
			C82.8,56.5,99.8,39.5,121.1,39.5L121.1,39.5z"/>
		<path class="st2" d="M273.5,39.5c21.3,0,38.3,17,38.3,38.3c0,20.9-17,37.9-38.3,37.9c-20.9,0-37.9-17-37.9-37.9
			C235.6,56.5,252.7,39.5,273.5,39.5L273.5,39.5z"/>
		<path class="st3" d="M359,154.4c20.9,0,38.3,17,38.3,37.9c0,21.3-17.4,38.3-38.3,38.3c-21.3,0-38.3-17-38.3-38.3
			C320.7,171.4,337.8,154.4,359,154.4L359,154.4z"/>
		<path class="st4" d="M310.3,284c21.3,0,38.3,17,38.3,38.3c0,20.9-17,37.9-38.3,37.9c-20.9,0-37.9-17-37.9-37.9
			C272.4,301,289.4,284,310.3,284L310.3,284z"/>
		<path class="st5" d="M99.4,329.7c-1.9-1.5-4.6-2.3-7.3-3.1c-0.4-0.4-1.2-0.4-1.5-0.8c-0.8-0.4-0.8-1.2-0.8-1.5
			c0-0.4,0-0.4-0.4-0.8c1.9-2.7,3.1-6.6,3.1-10.1c0-5-2.7-6.6-6.6-6.6c-3.5,0-6.6,1.5-6.6,6.6c0,3.5,1.5,7.7,3.5,10.5v0.4
			c-0.4,0.4-0.4,1.2-1.2,1.5c-0.4,0.4-1.2,0.4-1.5,0.8c-2.7,0.8-5,1.5-7.4,3.1c-1.2,0.8-1.9,1.9-2.3,3.5c-0.4,1.2-0.8,3.1-0.8,4.3
			h32.9c0-1.2,0-3.1-0.8-4.3C101.4,331.6,100.6,330.4,99.4,329.7L99.4,329.7z"/>
		<path class="st5" d="M134.3,85.2c-2.3-1.6-4.6-2.3-7.4-3.1c-0.4-0.4-1.2-0.4-1.5-0.8c-0.8-0.4-0.8-0.8-0.8-1.5
			c0-0.4-0.4-0.4-0.4-0.8c1.9-2.3,3.1-6.6,3.1-10.1c0-5-2.7-6.6-6.6-6.6c-3.5,0-6.6,1.5-6.6,6.6c0,3.5,1.5,7.7,3.5,10.5v0.4
			c-0.4,0.8-0.4,1.2-1.2,1.5c-0.4,0.4-1.2,0.4-1.5,0.8c-2.7,0.8-5,1.5-7.3,3.1c-1.2,0.8-1.9,1.9-2.3,3.5c-0.4,1.2-0.8,3.1-0.8,4.3
			h32.9c0-1.2,0-3.1-0.8-4.3C136.2,87.1,135.4,85.9,134.3,85.2L134.3,85.2z"/>
		<path class="st5" d="M357.1,176.1v3.9c-4.3,0.8-6.6,3.5-6.6,7c0,3.9,2.7,6.2,7,7.3c3.1,1.2,4.2,1.9,4.2,3.5c0,1.5-1.5,2.7-3.9,2.7
			c-2.7,0-5-1.2-6.6-1.9l-1.2,4.7c1.6,0.8,4.3,1.5,6.6,1.9v3.9h4.3v-4.3c4.3-0.8,7-3.9,7-7.4c0-3.9-1.9-5.8-6.6-7.3
			c-3.5-1.5-5-2.3-5-3.5s1.2-2.3,3.5-2.3c3.1,0,5,0.8,5.8,1.2l1.2-4.3c-1.2-0.8-3.1-1.5-5.4-1.5v-3.5H357.1z"/>
		<path class="st5" d="M78.6,326.6c-1.2-0.8-2.7-1.2-3.9-1.9c-0.4,0-0.8,0-1.2-0.4c0,0-0.4-0.4-0.4-0.8v-0.4
			c1.2-1.5,1.5-3.5,1.5-5.4c0-2.7-1.5-3.5-3.5-3.5c-1.9,0-3.5,0.8-3.5,3.5c0,1.9,0.8,4.3,1.5,5.4c0,0.4,0,0.4,0,0.4
			c0,0.4,0,0.8-0.4,0.8c-0.4,0.4-0.8,0.4-0.8,0.4c-1.5,0.4-3.1,1.2-4.3,1.9c-0.4,0.4-1.2,1.2-1.2,1.9c-0.4,0.8-0.4,1.6-0.4,2.3h18.2
			c0-0.8-0.4-1.6-0.4-2.3C79.7,327.7,79.3,326.9,78.6,326.6L78.6,326.6z"/>
		<path class="st5" d="M106.8,326.6c-1.2-0.8-2.7-1.2-4.3-1.9c0,0-0.4,0-0.8-0.4c-0.4,0-0.4-0.4-0.4-0.8v-0.4
			c0.8-1.5,1.5-3.5,1.5-5.4c0-2.7-1.5-3.5-3.5-3.5c-2.3,0-3.9,0.8-3.9,3.5c0,1.9,0.8,4.3,1.9,5.4c0,0.4,0,0.4,0,0.4
			c0,0.4-0.4,0.8-0.4,0.8c-0.4,0.4-0.8,0.4-1.2,0.4c-1.2,0.4-2.7,1.2-3.9,1.9c-0.8,0.4-1.2,1.2-1.5,1.9c0,0.8-0.4,1.6-0.4,2.3h18.2
			c0-0.8,0-1.6-0.4-2.3C108,327.7,107.2,326.9,106.8,326.6L106.8,326.6z"/>
		<path class="st5" d="M60.4,189.6H65c-0.8-5.8-3.5-10.8-7.4-14.7c-3.9-3.9-8.9-6.2-14.3-7v4.3C52.2,173.4,59.2,180.7,60.4,189.6
			L60.4,189.6z"/>
		<path class="st5" d="M37.2,172.2v-4.3c-5.4,0.8-10.4,3.1-14.3,7c-3.9,3.9-6.6,8.9-7,14.7h4.3C21.3,180.7,28.3,173.4,37.2,172.2
			L37.2,172.2z"/>
		<path class="st5" d="M43.3,212.8v4.3c5.4-0.8,10.4-3.1,14.3-7c3.9-4.3,6.6-9.3,7.4-14.7h-4.7C59.2,204.3,52.2,211.3,43.3,212.8
			L43.3,212.8z"/>
		<path class="st5" d="M20.1,195.4h-4.3c0.4,5.4,3.1,10.4,7,14.7c3.9,3.9,8.9,6.2,14.3,7v-4.3C28.3,211.3,21.3,204.3,20.1,195.4
			L20.1,195.4z"/>
		<path class="st5" d="M29.4,189.6c1.2-3.9,3.9-7,7.7-8.1v-4.3c-6.2,1.2-10.8,6.2-12.4,12.4H29.4z"/>
		<path class="st5" d="M29.4,195.4h-4.6c1.5,6.2,6.2,11.2,12.4,12.4v-4.3C33.3,202.4,30.6,199.3,29.4,195.4L29.4,195.4z"/>
		<path class="st5" d="M51.1,195.4c-1.2,3.9-3.9,7-7.7,8.1v4.3c6.2-1.2,10.8-6.2,12.4-12.4H51.1z"/>
		<path class="st5" d="M51.1,189.6h4.6c-1.5-6.2-6.2-11.2-12.4-12.4v4.3C47.2,182.6,49.9,185.7,51.1,189.6L51.1,189.6z"/>
		<path class="st5" d="M41.4,186.5v-18.6h-2.3v18.6c-2.3,0.8-4.3,2.3-4.6,4.6H15.9v2.3h18.6c0.4,2.3,2.3,4.3,4.6,4.6v19h2.3v-19
			c2.3-0.4,4.3-2.3,4.6-4.6h19v-2.3H46C45.7,188.8,43.7,187.3,41.4,186.5L41.4,186.5z"/>
		<path class="st5" d="M285.9,68.5h-5v-2.3c0-1.9-1.5-3.5-3.5-3.5h-7.3c-1.9,0-3.5,1.5-3.5,3.5v2.3h-5.4c-1.9,0-3.9,1.6-3.9,3.9
			v16.2c0,2.3,1.9,3.9,3.9,3.9h24.8c2.3,0,4.3-1.5,4.3-3.9V72.4C290.2,70.1,288.2,68.5,285.9,68.5L285.9,68.5z M261.9,72.4h3.5v16.2
			h-3.5V72.4z M282.1,72.4h3.5v16.2h-3.5V72.4z M272,72.4h3.5v16.2H272V72.4z M277.8,68.5h-8.5v-2.3c0-0.4,0.4-0.4,0.8-0.4h7.3
			c0.4,0,0.4,0,0.4,0.4V68.5z"/>
		<path class="st5" d="M321.1,304.9h-21.7c-1.2,0-2.7,0.8-2.7,2.3V337c0,1.5,1.2,2.3,2.7,2.7h22.1c1.5-0.4,2.7-1.5,2.7-3.1v-29
			C324.2,306.1,322.7,304.9,321.1,304.9L321.1,304.9z M321.9,336.6c0,0.4-0.4,0.8-0.8,0.8h-21.7c-0.4,0-0.4-0.4-0.4-0.8v-29
			c0-0.4,0-0.4,0.4-0.4h21.7c0.4,0,0.8,0,0.8,0.4V336.6z"/>
		<path class="st5" d="M318.8,311.9h-16.6c-0.8,0-1.2,0.4-1.2,1.2c0,0.4,0.4,1.2,1.2,1.2h16.6c0.4,0,1.2-0.8,1.2-1.2
			C320,312.2,319.2,311.9,318.8,311.9L318.8,311.9z"/>
		<path class="st5" d="M318.8,317.3h-16.6c-0.8,0-1.2,0.4-1.2,1.2c0,0.4,0.4,0.8,1.2,0.8h16.6c0.4,0,1.2-0.4,1.2-0.8
			C320,317.7,319.2,317.3,318.8,317.3L318.8,317.3z"/>
		<path class="st5" d="M318.8,322.3h-16.6c-0.8,0-1.2,0.8-1.2,1.2c0,0.8,0.4,1.2,1.2,1.2h16.6c0.4,0,1.2-0.4,1.2-1.2
			C320,323.1,319.2,322.3,318.8,322.3L318.8,322.3z"/>
		<path class="st5" d="M318.8,327.7h-16.6c-0.8,0-1.2,0.8-1.2,1.2c0,0.8,0.4,1.2,1.2,1.2h16.6c0.4,0,1.2-0.4,1.2-1.2
			C320,328.5,319.2,327.7,318.8,327.7L318.8,327.7z"/>
		<g>
			<path class="st6" d="M182.3,177.1H221v0.1c-2.3,3.5-3.6,5.4-3.9,5.6h-10.3c1.4,1.7,2.4,3.7,2.9,6.1h11c0.1,0,0.2,0.1,0.2,0.2
				c-2.5,3.7-3.7,5.5-3.8,5.5H210c-0.2,1.9-1.1,4.2-2.7,6.9c-2.2,2.7-4.3,4.5-6.3,5.3c-3.8,1.8-7.3,2.7-10.8,2.7v0.1
				c0,0.3,0.8,1.4,2.5,3.3l19.1,23v1.1c0,0.1-0.1,0.2-0.2,0.2h-8.4c-15.1-17.6-22.7-26.5-22.7-26.5v-5.3l0.1-0.2
				c1.3,0.2,2.9,0.3,4.7,0.3c8.5,0,13.7-2.7,15.8-8.2c0.3-0.8,0.5-1.6,0.5-2.5h-23c-0.1,0-0.2-0.1-0.2-0.2c2.5-3.7,3.8-5.5,3.9-5.5
				h18.3v-0.1c-1-2.1-3.1-3.8-6.1-4.9c-2.1-0.7-4.1-1-5.8-1h-10.2v-0.2C181,178.9,182.2,177.1,182.3,177.1z"/>
		</g>
	</g>
	<g>
		<path class="st1" d="M182.3,334.1H177v10.7h-4.8V317h9.8c1.6,0,3,0.2,4.2,0.5c1.2,0.4,2.3,0.9,3.2,1.6c0.9,0.7,1.5,1.6,2,2.6
			c0.4,1,0.7,2.2,0.7,3.6c0,1.9-0.4,3.4-1.3,4.7c-0.9,1.3-2.1,2.2-3.7,2.9l6.2,11.6v0.2h-5.2L182.3,334.1z M177,330.2h5
			c0.9,0,1.6-0.1,2.3-0.3s1.2-0.5,1.6-1c0.4-0.4,0.8-0.9,1-1.4c0.2-0.6,0.3-1.2,0.3-1.8c0-0.7-0.1-1.4-0.3-1.9s-0.5-1.1-0.9-1.5
			c-0.4-0.4-1-0.7-1.6-1c-0.7-0.2-1.4-0.3-2.4-0.3H177V330.2z"/>
		<path class="st1" d="M218.6,331.6c0,2.1-0.3,4-0.8,5.7c-0.6,1.7-1.3,3.1-2.3,4.2c-1,1.2-2.2,2.1-3.6,2.7c-1.4,0.6-3,0.9-4.7,0.9
			c-1.7,0-3.3-0.3-4.7-0.9c-1.4-0.6-2.6-1.5-3.6-2.7c-1-1.2-1.8-2.6-2.4-4.2c-0.6-1.7-0.8-3.6-0.8-5.7v-1.4c0-2.1,0.3-4,0.8-5.7
			c0.6-1.7,1.4-3.1,2.4-4.3c1-1.2,2.2-2.1,3.6-2.7c1.4-0.6,3-0.9,4.7-0.9c1.7,0,3.3,0.3,4.7,0.9c1.4,0.6,2.6,1.5,3.6,2.7
			c1,1.2,1.8,2.6,2.3,4.3c0.6,1.7,0.8,3.6,0.8,5.7V331.6z M213.8,330.2c0-1.5-0.1-2.9-0.4-4.1c-0.3-1.2-0.7-2.2-1.3-3
			s-1.3-1.4-2.1-1.8c-0.8-0.4-1.8-0.6-2.8-0.6c-1,0-2,0.2-2.8,0.6c-0.8,0.4-1.5,1-2.1,1.8s-1,1.8-1.3,3c-0.3,1.2-0.5,2.6-0.5,4.1
			v1.4c0,1.5,0.2,2.9,0.5,4.1c0.3,1.2,0.8,2.2,1.3,3s1.3,1.4,2.1,1.8c0.8,0.4,1.8,0.6,2.8,0.6c2.1,0,3.8-0.8,4.9-2.4
			c1.1-1.6,1.7-4,1.7-7.1V330.2z"/>
		<path class="st1" d="M228.5,344.8h-4.8V317h4.8V344.8z"/>
	</g>
	<g class="st7">
		<path class="st8" d="M195.8,34.4c47.7,0,92.6,18.6,126.3,52.3c33.7,33.7,52.3,78.6,52.3,126.3s-18.6,92.6-52.3,126.3
			c-33.7,33.7-78.6,52.3-126.3,52.3S103.2,373,69.5,339.2C35.8,305.5,17.2,260.7,17.2,213s18.6-92.6,52.3-126.3
			C103.2,52.9,148.1,34.4,195.8,34.4 M195.8,31.1C95.3,31.1,13.9,112.5,13.9,213s81.4,181.8,181.8,181.8S377.6,313.4,377.6,213
			S296.2,31.1,195.8,31.1L195.8,31.1z"/>
	</g>
</g>
<g id="Layer_1">
</g>
</svg>
