<?xml version="1.0" encoding="utf-8"?>
<!-- Generator: Adobe Illustrator 21.0.0, SVG Export Plug-In . SVG Version: 6.00 Build 0)  -->
<svg version="1.0" id="Objects" xmlns="http://www.w3.org/2000/svg" xmlns:xlink="http://www.w3.org/1999/xlink" x="0px" y="0px"
	 viewBox="0 0 800 800" style="enable-background:new 0 0 800 800;" xml:space="preserve">
<style type="text/css">
	.st0{fill:#5ABA00;}
	.st1{fill:#DE0703;}
	.st2{fill:#FEBC00;}
	.st3{fill:#6B7F9E;}
	.st4{fill:#090242;}
	.st5{opacity:0.5;fill:#FFFFFF;}
	.st6{opacity:0.5;fill:#CECECE;}
	.st7{fill:#CACACA;}
	.st8{fill:#B1B1B1;}
	.st9{fill:#EEBCA0;}
	.st10{fill:#FFD2B2;}
	.st11{opacity:0.7;}
	.st12{clip-path:url(#SVGID_2_);fill:#EEBCA0;}
	.st13{fill:#348EA9;}
	.st14{fill:#FFFFFF;}
	.st15{fill:#BB9E81;}
	.st16{fill:#F04946;}
	.st17{clip-path:url(#SVGID_4_);fill:#EEBCA0;}
	.st18{fill:#CF9482;}
	.st19{fill:#333333;}
	.st20{fill:#53BB9B;}
	.st21{fill:none;stroke:#E4E4E4;stroke-width:33.2544;stroke-miterlimit:10;}
	.st22{fill:none;stroke:#CACACA;stroke-width:16.6272;stroke-miterlimit:10;}
</style>
<g>
	<g>
		<path class="st0" d="M675.3,30.3c0-10.7-8.7-19.5-19.4-19.5c-10.7,0-19.5,8.7-19.5,19.4c0,4.4,1.4,8.5,4.1,12
			c1.9,2.4,3.7,5.1,5.3,7.7l0,11.8c0,1.1,0.9,1.9,1.9,1.9l2.2,0v0.9c0,2.3,1.8,4.1,4.1,4.1l3.4,0c2.3,0,4.1-1.8,4.1-4.1l0-0.9l2.2,0
			c1.1,0,2-0.9,2-1.9l0-11.8c1.6-2.7,3.4-5.3,5.3-7.7C673.8,38.8,675.3,34.7,675.3,30.3L675.3,30.3z M653,47.4l-3.3-14.7l2-1.2
			l2.5,2.4c0.2,0.2,0.5,0.3,0.7,0.3c0.3,0,0.5-0.1,0.7-0.4l2.2-2.6l1.3,2.5c0.2,0.3,0.5,0.5,0.9,0.5c0.1,0,0.3,0,0.4-0.1l1.6-0.7
			l-3.3,14.1L653,47.4z M661.9,51.3l0,3.3l-12.1,0l0-3.3L661.9,51.3z M649.7,59.8l0-3.3l12.1,0l0,3.3L649.7,59.8z M662.7,47.5
			l-1.1,0l3.7-16.1c0.2-0.8-0.3-1.6-1.1-1.8c-0.8-0.2-1.6,0.3-1.7,1.1l-0.1,0.3l-2.1,0.9l-1.5-3c-0.2-0.3-0.4-0.5-0.8-0.5
			c-0.3,0-0.6,0.1-0.9,0.3l-2.4,3l-2.3-2.2c-0.3-0.3-0.8-0.4-1.2-0.1l-2.1,1.3l0,0c-0.2-0.8-1-1.3-1.7-1.1c-0.8,0.2-1.3,1-1.1,1.7
			l3.7,16.1l-1.1,0c-1.6-2.6-3.4-5.2-5.3-7.7c-2.2-2.8-3.3-6.1-3.3-9.6c0-8.6,7-15.5,15.6-15.5c8.6,0,15.5,7,15.5,15.6
			c0,3.5-1.2,6.8-3.3,9.6C666.1,42.3,664.3,44.8,662.7,47.5L662.7,47.5z M662.7,47.5"/>
	</g>
	<g>
		<path class="st1" d="M103.9,760.6c0.2,0.2,0.4,0.3,0.6,0.3h27.1c0.3,0,0.5-0.1,0.7-0.3c0.2-0.2,0.3-0.4,0.2-0.7
			c-0.8-7.3-4.2-13.9-9.5-18.8c-5.4-4.8-12.4-7.5-19.7-7.5c-6.7,0-13.2,2.3-18.5,6.5c-0.2,0.2-0.3,0.4-0.3,0.7
			c0,0.3,0.1,0.5,0.3,0.7L103.9,760.6z M100.2,750.3l7.8-11.6c0.9,0.2,1.8,0.4,2.6,0.7l-8.5,12.8L100.2,750.3z M103.2,738.3
			c0.2,0,0.5,0,0.7,0l-6.3,9.4l-2-2l5.1-7.2C101.5,738.3,102.4,738.3,103.2,738.3L103.2,738.3z M95.4,739.5L93,743l-1.7-1.7
			c1.1-0.6,2.2-1.1,3.4-1.6C95,739.7,95.2,739.6,95.4,739.5L95.4,739.5z M118.5,756.1l4.9-7.4c0.3,0.5,0.7,1,1,1.5l-4.1,6H118.5z
			 M124.7,756.1l1.5-2.3c0.3,0.7,0.6,1.5,0.8,2.3H124.7z M111.2,756.1l8-12c0.3,0.2,0.5,0.4,0.7,0.7c0.4,0.3,0.7,0.7,1.1,1
			l-6.9,10.3H111.2z M106.9,756.1h-0.8l-1.3-1.3l9.3-14c0.8,0.4,1.5,0.8,2.2,1.2L106.9,756.1z M106.9,756.1"/>
		<path class="st1" d="M100,762.8l-18.3-18.3c-0.2-0.2-0.4-0.3-0.7-0.3c-0.3,0-0.5,0.1-0.7,0.3c-4.2,5.2-6.5,11.8-6.5,18.5
			c0,9.2,4.2,17.6,11.4,23.3c0.2,0.1,0.4,0.2,0.6,0.2c0.1,0,0.1,0,0.2,0c0.3,0,0.5-0.2,0.6-0.4l13.6-22.1
			C100.3,763.6,100.3,763.1,100,762.8L100,762.8z M94.6,764L85,779.6c-1.5-1.6-2.8-3.5-3.8-5.4c-1.8-3.5-2.7-7.3-2.7-11.2
			c0-2.9,0.5-5.8,1.5-8.5c0.4-1.2,1-2.3,1.6-3.4L94.6,764z M94.6,764"/>
		<path class="st1" d="M131.6,765.2H105c-0.3,0-0.6,0.2-0.8,0.4l-14,22.7c-0.1,0.2-0.2,0.5-0.1,0.7c0.1,0.2,0.2,0.4,0.5,0.6
			c4,1.9,8.2,2.8,12.6,2.8c7.3,0,14.3-2.7,19.7-7.5c5.4-4.8,8.8-11.5,9.5-18.8c0-0.3-0.1-0.5-0.2-0.7
			C132.1,765.3,131.9,765.2,131.6,765.2L131.6,765.2z M131.6,765.2"/>
	</g>
	<g>
		<path class="st2" d="M77.8,31.9c0.3,1.1,0.7,2.1,1.3,3l-1.5,1.9c-0.5,0.6-0.4,1.5,0.1,2.1l2.7,2.7c0.6,0.6,1.5,0.6,2.1,0.1
			l1.9-1.5c1,0.6,2,1,3.1,1.3l0.3,2.5c0.1,0.8,0.8,1.4,1.6,1.4h3.8c0.8,0,1.5-0.6,1.6-1.4l0.3-2.4c1.2-0.3,2.3-0.8,3.4-1.4l1.9,1.5
			c0.6,0.5,1.5,0.4,2.1-0.1L105,39c0.6-0.6,0.6-1.5,0.1-2.1l-1.5-1.8c0.6-1,1.1-2.2,1.4-3.3l2.2-0.3c0.8-0.1,1.4-0.8,1.4-1.6v-3.8
			c0-0.8-0.6-1.5-1.4-1.6l-2.2-0.3c-0.3-1.2-0.8-2.3-1.3-3.3l1.4-1.7c0.5-0.6,0.4-1.5-0.1-2.1l-2.6-2.6c-0.6-0.6-1.5-0.6-2.1-0.1
			l-1.7,1.3c-1.1-0.6-2.2-1.1-3.4-1.4l-0.3-2.2c-0.1-0.8-0.8-1.4-1.6-1.4h-3.8c-0.8,0-1.5,0.6-1.6,1.4l-0.3,2.2
			c-1.2,0.3-2.4,0.8-3.5,1.5l-1.7-1.4c-0.6-0.5-1.5-0.4-2.1,0.1l-2.7,2.7c-0.6,0.6-0.6,1.5-0.1,2.1l1.4,1.8c-0.6,1-1,2.2-1.3,3.3
			l-2.3,0.3c-0.8,0.1-1.4,0.8-1.4,1.6v3.7c0,0.8,0.6,1.5,1.4,1.6L77.8,31.9z M91.4,21.8c3.4,0,6.2,2.8,6.2,6.2
			c0,3.4-2.8,6.2-6.2,6.2c-3.4,0-6.2-2.8-6.2-6.2C85.2,24.6,88,21.8,91.4,21.8L91.4,21.8z M91.4,21.8"/>
		<path class="st2" d="M128.5,32.9l-2-1.7c-0.6-0.5-1.5-0.5-2.1,0.1l-1.1,1c-0.9-0.4-1.9-0.8-2.9-0.9l-0.3-1.5
			c-0.2-0.8-0.9-1.3-1.7-1.3l-2.6,0.2c-0.8,0.1-1.4,0.7-1.4,1.5l-0.1,1.5c-1,0.4-1.9,0.8-2.8,1.5l-1.3-0.9c-0.7-0.4-1.6-0.3-2.1,0.3
			l-1.7,2c-0.5,0.6-0.5,1.5,0.1,2.1l1.1,1.2c-0.4,0.9-0.7,1.8-0.8,2.8l-1.6,0.3c-0.8,0.2-1.3,0.9-1.3,1.7l0.2,2.6
			c0.1,0.8,0.7,1.4,1.5,1.4l1.8,0.1c0.3,0.8,0.7,1.6,1.3,2.4l-1,1.5c-0.4,0.7-0.3,1.6,0.3,2.1l2,1.7c0.6,0.5,1.5,0.5,2.1-0.1
			l1.3-1.2c0.8,0.4,1.7,0.7,2.7,0.9l0.4,1.8c0.2,0.8,0.9,1.3,1.7,1.3l2.6-0.2c0.8-0.1,1.4-0.7,1.4-1.5l0.1-1.7
			c0.9-0.3,1.8-0.8,2.7-1.3l1.4,0.9c0.7,0.4,1.6,0.3,2.1-0.3l1.7-2c0.5-0.6,0.5-1.5-0.1-2.1l-1.1-1.2c0.4-0.9,0.7-1.8,0.9-2.8
			l1.6-0.3c0.8-0.2,1.3-0.9,1.3-1.7l-0.2-2.6c-0.1-0.8-0.7-1.4-1.5-1.4l-1.6-0.1c-0.3-0.9-0.8-1.8-1.3-2.6l0.9-1.3
			C129.2,34.3,129.1,33.4,128.5,32.9L128.5,32.9z M118.7,47.8c-2.8,0.2-5.3-1.8-5.5-4.6c-0.2-2.8,1.8-5.3,4.6-5.5
			c2.8-0.2,5.3,1.8,5.5,4.6C123.6,45.1,121.5,47.6,118.7,47.8L118.7,47.8z M118.7,47.8"/>
		<path class="st2" d="M86.8,54.7c-0.8,0.1-1.4,0.7-1.4,1.5l0,1.6c0,0.8,0.6,1.5,1.4,1.6l1.2,0.2c0.2,0.7,0.5,1.4,0.8,2L88,62.6
			c-0.5,0.6-0.5,1.5,0.1,2.1l1.1,1.1c0.6,0.6,1.5,0.6,2.1,0.1l0.9-0.7c0.7,0.4,1.4,0.7,2.1,0.9l0.1,1.2c0.1,0.8,0.7,1.4,1.5,1.4
			l1.6,0c0.8,0,1.5-0.6,1.6-1.4l0.1-1.1c0.8-0.2,1.5-0.5,2.3-0.9l0.9,0.7c0.6,0.5,1.5,0.5,2.1-0.1l1.1-1.1c0.6-0.6,0.6-1.5,0.1-2.1
			l-0.7-0.9c0.4-0.7,0.7-1.4,1-2.2l1-0.1c0.8-0.1,1.4-0.7,1.4-1.5l0-1.6c0-0.8-0.6-1.5-1.4-1.6l-1-0.1c-0.2-0.8-0.5-1.5-0.9-2.2
			l0.6-0.8c0.5-0.6,0.5-1.5-0.1-2.1l-1.1-1.1c-0.6-0.6-1.5-0.6-2.1-0.1l-0.8,0.6c-0.7-0.4-1.5-0.8-2.3-1l-0.1-1
			c-0.1-0.8-0.7-1.4-1.5-1.4l-1.6,0c-0.8,0-1.5,0.6-1.6,1.4l-0.1,1c-0.8,0.2-1.6,0.5-2.4,1l-0.8-0.6c-0.6-0.5-1.5-0.5-2.1,0.1
			l-1.1,1.1c-0.6,0.6-0.6,1.5-0.1,2.1l0.7,0.9c-0.4,0.7-0.7,1.4-0.9,2.2L86.8,54.7z M97.1,52.9c2.3,0,4.1,1.9,4.1,4.2
			c0,2.3-1.9,4.1-4.2,4.1c-2.3,0-4.1-1.9-4.1-4.2C92.9,54.8,94.8,52.9,97.1,52.9L97.1,52.9z M97.1,52.9"/>
	</g>
	<g>
		<g>
			
				<rect x="108" y="79.6" transform="matrix(0.7071 -0.7071 0.7071 0.7071 -54.1539 117.665)" class="st2" width="13.9" height="89.3"/>
		</g>
		<g>
			<g>
				
					<ellipse transform="matrix(0.7071 -0.7071 0.7071 0.7071 -41.312 86.6627)" class="st2" cx="84" cy="93.2" rx="15.7" ry="15.7"/>
			</g>
		</g>
	</g>
	<g>
		<g>
			
				<rect x="572.3" y="146.7" transform="matrix(0.7071 -0.7072 0.7072 0.7071 72.0758 481.2451)" class="st0" width="89.3" height="13.9"/>
		</g>
		<g>
			<g>
				
					<ellipse transform="matrix(0.7071 -0.7071 0.7071 0.7071 103.0357 494.0192)" class="st0" cx="647.9" cy="122.6" rx="15.7" ry="15.7"/>
			</g>
		</g>
	</g>
	<g>
		<path class="st2" d="M380.6,746.1c-94.3,0-183-36.7-249.6-103.4C64.3,576,27.6,487.3,27.6,393s36.7-183,103.4-249.6
			C197.7,76.7,286.3,40,380.6,40c8.8,0,16,7.2,16,16c0,8.8-7.2,16-16,16c-85.7,0-166.4,33.4-227,94c-60.6,60.6-94,141.2-94,227
			s33.4,166.4,94,227c60.6,60.6,141.2,94,227,94c85.7,0,166.4-33.4,227-94c60.6-60.6,94-141.2,94-227c0-8.8,7.2-16,16-16
			c8.8,0,16,7.2,16,16c0,94.3-36.7,183-103.4,249.6C563.6,709.3,474.9,746.1,380.6,746.1z"/>
	</g>
	<g>
		<path class="st0" d="M585,613.4c-4.1,0-8.2-1.6-11.3-4.7c-6.3-6.3-6.3-16.4,0-22.7c51.6-51.6,79.9-120.1,79.9-193
			c0-72.9-28.4-141.4-79.9-193c-51.6-51.6-120.1-79.9-193-79.9c-72.9,0-141.4,28.4-193,79.9c-6.3,6.3-16.4,6.3-22.7,0
			c-6.3-6.3-6.3-16.4,0-22.7C222.6,119.8,299.2,88,380.6,88c81.5,0,158.1,31.7,215.7,89.3c57.6,57.6,89.3,134.2,89.3,215.7
			s-31.7,158.1-89.3,215.7C593.2,611.8,589.1,613.4,585,613.4z"/>
	</g>
	<g>
		<path class="st1" d="M380.6,649.9c-68.6,0-133.1-26.7-181.7-75.3c-48.5-48.5-75.3-113-75.3-181.7c0-68.5,26.7-133,75.1-181.5
			c6.3-6.3,16.4-6.3,22.7,0c6.3,6.3,6.3,16.4,0,22.7c-42.4,42.5-65.7,98.9-65.7,158.9c0,124,100.9,224.9,224.9,224.9
			c124,0,224.9-100.9,224.9-224.9c0-8.8,7.2-16,16-16c8.8,0,16,7.2,16,16c0,68.6-26.7,133.1-75.3,181.7
			C513.8,623.2,449.3,649.9,380.6,649.9z"/>
	</g>
	<g>
		<g>
			<g>
				
					<rect x="546.9" y="512.1" transform="matrix(0.7071 -0.7071 0.7071 0.7071 -244.0223 571.6169)" class="st3" width="42.1" height="136.6"/>
			</g>
			<path class="st4" d="M722.3,781.5c4.1,4.1,10.8,4.1,14.9,0l31.9-31.9c4.1-4.1,4.1-10.8,0-14.9L626.6,592
				c-4.1-4.1-10.8-4.1-14.9,0l-32,31.9c-4.1,4.1-4.1,10.8,0,14.9L722.3,781.5z"/>
			
				<rect x="663.1" y="583.3" transform="matrix(0.707 -0.7072 0.7072 0.707 -295.9862 674.9163)" class="st5" width="6.8" height="222.8"/>
			<path class="st6" d="M579.7,624l3-3l157.5,157.5l-3,3c-4.1,4.1-10.8,4.1-14.9,0L579.7,638.9C575.5,634.8,575.5,628.1,579.7,624z"
				/>
			
				<rect x="498.9" y="527.7" transform="matrix(0.7071 -0.7071 0.7071 0.7071 -226.1864 528.5851)" class="st7" width="52.1" height="19.1"/>
			
				<rect x="506.3" y="542.6" transform="matrix(0.7075 -0.7067 0.7067 0.7075 -241.0676 521.9995)" class="st8" width="7.6" height="19.1"/>
			
				<rect x="514.4" y="536.7" transform="matrix(0.7069 -0.7073 0.7073 0.7069 -235.1865 525.0507)" class="st8" width="3.2" height="19.1"/>
		</g>
		<g>
			<g>
				<g>
					<path class="st9" d="M452.1,404.4v95.3h52c0.8-0.4,1.3-0.6,1.3-0.6c-0.1-1-0.1-1.9-0.1-2.8c-0.8-37.3-19.1-48-27.6-51
						c-2.5-0.9-4.2-1.1-4.2-1.1c-0.4,0-0.7-0.1-1.1-0.2c-0.9-0.3-1.7-1-2.4-2c0,0,0,0-0.1-0.1c-1.3-1.8-2.3-4.6-3-8.1
						c-0.2-0.9-0.4-1.9-0.5-3c-0.3-1.8-0.5-3.6-0.7-5.5c-0.1-1.1-0.2-2.3-0.3-3.5c-0.5-5.9-0.6-12.2-0.6-18.2
						C464.7,403.7,457.7,404.4,452.1,404.4"/>
					<path class="st10" d="M398.6,499.1c0,0,0.5,0.1,1.2,0.6h52.2v-95.3H452c-5.7,0-12.7-0.7-12.7-0.7c0,6-0.1,12.3-0.6,18.1
						c-0.1,1.2-0.2,2.3-0.3,3.5c-0.2,2-0.4,3.9-0.7,5.7v0c-0.2,0.8-0.3,1.5-0.4,2.3c-0.4,2.2-1,4.3-1.7,5.9
						c-0.9,2.4-2.1,4.2-3.6,4.8c-0.4,0.3-0.9,0.4-1.5,0.4C430.4,444.2,398.6,448,398.6,499.1"/>
					<g class="st11">
						<g>
							<defs>
								<rect id="SVGID_1_" x="437.6" y="421.8" width="28.8" height="17"/>
							</defs>
							<clipPath id="SVGID_2_">
								<use xlink:href="#SVGID_1_"  style="overflow:visible;"/>
							</clipPath>
							<path class="st12" d="M437.6,430.9L437.6,430.9c1.3,2.1,5.7,7.9,14.4,7.9h0.1c8.3,0,13.1-6,14.3-7.8
								c-0.3-1.7-0.5-3.6-0.7-5.5c-0.1-1.2-0.2-2.3-0.3-3.5c-4.1,1-8.4,1.6-13.1,1.7h-0.1c-4.8-0.1-9.3-0.7-13.4-1.8
								c-0.1,1.2-0.2,2.3-0.3,3.4C438.1,427.2,437.9,429.1,437.6,430.9"/>
						</g>
					</g>
					<path class="st10" d="M433.4,500.8h-33.5c-0.8-0.4-1.3-0.6-1.3-0.6c0.1-1,0.1-1.9,0.1-2.8c-0.1-8.1-2.5-12.4,0.6-20.5
						c3.4-9,0.9-8.7,6.5-18.3c4-6.8,13.8-10.4,20.6-12.2c4.1-1.1,7.1-1.5,7.1-1.5S434.5,477.9,433.4,500.8"/>
					<path class="st10" d="M470.6,500.8h33.5c0.8-0.4,1.3-0.6,1.3-0.6c-0.1-1-0.1-1.9-0.1-2.8c0.1-8.1,2.5-12.4-0.5-20.5
						c-3.3-9-0.9-8.7-6.5-18.3c-4-6.8-13.8-10.4-20.6-12.2c-4.1-1.1-7.1-1.5-7.1-1.5S469.5,477.9,470.6,500.8"/>
					<path class="st13" d="M462.9,438.5c0.4,0.2,5.9,2.7,5.9,2.8c0.8,0.6,11.1,5.3,11.9,6.1c4,3.4,0.5,10,3.3,13.8
						c12.2,15.8,17.2,24.5,16.2,39.7h-47.6v-51.9L462.9,438.5z"/>
					<path class="st13" d="M442.6,438.5c-0.4,0.2-5.9,2.7-5.9,2.8c-0.8,0.6-11.1,4.9-11.9,5.6c-4,3.4-0.5,10.5-3.3,14.2
						c-12.2,15.8-17.2,24.5-16.2,39.7h47.6v-51.9L442.6,438.5z"/>
					<path class="st14" d="M435.4,437.7c1.7-7.4,2.4-6.8,2.4-6.8s0.3-0.3-0.2,1.9c-0.4,1.9,10.2,4.7,13.6,5.1v0c0,0,0,0,0,0
						c0.2,0,0.3,0,0.5,0c0.1,0,0.2,0,0.4,0c0,0,0.1,0,0.1,0c0,0,0,0,0,0c3.5-0.4,14.8-3.1,14.5-5.1c-0.4-2.2-0.2-1.9-0.2-1.9
						s0.7-0.6,2.3,6.8c0.7,3.3,1.5,4.8,1.5,4.8s-3.8,2.4-7.4,3.6c-7.7,2.5-10.2,13.6-10.2,13.6s0-0.1,0-0.2v0.2
						c0,0-2.7-11-10.9-13.6c-3.8-1.2-7.8-3.6-7.8-3.6S434.7,441,435.4,437.7"/>
					<path class="st9" d="M451.1,295.1c-55.1,0-55.4,45.9-52.9,76c-3.8-7.1-15-4.9-14,6.3c0.9,10.8,16.7,16.4,16.4,15.1
						c4.5,24.7,30.4,39,50.5,39c0.1,0,0.3,0,0.4,0V295.1C451.3,295.1,451.2,295.1,451.1,295.1"/>
					<path class="st15" d="M387.6,372.6c2.7-4.3,6.9-2.5,7.9-1.5c1.1,1,2,2.4,1.3,5c-0.4,1.4-1.9,1.5-1.5,3.7
						c0.4,2.5,1.6,2.6,2.2,3.2c0.6,0.5,1.5,1,1.9,2c0.4,1,0.5,2.2,0.2,3.1c-0.4,1.8-3,0.4-4.8-0.4c-1.1-0.5-4.8-3.6-5.7-4.6
						C386.9,380.5,385.8,375.5,387.6,372.6"/>
					<path class="st9" d="M451.3,295.1c55.1,0,55.4,45.9,52.9,76c3.8-7.1,14.9-4.9,14,6.3c-0.9,10.8-16.7,16.4-16.5,15.1
						c-4.5,24.7-30.4,39-50.5,39c-0.1,0-0.3,0-0.4,0V295.1C451.1,295.1,451.2,295.1,451.3,295.1"/>
					<path class="st15" d="M514.8,372.6c-2.7-4.3-6.9-2.5-7.9-1.5c-1.1,1-2,2.4-1.3,5c0.4,1.4,1.9,1.5,1.5,3.7
						c-0.4,2.5-1.5,2.6-2.2,3.2c-0.6,0.5-1.5,1-1.9,2c-0.4,1-0.5,2.2-0.2,3.1c0.4,1.8,3,0.4,4.7-0.4c1.1-0.5,4.8-3.6,5.7-4.6
						C515.5,380.5,516.6,375.5,514.8,372.6"/>
					<path class="st9" d="M451.8,308c18.1,0,31.4,5.2,39.4,15.6c11.2,14.4,10.8,36.5,6.6,52.4c-1.3,4.8-1.9,17.9-2.8,22.7
						c-3.9,21.4-27.6,32.8-43.3,32.8c-0.1,0-0.3,0-0.4,0V308.1C451.5,308.1,451.7,308,451.8,308"/>
					<path class="st10" d="M412.5,323.7c8-10.3,21.1-15.5,38.9-15.6v123.5c-17.8-0.2-39.2-12.7-42.8-32.8
						c-0.9-4.8-1.5-17.9-2.8-22.7C401.7,360.2,401.2,338.2,412.5,323.7"/>
					<path class="st16" d="M437.6,405.6c0,0,6.1,6.5,13.7,6.5c7.5,0,13.3-6.4,13.3-6.4s-5.8-1-13.3-1
						C443.7,404.7,437.6,405.6,437.6,405.6"/>
					<path class="st16" d="M447.4,402.6c2.1,0,3.8,1.3,3.9,3c0.1-1.6,1.8-3,3.9-3c2.1,0,9.8,3,9.8,3s-7.5,0.8-9.6,0.8
						c-2.1,0-4,0.8-4.1-0.7c0,1.6-1.6,1-3.7,1c-2.2,0-10-1-10-1S445.3,402.6,447.4,402.6"/>
				</g>
				<path class="st16" d="M382.4,332.2c6-17.8,19.7-33.1,25.2-39.4c7.2-8.1,26.2-16.1,28.1-16.9c2-0.8,9.5,2.2,16.9,0.5
					c7.4-1.7,22.2,0.4,43.3,13.9c9.8,6.3,16.2,18.1,20.4,29.8c2.1,6,3.6,12.1,4.6,17.3c1.3,6.7,1.8,12.3,1.8,15.3
					c0,2-0.5,4.7-1.3,7.7c-0.3,1-0.5,2-0.9,3.1c-0.9,3-2,6.3-3.2,9.5l-3.2,5.6c0.2,0.7,0.5,1.5,0.6,2.2c0.1,0.7,0.2,1.5,0.3,2.2
					c0,0.4,0.1,0.8,0.1,1.3c0,6.1-3.1,11.5-7.7,14.4c2,2.6,3.2,5.8,3.2,9.3c0,9.1-8.3,16.5-18.5,16.5c-1,0-1.9-0.1-2.8-0.2
					c0.4,1.2,0.6,2.5,0.6,3.8c0,6.7-5.3,12.5-12.6,14.5c-0.5,0.1-1,0.3-1.5,0.4c-0.8-0.2-1.2-0.2-1.2-0.2h-0.3
					c-0.2,0-0.5-0.1-0.8-0.2c-2.6-0.7-4.5-4.1-5.8-9.1c-0.2-0.8-0.4-1.5-0.6-2.3c-0.3-1.1-0.5-2.7-0.5-2.7s15.1-4.6,26.1-18.7
					c1.5-2,4.4-7.7,5.5-10c0.4-9.2-0.6-22.2-0.7-31.9c0-4-0.1-6.9-0.2-7.6c-1-5.4-11.8-15.3-19.6-21.8c-2.1-1.8-4.1-3.4-5.5-4.5
					c-3.8-3.1-7.3-7.1-10.2-11.2c-4.4-6-7.6-12.2-9.5-15.5c0,0,3.8,11.6,4.7,13.8c0.3,0.7,0.6,1.3,0.9,1.9c2.9,5.7,7,9.5,7.6,10.1
					c-1.1-0.7-9.3-5.5-14-9.6c-0.4-0.3-0.7-0.6-1-0.9c-0.1-0.1-0.2-0.1-0.2-0.2c-0.1-0.1-0.2-0.2-0.3-0.3c-0.1-0.1-0.2-0.2-0.3-0.3
					c-4-4.1-7.5-9.6-8-10.4c0.3,0.9,2.4,6.4-0.4,13.1c-0.6,1.5-1.5,3.1-2.7,4.8c-3,4-10.4,8.5-12.1,9.6c1.2-1,5.2-4.5,5.6-10.9
					c0-0.6,0.2-1.5,0.3-2.5c0.3-2.6,0.8-5.9,0.9-6.7c-0.2,0.6-1.3,3.5-2.9,6.9c-1.6,3.5-3.9,7.5-6.5,10.2c-2.5,2.6-5,5.6-7.1,8.2
					c-2.7,3.2-4.8,6-6.1,7.2c-1.6,1.5-2.6,6.8-3.2,13.7c-0.8,8.8-3.6,25-3.5,34.8c1.1,2.3,4,8,5.5,10c11,14.1,26.1,18.7,26.1,18.7
					s-0.2,1.6-0.5,2.7c-0.2,0.8-0.4,1.6-0.6,2.3c-1.3,5-3.2,8.4-5.8,9.1c-0.2,0.1-0.5,0.1-0.8,0.2h-0.3c0,0-0.4,0.1-1.2,0.2
					c-0.5-0.1-1-0.2-1.5-0.4c-7.3-2.1-12.6-7.8-12.6-14.5c0-1.3,0.2-2.6,0.6-3.8c-0.9,0.1-1.9,0.2-2.8,0.2
					c-10.2,0-18.5-7.4-18.5-16.5c0-3.2,1.1-6.2,2.9-8.7c-6-3.1-12-12.3-12.1-18c0-0.1,0-0.1,0-0.2c0-0.7,0.1-1.4,0.2-2.1
					c0.3-2.1,1.2-4,2.4-5.7l-0.1-0.1c-1.4-3.3-2.7-6.9-3.7-10.5c-0.3-1-0.5-2-0.7-3c-0.7-3-1.1-6.2-1.2-9.4c0-0.6,0-1.2,0-1.8
					C379.6,342.9,380.6,337.4,382.4,332.2z"/>
			</g>
			<g>
				<path class="st9" d="M305.9,405.6v95.2h52c0.8-0.3,1.3-0.5,1.3-0.5c0-35.4-15.3-48.1-24.6-52.6c-4.2-2-7.2-2.3-7.2-2.3
					c-3.2,0-5.2-4.1-6.6-10.2c-0.2-0.9-0.4-1.9-0.5-3c-0.3-1.7-0.5-3.6-0.7-5.5c-0.1-1.2-0.2-2.3-0.3-3.5
					c-0.5-5.8-0.6-12.2-0.6-18.2C318.6,404.9,311.6,405.6,305.9,405.6"/>
				<path class="st10" d="M252.5,500.3c0,0,0.5,0.2,1.2,0.5h52.2v-95.2h-0.1c-5.6,0-12.7-0.7-12.7-0.7c0,6-0.1,12.3-0.6,18.1
					c-0.1,1.2-0.2,2.3-0.3,3.4c-0.2,2-0.4,3.9-0.7,5.7v0c-0.1,0.8-0.2,1.5-0.4,2.3c-1.3,6.6-3.5,11-6.7,11c0,0-3.8,0.5-8.9,3.2
					C266.1,453.7,252.5,466.9,252.5,500.3"/>
				<g class="st11">
					<g>
						<defs>
							<rect id="SVGID_3_" x="291.5" y="422.9" width="28.8" height="17"/>
						</defs>
						<clipPath id="SVGID_4_">
							<use xlink:href="#SVGID_3_"  style="overflow:visible;"/>
						</clipPath>
						<path class="st17" d="M291.5,432.1L291.5,432.1c1.3,2.1,5.7,7.8,14.4,7.8h0.1c8.3,0,13.1-6,14.3-7.8c-0.3-1.7-0.6-3.6-0.7-5.5
							c-0.1-1.2-0.2-2.3-0.3-3.5c-4,1-8.4,1.6-13.1,1.7H306c-4.8-0.1-9.3-0.7-13.4-1.8c-0.1,1.2-0.2,2.3-0.3,3.4
							C292,428.4,291.8,430.3,291.5,432.1"/>
					</g>
				</g>
				<path class="st9" d="M306.3,296.3c55.1,0,55.4,45.9,52.9,76c3.8-7.1,15-4.9,14,6.3c-0.9,10.8-16.7,16.4-16.5,15.1
					c-4.5,24.8-30.4,39-50.5,39c-0.1,0-0.3,0-0.4,0V296.3C306,296.3,306.2,296.3,306.3,296.3"/>
				<path class="st18" d="M369.5,373.8c-2.7-4.3-6.9-2.5-8-1.5c-1.1,1-2,2.4-1.3,5c0.4,1.4,1.9,1.6,1.5,3.7
					c-0.4,2.5-1.6,2.6-2.2,3.2c-0.6,0.5-1.4,1-1.8,2c-0.4,1-0.5,2.1-0.2,3.1c0.4,1.8,3,0.4,4.7-0.4c1.1-0.5,4.8-3.6,5.7-4.6
					C370.3,381.7,371.3,376.7,369.5,373.8"/>
				<path class="st9" d="M305.5,296.3c-55.1,0-55.4,45.9-52.9,76c-3.8-7.1-15-4.9-14,6.3c0.9,10.8,16.7,16.4,16.4,15.1
					c4.5,24.8,30.4,39,50.5,39c0.1,0,0.3,0,0.4,0V296.3C305.7,296.3,305.6,296.3,305.5,296.3"/>
				<path class="st18" d="M242,373.8c2.7-4.3,6.9-2.5,7.9-1.5c1.1,1,2,2.4,1.3,5c-0.4,1.4-1.9,1.5-1.5,3.7c0.4,2.5,1.5,2.6,2.2,3.2
					c0.6,0.6,1.5,1,1.9,2c0.4,1,0.5,2.1,0.2,3.1c-0.4,1.8-3,0.4-4.7-0.4c-1.1-0.5-4.8-3.6-5.7-4.6
					C241.3,381.7,240.2,376.7,242,373.8"/>
				<path class="st9" d="M306.2,309.2c18.1,0,31.4,5.2,39.4,15.6c11.2,14.4,10.8,36.5,6.6,52.4c-1.3,4.8-1.9,17.9-2.8,22.7
					c-3.9,21.4-27.6,32.8-43.3,32.8c-0.1,0-0.3,0-0.4,0V309.2C305.9,309.2,306.1,309.2,306.2,309.2"/>
				<path class="st10" d="M267,324.8c8-10.3,21.1-15.5,38.9-15.6v123.5c-17.8-0.2-39.2-12.7-42.8-32.8c-0.9-4.8-1.5-17.9-2.8-22.7
					C256.1,361.4,255.7,339.3,267,324.8"/>
				<path class="st19" d="M279.4,418.4c0,0.4-0.1,0.7-0.1,1.1c0,3.3,0.8,6.3,2.2,8.7c0.3,0.9,1,1.8,2,2.6c0.9,0.9,1.9,1.5,3.1,1.9
					c3.9,1.9,9.5,3.1,15.9,3.4c1.1,0.2,2.3,0.3,3.6,0.3c1.2,0,2.4-0.1,3.6-0.3c6.4-0.3,12.1-1.6,15.9-3.4c1.1-0.4,2.1-1,3.1-1.9
					c1-0.8,1.7-1.7,2-2.6c1.3-2.4,2.2-5.4,2.2-8.7c0-0.4-0.1-0.7-0.1-1.1c-0.2-3.3-1.1-6.2-2.6-8.5c0,0-0.6-0.5-1.5-1.2
					c-1-0.7-2.5-1.7-4.4-2.8c-2.1-1.2-4.5-2.9-7.4-4c0,0-9.5-4.3-21.4,0l-0.3,0.1h0c-2.8,1.1-5.1,2.7-7.1,3.9
					c-1.9,1.1-3.4,2.1-4.4,2.8c-1,0.7-1.5,1.1-1.5,1.2C280.6,412.2,279.6,415.2,279.4,418.4 M286.9,426.9c-0.9-2.1-1.5-4.6-1.5-7.3
					c0.4-1.2,1-2.3,1.8-3.5c0.1-0.2,0.3-0.3,0.4-0.5c1.7-1.3,3.7-2.4,6-3.3c3.4-0.7,7.1-0.5,9.8-2.1c1.1-0.7,2.1-1.7,2.8-3.1
					c0.7,1.5,1.6,2.5,2.8,3.1c2.7,1.6,6.4,1.4,9.8,2.1c2.2,0.9,4.2,2,6,3.3c0.1,0.2,0.3,0.3,0.4,0.5c0.9,1.2,1.4,2.3,1.8,3.5
					c0,2.7-0.6,5.2-1.5,7.3c-2,0.9-4.5,1.7-7.3,2.3v0c0-4.1-5.4-7.5-12-7.5c-6.6,0-12,3.3-12,7.5v0
					C291.4,428.6,288.9,427.8,286.9,426.9"/>
				<path class="st19" d="M257.5,384.7c-1,0,0.1-6.1-3.4-10.2c-3.5-4.2-8.8-18.3-8.8-32.3c0-14.1,4.5-26.6,16.3-39.9
					c11.8-13.3,29.1-19.7,29.1-19.7l-8,8c0,0,4.3-6.5,19.7-11.6c12.2-4.1,20.1,0.5,20.1,0.5s-8-0.3-10.5,3.5c-0.6,1-2.9,2.4-2.9,2.4
					s3.7-9.2,21.1-1.6c17.3,7.6,17,21.2,29.1,25.4c12.4,4.3,15.9-1.2,15.9-1.2s-5.4,9.6-14.9,9.7c-1.8,0-1.7-0.1-1.7-0.1
					s3.6,10.3,4.3,18c0.7,7.9-1.5,13.2-2.1,27.9c-0.6,12.6-3.7,6.1-7.4,15.4c-1.3,3.1-1.3,6.6-1.3,6.6c-1.4,0.4-5-7.5-2.4-21.3
					c1.7-8.9-6.7-42.7-26.9-36.2c-12.4,4-15.5,12.2-24.7,5c-8-6.3-19.1-9.9-27.5-4.9c-8.3,5-13,16.2-11.6,34
					C261,384.9,257.5,384.7,257.5,384.7"/>
				<path class="st20" d="M252.4,500.2c0,0,0.5,0.2,1.2,0.5h104.2c0.8-0.4,1.3-0.5,1.3-0.5c0-48.1-27.2-55-31.3-55.7
					c-2.2,2.4-5.1,5.4-8.1,8.4c-6.4,6.3-13.2,12.5-13.2,12.5s-7.6-6.4-14.2-12.2c0,0,0-0.1,0-0.1c-2.7-2.3-5.2-4.5-6.9-6.1
					c-0.3-0.3-0.7-0.6-0.9-0.8c-0.7-0.7-1.2-1.2-1.5-1.5h0c-1,0.2-2.4,0.6-4,1.3c-0.3,0.1-0.6,0.3-0.9,0.4c-1.9,0.8-4,2.1-6.3,3.7
					c-0.3,0.3-0.6,0.5-0.9,0.7C262.1,457.6,252.4,471.7,252.4,500.2"/>
				<path class="st14" d="M285.6,437.4c-0.5,0.4-5.6,11.3-6.5,13.6c-0.9,2.3,0,8.9,0,8.9s0.7-3.6,2.7-4.5c2.1-1,6.4-1.4,8.1-0.6
					c1.7,0.8,9.8,7.2,11.3,8.2c1.5,1.1,3,2.8,3,3.4v34.4h3.5l-0.2-34.1l-3.9-12.2l-14.2-13.7c0,0,0.9-3.5,1-4
					C290.5,436.5,286.1,437,285.6,437.4"/>
				<path class="st14" d="M326.3,437.9c0.4,0.4,5.6,11.3,6.5,13.6c0.9,2.3,0,9,0,9s-0.7-3.6-2.7-4.5c-2.1-1-6.4-1.4-8.1-0.6
					c-1.7,0.8-9.8,7.2-11.3,8.2c-1.5,1.1-6.5,4.5-6.5,4.5l5-13.6l13.2-13.2c0,0-1.1-3.6-1.1-3.9C321.3,437,325.9,437.6,326.3,437.9"
					/>
			</g>
		</g>
		<circle class="st21" cx="380.6" cy="393" r="186.4"/>
		<circle class="st22" cx="380.6" cy="393" r="186.4"/>
	</g>
	<g>
		<g>
			
				<rect x="57.9" y="617.6" transform="matrix(0.7071 -0.7072 0.7072 0.7071 -398.7002 286.7049)" class="st1" width="177.5" height="13.9"/>
		</g>
		<g>
			<g>
				
					<ellipse transform="matrix(0.7071 -0.7071 0.7071 0.7071 -460.8821 260.8889)" class="st1" cx="84.5" cy="686.8" rx="15.7" ry="15.7"/>
			</g>
		</g>
	</g>
</g>
</svg>
