<?xml version="1.0" encoding="utf-8"?>
<!-- Generator: Adobe Illustrator 21.0.0, SVG Export Plug-In . SVG Version: 6.00 Build 0)  -->
<svg version="1.1" id="Layer_1" xmlns="http://www.w3.org/2000/svg" xmlns:xlink="http://www.w3.org/1999/xlink" x="0px" y="0px"
	 viewBox="0 0 30 30" enable-background="new 0 0 30 30" xml:space="preserve">
<g display="none">
	<g display="inline">
		<circle fill="#314A7E" cx="15" cy="15" r="14"/>
		<path fill="#FFFFFF" d="M18.6,15h-2.3v8.3h-3.4V15h-1.6v-2.9h1.6v-1.9c0-1.4,0.6-3.5,3.5-3.5l2.6,0v2.8H17c-0.3,0-0.7,0.2-0.7,0.8
			v1.7h2.6L18.6,15z M18.6,15"/>
	</g>
	<path display="inline" opacity="0.5" fill="#828282" d="M15,27.7c-7.5,0-13.7-5.9-14-13.4c0,0.2,0,0.4,0,0.7c0,7.8,6.3,14,14,14
		s14-6.3,14-14c0-0.2,0-0.4,0-0.7C28.7,21.8,22.5,27.7,15,27.7z"/>
</g>
<g>
	<circle fill="#339DC3" cx="15" cy="15" r="14"/>
	<g>
		<path fill="#FFFFFF" d="M23.7,9.6c-0.6,0.3-1.3,0.5-2,0.6c0.7-0.4,1.3-1.1,1.6-2c-0.7,0.4-1.4,0.7-2.3,0.9C20.3,8.4,19.4,8,18.3,8
			c-2,0-3.6,1.6-3.6,3.6c0,0.3,0,0.6,0.1,0.8c-3-0.1-5.6-1.6-7.3-3.7c-0.3,0.5-0.5,1.1-0.5,1.8c0,1.2,0.6,2.3,1.6,3
			c-0.6,0-1.1-0.2-1.6-0.4c0,0,0,0,0,0c0,1.7,1.2,3.2,2.9,3.5c-0.3,0.1-0.6,0.1-0.9,0.1c-0.2,0-0.5,0-0.7-0.1
			c0.5,1.4,1.8,2.4,3.3,2.5c-1.2,1-2.8,1.5-4.4,1.5c-0.3,0-0.6,0-0.8,0c1.6,1,3.4,1.6,5.5,1.6c6.5,0,10.1-5.4,10.1-10.1
			c0-0.2,0-0.3,0-0.5C22.6,11,23.2,10.3,23.7,9.6L23.7,9.6z M23.7,9.6"/>
	</g>
	<path opacity="0.5" fill="#828282" d="M15,27.7c-7.5,0-13.7-5.9-14-13.4c0,0.2,0,0.4,0,0.7c0,7.8,6.3,14,14,14c7.8,0,14-6.3,14-14
		c0-0.2,0-0.4,0-0.7C28.7,21.8,22.5,27.7,15,27.7z"/>
</g>
<g display="none">
	<circle display="inline" fill="#DC4335" cx="15" cy="15" r="14"/>
	<g display="inline">
		<path fill="#FFFFFF" d="M11.8,14.2v1.9H15c-0.1,0.8-1,2.4-3.2,2.4c-1.9,0-3.5-1.6-3.5-3.6c0-2,1.6-3.6,3.5-3.6
			c1.1,0,1.8,0.5,2.3,0.9l1.5-1.5c-1-0.9-2.3-1.5-3.8-1.5c-3.1,0-5.7,2.5-5.7,5.7s2.5,5.7,5.7,5.7c3.3,0,5.4-2.3,5.4-5.5
			c0-0.4,0-0.7-0.1-0.9H11.8L11.8,14.2z"/>
		<path fill="#FFFFFF" d="M23.9,14.2h-1.6v-1.6h-1.6v1.6h-1.6v1.6h1.6v1.6h1.6v-1.6h1.6V14.2z"/>
	</g>
	<path display="inline" opacity="0.5" fill="#828282" d="M15,27.7c-7.5,0-13.7-5.9-14-13.4c0,0.2,0,0.4,0,0.7c0,7.8,6.3,14,14,14
		c7.8,0,14-6.3,14-14c0-0.2,0-0.4,0-0.7C28.7,21.8,22.5,27.7,15,27.7z"/>
</g>
<g display="none">
	<g display="inline">
		<circle fill="#005983" cx="15" cy="15" r="14"/>
		<g>
			<path fill="#FFFFFF" d="M23.1,16.1v5.6h-3.2v-5.2c0-1.3-0.5-2.2-1.6-2.2c-0.9,0-1.4,0.6-1.7,1.2c-0.1,0.2-0.1,0.5-0.1,0.8v5.4
				h-3.2c0,0,0-8.8,0-9.7h3.2v1.4c0,0,0,0,0,0h0v0c0.4-0.7,1.2-1.6,2.9-1.6C21.5,11.7,23.1,13.1,23.1,16.1L23.1,16.1z M9.8,7.3
				C8.7,7.3,8,8,8,8.9c0,0.9,0.7,1.7,1.8,1.7h0c1.1,0,1.8-0.7,1.8-1.7C11.6,8,10.9,7.3,9.8,7.3L9.8,7.3z M8.1,21.7h3.2V12H8.1V21.7z
				 M8.1,21.7"/>
		</g>
	</g>
	<path display="inline" opacity="0.5" fill="#828282" d="M15,27.7c-7.5,0-13.7-5.9-14-13.4c0,0.2,0,0.4,0,0.7c0,7.8,6.3,14,14,14
		c7.8,0,14-6.3,14-14c0-0.2,0-0.4,0-0.7C28.7,21.8,22.5,27.7,15,27.7z"/>
</g>
</svg>
